<svg width="329" height="360" viewBox="0 0 329 360" fill="none" xmlns="http://www.w3.org/2000/svg">
<g clip-path="url(#clip0_7_11)">
<path d="M201.571 57.08C204.037 62.8726 204.728 68.6622 205.144 74.4533C206.708 96.3735 208.494 118.267 211.44 140.05C211.91 143.52 212.426 146.976 213.683 150.282C215.434 154.89 218.81 157.837 223.109 159.938C224.664 160.697 224.696 159.607 224.865 158.639C226.34 150.281 227.827 141.925 229.278 133.563C231.441 121.094 233.599 108.625 235.714 96.1469C236.369 92.2994 237.498 88.8129 241.759 87.6108C246.368 86.3092 250.041 88.212 253.28 91.2924C258.633 96.3818 259.925 102.921 259.689 109.916C259.28 122.132 257.774 134.26 256.718 146.427C255.721 157.877 256.249 169.213 259.482 180.295C261.15 186.023 263.5 191.54 266.203 196.85C272.613 209.449 275.912 222.818 275.886 236.867C275.827 268.505 261.572 292.188 234.634 308.221C220.728 316.5 205.382 319.069 189.325 318.013C169.039 316.68 151.651 308.268 135.731 296.218C122.565 286.253 111.013 274.517 99.4741 262.774C86.3702 249.436 73.1168 236.275 58.5603 224.492C55.0705 221.67 52.0272 218.229 52.1743 213.236C52.3592 206.803 56.5017 203.204 61.8738 201.113C71.666 197.304 81.147 198.569 90.1206 203.959C99.3856 209.531 106.365 217.616 113.697 225.336C117.945 229.81 121.914 234.583 126.982 238.209C131.115 241.165 135.726 240.655 140.327 239.981C141.878 239.751 141.061 238.922 140.581 238.268C136.371 232.493 132.228 226.662 127.925 220.954C115.503 204.486 103.021 188.057 90.5554 171.623C78.8985 156.257 67.2213 140.9 55.5647 125.535C54.6204 124.289 53.7315 123 52.8211 121.73C47.5769 114.432 50.9402 105.51 59.7563 103.559C69.6601 101.366 77.6898 105.003 84.6325 111.844C90.7191 117.841 95.3599 124.985 100.359 131.838C109.616 144.533 118.802 157.281 128.006 170.013C131.54 174.9 135.158 179.733 138.557 184.714C143.24 191.585 150.029 194.064 157.907 194.477C159.794 194.575 159.391 193.508 158.877 192.487C157.038 188.829 155.142 185.198 153.311 181.537C149.182 173.285 145.023 165.044 140.965 156.753C134.031 142.577 127.153 128.376 120.275 114.172C116.708 106.8 113.211 99.3959 109.661 92.0176C104.853 82.0237 100.08 72.0106 95.1868 62.0565C92.5807 56.7606 94.331 51.3487 99.7531 48.7774C105.91 45.8571 111.889 46.6278 117.744 49.739C124.42 53.2829 128.689 59.0961 132.147 65.5073C137.417 75.2734 142.032 85.3608 146.526 95.5072C152.134 108.174 157.652 120.882 163.124 133.604C164.617 137.076 165.999 140.631 168.017 143.877C171.062 148.772 175.608 151.51 180.935 153.224C182.652 153.777 183.341 153.515 183.111 151.469C181.881 140.518 180.767 129.554 179.597 118.593C178.27 106.155 176.919 93.7181 175.588 81.282C174.5 71.1378 173.437 60.9932 172.341 50.8524C171.824 46.064 174.431 42.4754 179.2 41.8429C184.86 41.0919 189.783 43.0099 194.026 46.6456C197.458 49.5889 200.207 53.0971 201.572 57.0841L201.571 57.08Z" stroke="#B344FF"/>
<path d="M66.1011 218.104C63.3191 213.359 72.1159 203.757 81.0774 209.814C101.988 223.948 119.723 259.37 145.974 244.306C151.612 241.071 138.021 224.87 138.021 224.87C138.021 224.87 90.6824 161.775 67.8393 132.574C53.113 113.749 68.2166 105.976 77.5561 116.713C131.622 178.867 201.384 288.622 201.384 288.622C201.384 288.622 212.956 307.658 208.328 309.552C202.109 312.096 197.604 304.756 193.771 300.382C175.877 279.959 157.081 251.646 157.081 251.646C157.081 251.646 155.357 256.674 149.72 260.061C144.763 263.039 138.151 264.795 138.151 264.795C138.151 264.795 158.262 283.578 177.532 301.624C179.266 303.247 184.726 307.324 182.329 309.386C177.625 313.429 171.609 312.323 164.491 308.041C132.957 289.07 76.8307 236.403 66.1011 218.104Z" stroke="#B344FF"/>
<path d="M188.317 232.922C183.848 226.107 180.251 223.772 177.672 225.393C175.094 227.013 174.469 236.344 176.58 239.886C186.931 257.26 200.374 278.231 209.399 292.366C212.699 297.533 218.062 307.28 223.704 304.88C230.617 301.941 224.896 291.33 220.947 284.939C209.755 266.829 198.373 248.256 188.317 232.922Z" stroke="#B344FF"/>
<path d="M164.018 201.267C162.672 200.089 155.162 196.787 150.913 199.606C147.992 201.545 162.354 218.587 164.441 219.462C167.049 220.556 171.403 219.314 171.845 216.432C172.286 213.55 165.701 202.739 164.018 201.267Z" stroke="#B344FF"/>
<path d="M116.237 88.4594C132.312 136.986 221.556 279.828 234.305 295.14C247.054 310.453 249.47 275.429 223.717 212.494C203.115 162.146 173.529 155.416 162.668 159.68C162.668 159.68 159.847 131.662 141.922 95.7773C134.099 80.1153 117.875 60.7769 112.701 63.9747C107.527 67.1726 110.411 70.8724 116.237 88.4594Z" stroke="#B344FF"/>
<path d="M196.345 156.164C201.677 169.196 222.474 196.255 230.238 215.228C238.002 234.201 249.47 275.429 249.47 275.429C252.507 279.769 258.566 284.456 258.514 268.486C258.449 248.524 246.563 236.64 238.23 204.394C229.938 172.304 237.555 177.659 251.728 126.479C256.753 104.433 244.111 102.583 240.221 115.52C236.33 128.457 230.545 168.448 225.69 168.467C203.035 168.553 198.073 108.456 199.01 82.1413C199.674 63.5013 188.556 44.7123 184.03 54.7759C178.373 67.3555 189.718 139.968 196.345 156.164Z" stroke="#B344FF"/>
<path d="M270.334 248.523C268.42 253.088 264.675 256.781 262.005 251.931C259.901 248.111 254.254 236.951 248.497 222.883C241.302 205.298 240.837 181.718 242.54 173.998C244.243 166.278 250.007 167.161 255.119 179.655C260.09 191.802 268.616 206.612 268.775 215.666C268.944 225.321 262.969 221.283 258.152 222.714C253.336 224.145 260.467 233.652 265.411 236.491C270.354 239.331 271.154 246.567 270.334 248.523Z" stroke="#B344FF"/>
<path d="M229.065 266.491C228.682 270.245 181.708 195.649 170.389 173.268C165.849 164.289 194.686 181.154 207.666 202.314C220.809 223.738 229.926 258.035 229.065 266.491Z" stroke="#B344FF"/>
<path d="M147.86 135.065C145.425 137.431 116.582 81.6654 122.367 85.2409C128.152 88.8164 136.588 100.865 140.526 108.824C145.448 118.773 150.295 132.699 147.86 135.065Z" stroke="#B344FF"/>
<path d="M262.421 210.703C262.59 213.227 255.964 216.046 255.964 216.046C245.156 220.469 246.958 183.211 249.482 183.042C252.638 182.832 262.211 207.547 262.421 210.703Z" stroke="#B344FF"/>
</g>
<defs>
<clipPath id="clip0_7_11">
<rect width="235" height="292" fill="white" transform="translate(0.459717 89.3743) rotate(-22.2542)"/>
</clipPath>
</defs>
</svg>
