<svg width="40" height="35" viewBox="0 0 40 35" fill="none" xmlns="http://www.w3.org/2000/svg">
<mask id="mask0_507_92" style="mask-type:luminance" maskUnits="userSpaceOnUse" x="0" y="0" width="40" height="35">
<path d="M39.775 0H0V34.9927H39.775V0Z" fill="white"/>
</mask>
<g mask="url(#mask0_507_92)">
<path d="M28.0133 28.9076L29.5687 31.5754C29.7646 31.9057 30.2423 31.9057 30.426 31.5754L31.9692 28.8954L38.2031 18.1143C38.4236 17.7349 38.4236 17.2576 38.2031 16.8661L31.9692 6.085L30.426 3.40504C30.23 3.07462 29.7524 3.07462 29.5687 3.40504L28.0133 6.07276L26.1027 9.34012L21.7181 16.8783C21.4976 17.2699 21.4976 17.7472 21.7181 18.1265L26.1027 25.6402L28.0133 28.9076ZM30.4505 16.8783L28.3684 13.2805C28.1847 12.9747 28.1847 12.5952 28.3684 12.2771L29.6544 10.0621C29.8014 9.81738 30.1566 9.81738 30.3035 10.0621L34.3084 17.0007C34.4921 17.3066 34.4921 17.6859 34.3084 17.9919L30.3035 24.9305C30.1566 25.1752 29.8014 25.1752 29.6544 24.9305L28.3684 22.7154C28.1847 22.4096 28.1847 22.0302 28.3684 21.7121L30.4505 18.1143C30.6709 17.7349 30.6709 17.2576 30.4505 16.8783Z" fill="url(#paint0_linear_507_92)"/>
<path d="M23.1266 7.63915L25.0495 4.35955L26.6171 1.67958C26.8131 1.34917 26.5681 0.933105 26.1885 0.933105H23.0776H10.573C10.1321 0.933105 9.71568 1.16561 9.49523 1.55721L3.24904 12.3628L1.70586 15.0427C1.5099 15.3732 1.75485 15.7892 2.13452 15.7892H5.23312H9.02983H14.4064H17.6643C18.1052 15.7892 18.5216 15.5567 18.742 15.1773L19.3667 14.1005L23.1266 7.63915ZM7.53564 11.7998L11.5405 4.86128C11.7243 4.55535 12.0427 4.35955 12.3979 4.35955H20.4199C20.7139 4.35955 20.8853 4.66548 20.7384 4.92247L19.4401 7.14966C19.2564 7.45559 18.938 7.63915 18.5828 7.63915H14.4432C14.0023 7.63915 13.5859 7.87166 13.3654 8.26325L11.2956 11.861C11.1119 12.1669 10.7935 12.3628 10.4383 12.3628H7.86632C7.57238 12.3505 7.38867 12.0446 7.53564 11.7998Z" fill="url(#paint1_linear_507_92)"/>
<path d="M25.0495 30.633L23.1389 27.3535L19.3789 20.9043L18.7543 19.8275C18.5338 19.4482 18.1174 19.2156 17.6765 19.2156H14.4187H9.02983H5.23312H2.13452C1.75485 19.2156 1.5099 19.6316 1.70586 19.9621L3.26128 22.6421L9.50748 33.4476C9.72793 33.827 10.1443 34.0717 10.5852 34.0717H23.0899H26.2007C26.5804 34.0717 26.8253 33.6556 26.6294 33.3252L25.0495 30.633ZM11.5405 30.1436L7.53564 23.205C7.38867 22.9603 7.57238 22.6421 7.85407 22.6421H10.426C10.7812 22.6421 11.1119 22.8257 11.2834 23.1437L13.3532 26.7416C13.5736 27.1209 13.99 27.3656 14.4309 27.3656H18.5706C18.9258 27.3656 19.2564 27.5492 19.4279 27.8551L20.7261 30.0823C20.8731 30.327 20.6894 30.6452 20.4077 30.6452H12.4101C12.0549 30.633 11.7243 30.4495 11.5405 30.1436Z" fill="url(#paint2_linear_507_92)"/>
</g>
<defs>
<linearGradient id="paint0_linear_507_92" x1="40.8673" y1="29.083" x2="20.2061" y2="28.5032" gradientUnits="userSpaceOnUse">
<stop stop-color="#FFB6FF"/>
<stop offset="1" stop-color="#B344FF"/>
</linearGradient>
<linearGradient id="paint1_linear_507_92" x1="30.4087" y1="14.3692" x2="-0.194484" y2="11.9009" gradientUnits="userSpaceOnUse">
<stop stop-color="#FFB6FF"/>
<stop offset="1" stop-color="#B344FF"/>
</linearGradient>
<linearGradient id="paint2_linear_507_92" x1="30.4227" y1="32.6516" x2="-0.195186" y2="30.181" gradientUnits="userSpaceOnUse">
<stop stop-color="#FFB6FF"/>
<stop offset="1" stop-color="#B344FF"/>
</linearGradient>
</defs>
</svg>
