<svg width="45" height="45" viewBox="0 0 235 292" fill="none" xmlns="http://www.w3.org/2000/svg">
    <g clip-path="url(#clip0_7_11)">
        <path d="M198.361 46.2752C198.45 52.5704 196.897 58.1905 195.089 63.7078C188.235 84.5876 181.596 105.526 176.073 126.803C175.194 130.192 174.363 133.586 174.274 137.122C174.149 142.05 176.158 146.056 179.341 149.628C180.493 150.92 180.935 149.923 181.458 149.091C185.989 141.915 190.53 134.744 195.039 127.554C201.763 116.833 208.483 106.111 215.166 95.3628C217.229 92.0498 219.595 89.2509 223.993 89.7517C228.752 90.2927 231.431 93.4448 233.262 97.5224C236.289 104.26 235.008 110.801 232.141 117.186C227.136 128.337 221.149 138.991 215.564 149.852C210.304 160.072 206.5 170.763 205.295 182.244C204.67 188.177 204.755 194.173 205.246 200.111C206.407 214.199 204.397 227.822 199.053 240.815C187.016 270.074 164.854 286.594 133.851 291.231C117.845 293.627 102.669 290.193 88.2078 283.134C69.9382 274.218 57.0308 259.848 46.8602 242.666C38.4486 228.457 32.2025 213.22 25.9698 197.982C18.8932 180.675 11.6113 163.475 2.60148 147.057C0.44056 143.123 -1.07298 138.786 0.954002 134.221C3.56139 128.337 8.75831 126.575 14.5223 126.674C25.0277 126.857 33.3232 131.619 39.5871 140.006C46.052 148.671 49.4497 158.798 53.3117 168.719C55.5485 174.469 57.4147 180.389 60.732 185.665C63.4376 189.966 67.8979 191.24 72.4117 192.358C73.9341 192.733 73.4921 191.656 73.2957 190.869C71.5857 183.93 69.9606 176.964 68.139 170.052C62.8795 150.106 57.5487 130.174 52.2357 110.243C47.2664 91.6072 42.2749 72.9718 37.3057 54.3365C36.9038 52.8252 36.569 51.2961 36.2074 49.776C34.1179 41.0351 40.6096 34.0513 49.5077 35.5849C59.5042 37.3062 65.5584 43.7132 69.3935 52.6732C72.7555 60.5289 74.3449 68.8987 76.3764 77.1344C80.1356 92.3896 83.8101 107.667 87.5069 122.936C88.9266 128.797 90.4446 134.641 91.7037 140.538C93.436 148.671 98.7803 153.536 105.915 156.902C107.625 157.707 107.656 156.567 107.567 155.427C107.25 151.345 106.87 147.267 106.562 143.185C105.866 133.984 105.138 124.782 104.522 115.572C103.473 99.825 102.486 84.0779 101.499 68.3264C100.99 60.1533 100.557 51.9757 100.066 43.8027C99.4009 32.7323 98.7758 21.6575 98.0168 10.5917C97.6105 4.7033 101.28 0.357441 107.272 0.0310546C114.076 -0.340043 119.318 2.63768 123.559 7.73468C128.395 13.5426 130.145 20.5398 130.917 27.7829C132.096 38.8174 132.547 49.9012 132.864 60.9939C133.257 74.8407 133.551 88.692 133.797 102.539C133.864 106.317 133.797 110.131 134.435 113.9C135.4 119.583 138.57 123.839 142.851 127.443C144.231 128.605 144.968 128.623 145.53 126.642C148.539 116.041 151.66 105.472 154.728 94.8844C158.21 82.8707 161.67 70.8481 165.148 58.8343C167.983 49.0338 170.841 39.2422 173.667 29.4416C175.002 24.8141 178.774 22.4802 183.427 23.7008C188.95 25.1494 192.78 28.7889 195.33 33.7607C197.392 37.7846 198.607 42.0724 198.361 46.2796V46.2752Z" fill="#994DFF"/>
        <path d="M29.0001 142C23.0001 133 11.2223 138.555 12.0001 144C15.0001 165 47.0001 235 69.0001 264.5C73.9663 271.159 79.1159 274.461 85.0001 272.5C88 271.5 84.4898 265.659 83.5001 263.5C72.5001 239.5 58.5001 213 58.5001 213C58.5001 213 67.7848 215.379 73.5001 214.5C80.0001 213.5 83.5001 209.5 83.5001 209.5C83.5001 209.5 90.1733 242.822 99.0001 268.5C100.891 274 102.281 282.5 109 282.5C114 282.5 110.5 260.5 110.5 260.5C110.5 260.5 87.5001 132.5 61.0001 54.5C56.4224 41.0261 39.5001 42.5 46.0001 65.5C56.0827 101.177 76.0001 177.5 76.0001 177.5C76.0001 177.5 82.4431 197.641 76.0001 198.5C46.0001 202.5 43.0001 163 29.0001 142Z" fill="white"/>
        <path d="M119.5 204C117.945 196 115.5 192.477 112.5 193C109.5 193.523 105.388 201.922 106 206C109 226 113.5 250.5 116.5 267C117.597 273.032 118.869 284.084 125 284C132.511 283.897 131.235 271.91 130 264.5C126.5 243.5 123 222 119.5 204Z" fill="white"/>
        <path d="M109 165.5C108.2 163.9 102.5 158 97.5001 159C94.0618 159.688 100.9 180.9 102.5 182.5C104.5 184.5 109 185 110.5 182.5C112 180 110 167.5 109 165.5Z" fill="white"/>
        <path d="M107.5 43C104 94 132.5 260 138.5 279C144.5 298 160 266.5 160 198.5C160 144.1 135.167 126.667 123.5 126.5C123.5 126.5 131.5 99.5 128.5 59.5C127.191 42.0419 119.5 18 113.5 19C107.5 20 108.768 24.5165 107.5 43Z" fill="white"/>
        <path d="M156 136C156 150.08 165 183 165 203.5C165 224 160 266.5 160 266.5C161.167 271.667 165 278.3 171 263.5C178.5 245 172 229.5 176.5 196.5C180.978 163.66 186 171.5 218.5 129.5C231.5 111 220.5 104.5 212 115C203.5 125.5 183 160.321 178.5 158.5C157.5 150 175.667 92.5 186.5 68.5C194.174 51.5 191 29.9 183 37.5C173 47 156 118.5 156 136Z" fill="white"/>
        <path d="M189.5 249.5C186 253 181.135 255 180.5 249.5C180 245.167 179 232.7 179 217.5C179 198.5 187.5 176.5 192 170C196.5 163.5 201.5 166.5 201.5 180C201.5 193.124 203.782 210.06 200.5 218.5C197 227.5 193 221.5 188 221C183 220.5 186 232 189.5 236.5C193 241 191 248 189.5 249.5Z" fill="white"/>
        <path d="M144.5 250.5C142.724 253.83 127.5 167 125.5 142C124.698 131.97 145 158.5 149 183C153.05 207.805 148.5 243 144.5 250.5Z" fill="#994DFF"/>
        <path d="M119.117 98.1102C115.967 99.3777 110.392 36.8427 114.392 42.3427C118.392 47.8427 121.637 62.1894 122.267 71.0466C123.055 82.1181 122.267 96.8427 119.117 98.1102Z" fill="#994DFF"/>
        <path d="M196.5 211.5C195.7 213.9 188.5 214 188.5 214C176.822 214 192.6 180.2 195 181C198 182 197.5 208.5 196.5 211.5Z" fill="#994DFF"/>
    </g>
    <defs>
        <clipPath id="clip0_7_11">
            <rect width="235" height="292" fill="white"/>
        </clipPath>
    </defs>
</svg>
