<?xml version="1.0" standalone="no"?>
<!DOCTYPE svg PUBLIC "-//W3C//DTD SVG 1.1//EN" "http://www.w3.org/Graphics/SVG/1.1/DTD/svg11.dtd" >
<svg xmlns="http://www.w3.org/2000/svg" xmlns:xlink="http://www.w3.org/1999/xlink" version="1.1">
<metadata>
Created by FontForge 20170812 at Tue Mar 15 18:27:59 2022
 By www-data
</metadata>
<defs>
<font id="CraftworkGrotesk-Bold" horiz-adv-x="666" >
  <font-face 
    font-family="Craftwork Grotesk Bold"
    font-weight="700"
    font-stretch="normal"
    units-per-em="1000"
    panose-1="0 0 8 0 0 0 0 0 0 0"
    ascent="800"
    descent="-200"
    x-height="566"
    cap-height="800"
    bbox="26 -200 1254 1000"
    underline-thickness="50"
    underline-position="-100"
    unicode-range="U+0020-25CA"
  />
<missing-glyph horiz-adv-x="600" 
d="M492 -200h-380v1200h380v-1200zM202 920v-40h78v-44h-80v-40h200v40h-80v44h80v40h-198zM200 765v-125h200v41h-80v84h-120zM280 681h-40v43h40v-43zM200 608v-40h80v-44h-80v-40h120v84h80v40h-200zM360 536v-80h-160v-40h200v120h-40zM280 389v-67h40v28h40v-57h-120
v96h-40v-135h200v135h-120zM200 182v-136h200v136h-200zM360 86h-120v56h120v-56zM200 18v-39h84l-84 -57v-39h200v39h-123l84 57h39v39h-200z" />
    <glyph glyph-name=".notdef" horiz-adv-x="600" 
d="M492 -200h-380v1200h380v-1200zM202 920v-40h78v-44h-80v-40h200v40h-80v44h80v40h-198zM200 765v-125h200v41h-80v84h-120zM280 681h-40v43h40v-43zM200 608v-40h80v-44h-80v-40h120v84h80v40h-200zM360 536v-80h-160v-40h200v120h-40zM280 389v-67h40v28h40v-57h-120
v96h-40v-135h200v135h-120zM200 182v-136h200v136h-200zM360 86h-120v56h120v-56zM200 18v-39h84l-84 -57v-39h200v39h-123l84 57h39v39h-200z" />
    <glyph glyph-name="space" unicode=" " horiz-adv-x="250" 
 />
    <glyph glyph-name="A" unicode="A" horiz-adv-x="929" 
d="M741 0l-83 192h-387l-83 -192h-138l344 800h139l346 -800h-138zM326 320l276 1l-138 320z" />
    <glyph glyph-name="B" unicode="B" horiz-adv-x="792" 
d="M383 800q123 0 189 -50.5t66 -135.5q0 -67 -36 -110.5t-109 -52.5q110 -9 179.5 -56t69.5 -148q0 -127 -101.5 -187t-257.5 -60h-333v800h333zM478.5 528q30.5 23 30.5 64q0 79 -126 79h-205v-166h205q65 0 95.5 23zM552.5 162q46.5 34 46.5 96q0 57 -47.5 89.5
t-168.5 32.5h-205v-252h205q123 0 169.5 34z" />
    <glyph glyph-name="C" unicode="C" horiz-adv-x="805" 
d="M615.5 53.5q-86.5 -53.5 -206.5 -53.5q-113 0 -194 52t-123 143.5t-42 208.5q0 116 42 205.5t123 140t194 50.5q123 0 209.5 -55.5t136.5 -171.5l-112 -73q-34 95 -90 133t-144 38q-65 0 -117.5 -29t-83 -88.5t-30.5 -149.5q0 -140 66.5 -207.5t171.5 -67.5q82 0 135 36
t84 117l114 -73q-47 -102 -133.5 -155.5z" />
    <glyph glyph-name="D" unicode="D" horiz-adv-x="784" 
d="M635.5 694q98.5 -106 98.5 -290q0 -186 -99 -295t-314 -109h-271v800h125v-1l146 1q216 0 314.5 -106zM537 195q72 68 72 209q0 270 -288 270h-146v-549l146 1q144 1 216 69z" />
    <glyph glyph-name="E" unicode="E" horiz-adv-x="675" 
d="M625 674h-450v-212l385 1v-126h-385v-212l450 1v-126h-575v799h575v-125z" />
    <glyph glyph-name="F" unicode="F" horiz-adv-x="675" 
d="M625 675h-450v-212l385 1v-126h-385v-337h-125v800h125v-1l450 1v-126z" />
    <glyph glyph-name="G" unicode="G" horiz-adv-x="807" 
d="M767 423q0 -195 -83.5 -309t-273.5 -114q-116 0 -197 52t-122 143t-41 209q0 117 40.5 206t121.5 139.5t197 50.5q122 0 207 -55.5t139 -171.5l-112 -73q-35 91 -87.5 131.5t-146.5 40.5q-108 0 -169.5 -71t-61.5 -197q0 -132 61 -203.5t171 -72.5q90 1 148 46t81 132
h-254v116l267 1h115z" />
    <glyph glyph-name="H" unicode="H" horiz-adv-x="735" 
d="M560 800h125v-800h-125v338h-385v-338h-125v800h125v-338l385 1v337z" />
    <glyph glyph-name="I" unicode="I" horiz-adv-x="225" 
d="M175 800v-800h-125v800h125z" />
    <glyph glyph-name="J" unicode="J" horiz-adv-x="668" 
d="M213 164.5q38 -39.5 123 -39.5q80 0 118.5 37.5t38.5 125.5v512h125v-512q0 -100 -27 -163t-89 -94t-166 -31q-106 0 -168.5 32t-90 94.5t-27.5 161.5h125q0 -84 38 -123.5z" />
    <glyph glyph-name="K" unicode="K" horiz-adv-x="729" 
d="M679 800l-329 -400l329 -400h-155l-250 307l-99 -119v-188h-125v800h125v-429l349 429h155z" />
    <glyph glyph-name="L" unicode="L" horiz-adv-x="675" 
d="M175 125h450v-125l-450 1v-1h-125v800h125v-675z" />
    <glyph glyph-name="M" unicode="M" horiz-adv-x="936" 
d="M886 800v-800h-126v515l-221 -515h-135l-227 519v-519h-127v800h128l293 -649l287 649h128z" />
    <glyph glyph-name="N" unicode="N" horiz-adv-x="749" 
d="M574 800h125v-800h-134l-390 606v-606h-125v800h134l390 -606v606z" />
    <glyph glyph-name="O" unicode="O" horiz-adv-x="834" 
d="M93 609.5q43 89.5 126.5 140t198.5 50.5t197.5 -50.5t125.5 -140t43 -205.5q0 -117 -43 -208.5t-125.5 -143.5t-197.5 -52t-198 52t-126.5 143.5t-43.5 208.5q0 116 43 205.5zM242 203.5q63 -74.5 176 -74.5q112 1 174.5 75.5t62.5 198.5q0 122 -62.5 195t-174.5 73
q-113 0 -176 -73t-63 -195q0 -125 63 -199.5z" />
    <glyph glyph-name="P" unicode="P" horiz-adv-x="781" 
d="M177 0h-127v800h318q154 0 258.5 -56t104.5 -204q0 -131 -107 -187t-256 -56h-191v-297zM368 419q110 0 165 27.5t55 97.5q0 69 -56 99t-164 30h-191v-254h191z" />
    <glyph glyph-name="Q" unicode="Q" horiz-adv-x="834" 
d="M742 197q-42 -91 -122 -142l134 -255h-135l-110 209q-43 -9 -91 -9q-115 0 -198 52t-126.5 143.5t-43.5 208.5q0 116 43 205.5t126.5 140t198.5 50.5t197.5 -50.5t125.5 -140t43 -205.5t-42 -207zM445 130l-100 190h135l78 -148q47 34 72 94t25 137q0 122 -62.5 195
t-174.5 73q-113 0 -176 -73t-63 -195q0 -125 63 -199.5t176 -74.5z" />
    <glyph glyph-name="R" unicode="R" horiz-adv-x="781" 
d="M690 411q-41 -51 -113 -79l143 -332h-141l-130 301q-36 -4 -81 -4h-191v-297h-127v800h318q159 0 261 -55.5t102 -204.5q0 -78 -41 -129zM368 419q83 0 131 13t68.5 40.5t20.5 71.5q0 65 -50 97t-170 32h-191v-254h191z" />
    <glyph glyph-name="S" unicode="S" horiz-adv-x="720" 
d="M259 157.5q52 -32.5 123 -32.5q77 0 120 24t43 74q0 52 -45.5 84t-142.5 51l-54 11q-109 21 -170 82t-61 156q0 60 35 103.5t95 66.5t134 23q118 0 188.5 -49t115.5 -153l-106 -49q-33 66 -82 97.5t-122 31.5q-61 0 -97 -21t-36 -68q0 -43 36 -66.5t112 -40.5l47 -11
q150 -36 214.5 -99t63.5 -161q-1 -104 -81 -157.5t-213 -53.5q-120 0 -195 52t-131 160l119 55q38 -77 90 -109.5z" />
    <glyph glyph-name="T" unicode="T" horiz-adv-x="727" 
d="M677 800v-125h-251v-675h-125v675h-251v124h251v1h376z" />
    <glyph glyph-name="U" unicode="U" horiz-adv-x="711" 
d="M175 800v-436q0 -90 19 -142t59.5 -74.5t107.5 -22.5q65 0 102.5 22.5t55 74t17.5 142.5v436h125v-436q0 -122 -26.5 -201t-92 -121t-181.5 -42q-121 0 -189 41.5t-95 120.5t-27 202v436h125z" />
    <glyph glyph-name="V" unicode="V" horiz-adv-x="769" 
d="M590 800h129l-274 -800h-139l-256 800h129l199 -607z" />
    <glyph glyph-name="W" unicode="W" horiz-adv-x="1133" 
d="M179 800l155 -624l168 624h129l155 -624l168 624h129l-230 -800h-139l-150 597l-163 -597h-139l-212 800h129z" />
    <glyph glyph-name="X" unicode="X" horiz-adv-x="787" 
d="M737 800l-271 -400l271 -400h-145l-198 293l-199 -293h-145l271 400l-271 400h145l199 -293l198 293h145z" />
    <glyph glyph-name="Y" unicode="Y" horiz-adv-x="789" 
d="M594 800h145l-280 -520v-278h-129v278l-280 520h139l205 -400z" />
    <glyph glyph-name="Z" unicode="Z" horiz-adv-x="717" 
d="M667 800l-406 -676l406 1v-125h-617l411 675h-394v124l470 1h130z" />
    <glyph glyph-name="A.ss01" horiz-adv-x="931" 
d="M742 0l-82 191h-390l-81 -191h-142l344 800h146l346 -800h-141zM325 320l280 1l-124 289v108h-33v-108z" />
    <glyph glyph-name="B.ss01" horiz-adv-x="792" 
d="M343 800q150 0 222.5 -44.5t72.5 -123.5q0 -59 -23.5 -94.5t-78.5 -54.5t-153 -22v-31q133 -1 211 -21.5t113 -64t35 -115.5q0 -117 -108.5 -173t-290.5 -56h-293v800h293zM472 528.5q37 23.5 37 64.5q0 39 -36.5 59t-129.5 20h-165v-167h165q92 0 129 23.5zM543.5 162
q55.5 35 55.5 94q0 58 -55 91t-201 33h-165v-253h165q145 0 200.5 35z" />
    <glyph glyph-name="G.ss01" horiz-adv-x="863" 
d="M813 423v-423h-119l29 306h-31q0 -93 -36 -162.5t-100 -106.5t-146 -37q-116 0 -197 52t-122 143t-41 209q0 117 40.5 206t121.5 139.5t197 50.5q122 0 207.5 -55.5t138.5 -171.5l-112 -73q-35 90 -87.5 131t-146.5 41q-63 0 -115.5 -28t-84 -88t-31.5 -152
q0 -141 66 -208t166 -68q89 0 142 42t71 136h-238v116l247 1h181z" />
    <glyph glyph-name="I.ss01" horiz-adv-x="655" 
d="M605 675h-207v-550h207v-125h-555v124h223v551h-223v124h223v1h332v-125z" />
    <glyph glyph-name="J.ss01" horiz-adv-x="651" 
d="M601 288q0 -160 -70 -224t-204 -64q-105 0 -165.5 29t-86 89.5t-25.5 160.5l124 1q0 -80 33 -118t120 -37q60 0 93 19.5t44.5 54.5t11.5 89v387h-346v124l471 1v-512z" />
    <glyph glyph-name="K.ss01" horiz-adv-x="729" 
d="M270 384h89l320 -384h-155l-274 338h-75v-338h-125v800h125v-338l76 1l273 337h155l-320 -383h-89v-33z" />
    <glyph glyph-name="M.ss01" horiz-adv-x="937" 
d="M50 800h128l293 -652l287 652h129v-800h-127v459l78 177h-33l-267 -636h-134l-272 636h-33l77 -177v-459h-126v800z" />
    <glyph glyph-name="N.ss01" horiz-adv-x="745" 
d="M50 800h134l421 -647h33l-66 105v542h123v-800h-134l-423 647h-33l70 -111v-536h-125v800z" />
    <glyph glyph-name="V.ss01" horiz-adv-x="763" 
d="M179 800l184 -557v-91h33v91l188 557h129l-268 -800h-139l-256 800h129z" />
    <glyph glyph-name="W.ss01" horiz-adv-x="1134" 
d="M955 800h129l-229 -800h-142l-149 566l-161 -566h-142l-211 800h129l138 -556v-92h34v92l151 556h130l138 -556v-92h33v92z" />
    <glyph glyph-name="Y.ss01" horiz-adv-x="775" 
d="M596 800h129l-275 -574v-226h-131v226l-269 574h129l190 -434v-93h33v93z" />
    <glyph glyph-name="K.ss02" horiz-adv-x="729" 
d="M679 800l-332 -400l332 -400h-155l-274 338h-75v-338h-125v800h125v-338l76 1l273 337h155z" />
    <glyph glyph-name="a" unicode="a" horiz-adv-x="639" 
d="M520 506.5q69 -65.5 69 -197.5v-309h-123l20 192h-15q-36 -206 -216 -206q-103 0 -154 44t-51 125q0 87 69 136t199 49h146q-10 53 -47.5 78.5t-106.5 25.5q-48 0 -81 -19.5t-63 -60.5l-102 69q48 69 107.5 104t138.5 35q141 0 210 -65.5zM403 151q45 36 57 106h-142
q-72 0 -106 -18.5t-34 -56.5q0 -30 24 -48.5t72 -18.5q84 0 129 36z" />
    <glyph glyph-name="b" unicode="b" horiz-adv-x="703" 
d="M530.5 532q56.5 -40 89.5 -109.5t33 -155.5q0 -75 -33 -140t-90 -103.5t-126 -38.5q-185 0 -219 201h-17l10 -186h-128v800h128v-234l-10 -184h21q20 91 76.5 140.5t138.5 49.5q70 0 126.5 -40zM446 133q38 21 59.5 57.5t21.5 82.5q0 73 -47 119.5t-120 46.5
q-47 0 -85 -21.5t-60 -59t-22 -82.5q0 -41 22.5 -79t61 -61.5t83.5 -23.5q48 0 86 21z" />
    <glyph glyph-name="c" unicode="c" horiz-adv-x="658" 
d="M331 -15q-79 0 -143.5 39.5t-101 107t-36.5 147.5t36.5 147.5t101 106.5t143.5 39q98 0 168 -41t109 -118l-99 -68q-38 56 -76.5 77.5t-91.5 21.5q-72 0 -117.5 -46t-45.5 -119q0 -77 45 -121.5t118 -44.5q99 0 159 88l101 -68q-79 -148 -270 -148z" />
    <glyph glyph-name="d" unicode="d" horiz-adv-x="703" 
d="M653 800v-800h-128l10 186h-17q-33 -201 -219 -201q-69 0 -126 38.5t-90 103.5t-33 140q0 86 33 155.5t89.5 109.5t126.5 40q82 0 138.5 -49.5t76.5 -140.5h21l-10 184v234h128zM426.5 135.5q38.5 23.5 61 61.5t22.5 79q0 45 -22 82.5t-60 59t-85 21.5q-73 0 -120 -46.5
t-47 -119.5q0 -46 21.5 -82.5t59.5 -57.5t86 -21q45 0 83.5 23.5z" />
    <glyph glyph-name="e" unicode="e" horiz-adv-x="670" 
d="M232.5 144.5q43.5 -35.5 109.5 -35.5q106 0 168 82l85 -58q-39 -74 -106 -111t-147 -37q-79 0 -146 39.5t-106.5 107t-39.5 147.5t39.5 147t106.5 106.5t146 39.5q84 0 148 -42t98 -117.5t31 -172.5h-441q11 -60 54.5 -95.5zM236.5 414.5q-43.5 -35.5 -57.5 -90.5h320
q-12 59 -55.5 92.5t-101.5 33.5q-62 0 -105.5 -35.5z" />
    <glyph glyph-name="f" unicode="f" horiz-adv-x="516" 
d="M348.5 683.5q-34.5 -7.5 -47 -32.5t-14.5 -85h179v-128h-180v-438h-125v438h-111v128h111q2 93 23 140.5t85 70.5t197 23v-110q-83 1 -117.5 -6.5z" />
    <glyph glyph-name="g" unicode="g" horiz-adv-x="731" 
d="M178.5 -167.5q-68.5 32.5 -116.5 101.5l96 63q35 -49 80 -68t116 -19q90 0 142 53.5t59 135.5l8 87h-17q-21 -107 -78.5 -149.5t-140.5 -42.5q-65 0 -122 38t-91.5 104t-34.5 146q0 79 32.5 145.5t89.5 105t126 38.5q81 0 138 -48t78 -141h20l-10 184h128v-383
q0 -195 -88 -289t-239 -94q-107 0 -175.5 32.5zM452.5 133.5q38.5 21.5 62 60t23.5 88.5q0 72 -47.5 114.5t-118.5 42.5q-48 0 -86.5 -20.5t-60.5 -56.5t-22 -80q0 -50 21.5 -88.5t60 -60t87.5 -21.5q42 0 80.5 21.5z" />
    <glyph glyph-name="h" unicode="h" horiz-adv-x="677" 
d="M568.5 507q59.5 -74 59.5 -239v-268h-125v268q0 95 -36 140t-113 45q-79 0 -125 -53.5t-46 -153.5v-246h-128v566h-1v234h128v-234h1l-28 -185h19q12 80 40 123.5t70.5 60t105.5 16.5q119 0 178.5 -74z" />
    <glyph glyph-name="i" unicode="i" horiz-adv-x="243" 
d="M71 637.5q-21 20.5 -21 50.5t21 51t52 21q29 0 49.5 -21t20.5 -51t-20.5 -50.5t-49.5 -20.5q-31 0 -52 20.5zM60 566h125v-566h-125v566z" />
    <glyph glyph-name="j" unicode="j" horiz-adv-x="390" 
d="M218 637.5q-21 20.5 -21 50.5t21 51t52 21q29 0 49.5 -21t20.5 -51t-20.5 -50.5t-49.5 -20.5q-31 0 -52 20.5zM207 566h125v-566q-1 -86 -17.5 -125.5t-74 -57t-186.5 -17.5v125q62 0 92.5 4.5t45.5 20t15 50.5v566z" />
    <glyph glyph-name="k" unicode="k" horiz-adv-x="585" 
d="M535 566l-213 -223l213 -343h-131l-155 266l-74 -77v-189h-125v800h125v-460l223 226h137z" />
    <glyph glyph-name="l" unicode="l" horiz-adv-x="225" 
d="M50 800h125v-800h-125v800z" />
    <glyph glyph-name="m" unicode="m" horiz-adv-x="1078" 
d="M178 567l-28 -186h24q23 110 83 155t136 45q87 0 136.5 -51.5t45.5 -148.5h24q23 110 83 155t136 45q103 0 156.5 -70t53.5 -243v-268h-124v268q0 185 -134 185q-79 0 -123 -53.5t-44 -153.5v-246h-124v268q0 185 -134 185q-79 0 -123 -53.5t-44 -153.5v-246h-128v567
h128z" />
    <glyph glyph-name="n" unicode="n" horiz-adv-x="673" 
d="M563.5 507q59.5 -74 59.5 -239v-268h-124v268q0 95 -36 140t-114 45q-79 0 -125 -53.5t-46 -153.5v-246h-128v566h128l-28 -185h19q12 80 40 123.5t70.5 60t105.5 16.5q119 0 178.5 -74z" />
    <glyph glyph-name="o" unicode="o" horiz-adv-x="667" 
d="M190 25q-65 40 -102.5 109t-37.5 151q0 81 37.5 149t102.5 108t144 40t144 -40t102 -108t37 -149q0 -82 -37 -151t-102 -109t-144 -40t-144 40zM449 158.5q43 49.5 43 125.5t-43 125t-115 49q-71 0 -115 -49.5t-44 -124.5q0 -76 44 -125.5t115 -49.5q72 0 115 49.5z" />
    <glyph glyph-name="p" unicode="p" horiz-adv-x="703" 
d="M530.5 532q56.5 -40 89.5 -109.5t33 -155.5q0 -75 -33 -140t-90 -103.5t-126 -38.5q-88 0 -145 49t-74 152h-17l10 -386h-128v766h128l-10 -185h20q20 93 76.5 142t139.5 49q70 0 126.5 -40zM446 133q38 21 59.5 57.5t21.5 82.5q0 73 -47 119.5t-120 46.5q-46 0 -84 -21
t-60.5 -57t-22.5 -79q0 -44 22 -83.5t60.5 -63t84.5 -23.5q48 0 86 21z" />
    <glyph glyph-name="q" unicode="q" horiz-adv-x="703" 
d="M653 566v-766h-128l10 386h-17q-17 -103 -74 -152t-146 -49q-68 0 -125 38.5t-90 103.5t-33 140q0 86 32.5 155.5t89.5 109.5t126 40q84 0 140.5 -49t76.5 -142h20l-10 185h128zM427 135.5q38 23.5 60.5 63t22.5 83.5q0 43 -22.5 79t-61 57t-83.5 21q-48 0 -86.5 -21
t-60 -59t-21.5 -86q0 -46 21.5 -82.5t60 -57.5t86.5 -21q46 0 84 23.5z" />
    <glyph glyph-name="r" unicode="r" horiz-adv-x="447" 
d="M209 496q28 40 72.5 55t115.5 15v-139q-30 6 -56 6q-79 0 -121.5 -49.5t-42.5 -137.5v-246h-127v567h127l-28 -186h20q12 75 40 115z" />
    <glyph glyph-name="s" unicode="s" horiz-adv-x="620" 
d="M230.5 134.5q36.5 -24.5 93.5 -24.5q122 0 122 53q0 26 -24 40t-92 27l-36 7q-114 21 -165 64.5t-51 115.5q0 42 24.5 77t76 56.5t127.5 21.5q98 0 156 -39.5t96 -118.5l-107 -51q-29 48 -62 67.5t-83 19.5q-56 0 -80.5 -13.5t-24.5 -35.5q0 -23 19.5 -36t73.5 -25l36 -7
q94 -17 145.5 -42t71.5 -57.5t20 -78.5q0 -42 -25.5 -80.5t-80.5 -62.5t-137 -24q-101 0 -164.5 38.5t-109.5 125.5l120 54q24 -47 60.5 -71.5z" />
    <glyph glyph-name="t" unicode="t" horiz-adv-x="517" 
d="M294 173q9 -31 42.5 -39.5t130.5 -8.5v-125q-148 0 -211 24t-79.5 80.5t-16.5 188.5v145h-110v128h110v194h125v-194h181v-128h-181v-145q0 -89 9 -120z" />
    <glyph glyph-name="u" unicode="u" horiz-adv-x="673" 
d="M623 566v-566h-128l28 185h-19q-12 -80 -40 -123.5t-70.5 -60t-105.5 -16.5q-119 0 -178.5 74t-59.5 239v268h124v-268q0 -95 36 -140t114 -45q79 0 125 53.5t46 153.5v246h128z" />
    <glyph glyph-name="v" unicode="v" horiz-adv-x="659" 
d="M479 566h130l-136 -566h-276l-147 566h130l127 -488h55z" />
    <glyph glyph-name="w" unicode="w" horiz-adv-x="996" 
d="M852 566h130l-115 -566h-277l-40 254l-19 69l-18 -68l-36 -255h-276l-127 566h130l109 -488h50l100 488h130l109 -488h51z" />
    <glyph glyph-name="x" unicode="x" horiz-adv-x="704" 
d="M654 0h-146l-157 202l-157 -202h-144l219 283v25l-200 258h147l136 -176l136 176h145l-199 -257v-25z" />
    <glyph glyph-name="y" unicode="y" horiz-adv-x="658" 
d="M608 566l-121 -507q-23 -99 -68 -155.5t-118 -80t-186 -23.5v119q94 0 132 3.5t59 20t35 57.5h-144l-147 566h129l127 -488h56l117 488h129z" />
    <glyph glyph-name="z" unicode="z" horiz-adv-x="606" 
d="M260 120h296v-120h-506l288 446h-254v120h460z" />
    <glyph glyph-name="a.ss01" horiz-adv-x="703" 
d="M653 566v-566h-128l10 186h-17q-33 -201 -220 -201q-68 0 -125 38.5t-90 103.5t-33 140q0 86 32.5 155.5t89.5 109.5t126 40q82 0 139 -49.5t77 -140.5h21l-10 184h128zM426.5 135.5q38.5 23.5 61 61.5t22.5 79q0 45 -22 82.5t-60.5 59t-84.5 21.5q-48 0 -86.5 -21
t-60 -59t-21.5 -86q0 -46 21.5 -82.5t60 -57.5t86.5 -21q45 0 83.5 23.5z" />
    <glyph glyph-name="f.ss01" horiz-adv-x="516" 
d="M348.5 683.5q-34.5 -7.5 -47 -32.5t-14.5 -85h179v-128h-180v-310h176v-128h-412v128h111v310h-111v128h111q2 93 23 140.5t85 70.5t197 23v-110q-83 1 -117.5 -6.5z" />
    <glyph glyph-name="g.ss01" horiz-adv-x="660" 
d="M165.5 -167.5q-65.5 32.5 -113.5 101.5l102 69q37 -43 73.5 -59t104.5 -16q75 0 115 25t40 69q0 64 -82 64q-34 0 -80 -10l-202 -38l-33 124l243 60q-109 6 -169.5 24t-87 53t-26.5 95q0 50 35 93t99 69t148 26q44 0 88.5 -11t75.5 -30l114 37v-88h-51q27 -22 37.5 -45.5
t10.5 -61.5q0 -73 -59 -125t-189 -81l-55 -19q-61 -20 -84 -27l4 -15q14 4 53 12l36 8q97 19 151 19q75 0 109 -31.5t34 -101.5q0 -52 -31 -103t-93 -85t-151 -34q-101 0 -166.5 32.5zM491 377q0 41 -41 62.5t-118 21.5q-78 0 -119 -21.5t-41 -62.5q0 -81 160 -81
q159 0 159 81z" />
    <glyph glyph-name="i.ss01" horiz-adv-x="536" 
d="M219 637q-21 21 -21 51t21 50.5t52 20.5q29 0 49 -20.5t20 -50.5t-20 -51t-49 -21q-31 0 -52 21zM332 125h154v-125h-436v125h157v317h-149v124h274v-441z" />
    <glyph glyph-name="j.ss01" horiz-adv-x="404" 
d="M229 637.5q-21 20.5 -21 50.5t21 51t52 21q29 0 49.5 -21t20.5 -51t-20.5 -50.5t-49.5 -20.5q-31 0 -52 20.5zM343 0q-1 -85 -14.5 -123t-71.5 -57.5t-192 -19.5v125q68 0 99.5 5.5t42.5 21t11 48.5v436h-168v130h293v-566z" />
    <glyph glyph-name="r.ss01" horiz-adv-x="582" 
d="M484 446q-74 0 -122.5 -48t-48.5 -135v-135h188v-128h-451v128h135v312h-119v126h247l-28 -161h23q17 88 69 132t155 44v-140q-27 5 -48 5z" />
    <glyph glyph-name="t.ss01" horiz-adv-x="584" 
d="M534 566v-127h-180v-439h-123v439h-181v127h181v178h123v-178h180z" />
    <glyph glyph-name="y.ss01" horiz-adv-x="654" 
d="M606 566l-136 -566h-72q-1 -82 -16 -121.5t-73.5 -59t-187.5 -19.5v125q73 0 102 4t40 19t11 52h-80l-146 566h129l126 -488h57l117 488h129z" />
    <glyph glyph-name="a.ss02" horiz-adv-x="639" 
d="M520 506.5q69 -65.5 69 -197.5v-309h-123l20 192h-15q-36 -206 -216 -206q-103 0 -154 44t-51 125q0 88 68.5 136.5t199.5 48.5h146q-10 53 -47.5 78.5t-106.5 25.5q-51 0 -101.5 -20t-125.5 -71l-1 132q55 42 107.5 64.5t120.5 22.5q141 0 210 -65.5zM403 151
q45 36 57 106h-142q-72 0 -106 -18.5t-34 -56.5q0 -30 24 -48.5t72 -18.5q84 0 129 36z" />
    <glyph glyph-name="c.ss02" horiz-adv-x="630" 
d="M196 24.5q-68 39.5 -107 107t-39 147.5t39 147.5t107 106.5t153 39q142 0 231 -93v-134q-58 52 -110.5 75.5t-120.5 23.5q-48 0 -87 -20.5t-61.5 -58t-22.5 -85.5q0 -77 48 -122t123 -45q70 0 124.5 22.5t106.5 71.5v-132q-73 -90 -231 -90q-85 0 -153 39.5z" />
    <glyph glyph-name="e.ss02" horiz-adv-x="654" 
d="M604 239h-426q11 -60 54.5 -95.5t109.5 -35.5q59 0 111.5 14t111.5 52v-129q-54 -33 -102 -47t-121 -14q-79 0 -146 39.5t-106.5 107t-39.5 147.5q0 79 39.5 146.5t106.5 107t146 39.5q268 0 262 -332zM238 413.5q-43 -33.5 -58 -86.5h318q-14 57 -56.5 88.5t-99.5 31.5
q-61 0 -104 -33.5z" />
    <glyph glyph-name="f.ss02" horiz-adv-x="572" 
d="M272 687q-21 -12 -21 -34q0 -28 36 -61h216l-1 -128h-217v-464h-126l1 464h-110l1 128h109q-33 39 -33 78q0 36 27 66t73.5 47t101.5 17q66 0 111 -16t80 -46v-114q-47 42 -90.5 58.5t-100.5 16.5q-36 0 -57 -12z" />
    <glyph glyph-name="g.ss02" horiz-adv-x="701" 
d="M225 -191q-41 9 -68 22.5t-63 37.5v127q43 -40 102.5 -62.5t128.5 -22.5q96 0 151 64t55 187v24h-14q-34 -201 -219 -201q-69 0 -125.5 39.5t-89.5 108t-33 149.5q0 79 33 145.5t89.5 105.5t125.5 39q81 0 138 -48.5t78 -141.5h17l-6 184h126v-404q0 -182 -87.5 -272
t-238.5 -90q-59 0 -100 9zM424.5 133q38.5 21 62 60t23.5 89t-24 85.5t-62 53.5t-81 18q-48 0 -86.5 -20.5t-60.5 -56.5t-22 -80q0 -50 22 -88.5t60.5 -60t86.5 -21.5q43 0 81.5 21z" />
    <glyph glyph-name="j.ss02" horiz-adv-x="424" 
d="M215 637.5q-21 20.5 -21 50.5t21 51t52 21q29 0 49.5 -21t20.5 -51t-20.5 -50.5t-49.5 -20.5q-31 0 -52 20.5zM204 566h125v-566q-1 -54 -22.5 -87t-80 -59t-175.5 -54v129q65 4 97 11t44 20.5t12 39.5v566z" />
    <glyph glyph-name="s.ss02" horiz-adv-x="589" 
d="M187 135.5q52 -25.5 109 -25.5q122 0 122 53q0 26 -23.5 40.5t-92.5 26.5l-36 7q-114 21 -165 64.5t-51 115.5q0 42 24.5 77t76 56.5t127.5 21.5q63 0 105 -14.5t65 -34.5t44 -49v-131q-62 61 -111.5 84t-102.5 23q-55 0 -80 -13.5t-25 -35.5q0 -23 19.5 -36t73.5 -25
l36 -7q94 -17 145.5 -42t71.5 -57.5t20 -78.5q0 -42 -25.5 -80.5t-80.5 -62.5t-137 -24q-69 0 -120.5 26.5t-100.5 83.5v129q60 -66 112 -91.5z" />
    <glyph glyph-name="uni0410" unicode="&#x410;" horiz-adv-x="929" 
d="M741 0l-83 192h-387l-83 -192h-138l344 800h139l346 -800h-138zM326 320l276 1l-138 320z" />
    <glyph glyph-name="uni0411" unicode="&#x411;" horiz-adv-x="792" 
d="M178 505h229q153 0 244 -62t91 -187q0 -127 -91.5 -191.5t-243.5 -64.5h-357v800h630v-129h-502v-166zM553.5 161q45.5 33 45.5 95q0 61 -45 92.5t-147 31.5h-229v-252h229q101 0 146.5 33z" />
    <glyph glyph-name="uni0412" unicode="&#x412;" horiz-adv-x="792" 
d="M383 800q123 0 189 -50.5t66 -135.5q0 -67 -36 -110.5t-109 -52.5q110 -9 179.5 -56t69.5 -148q0 -127 -101.5 -187t-257.5 -60h-333v800h333zM478.5 528q30.5 23 30.5 64q0 79 -126 79h-205v-166h205q65 0 95.5 23zM552.5 162q46.5 34 46.5 96q0 57 -47.5 89.5
t-168.5 32.5h-205v-252h205q123 0 169.5 34z" />
    <glyph glyph-name="uni0413" unicode="&#x413;" horiz-adv-x="652" 
d="M178 671v-671h-128v800h552v-129h-424z" />
    <glyph glyph-name="uni0490" unicode="&#x490;" horiz-adv-x="648" 
d="M474 1000h128v-329h-424v-671h-128v800h424v200z" />
    <glyph glyph-name="uni0414" unicode="&#x414;" horiz-adv-x="1055" 
d="M1005 -200h-125v200l-635 1q-14 -1 -45 -1h-25v-200h-125v325h150q54 0 76.5 9t33 46t10.5 124v496h515v-675h170v-325zM710 675h-265v-371q0 -111 -19 -179h284v550z" />
    <glyph glyph-name="uni0415" unicode="&#x415;" horiz-adv-x="675" 
d="M625 674h-450v-212l385 1v-126h-385v-212l450 1v-126h-575v799h575v-125z" />
    <glyph glyph-name="uni0401" unicode="&#x401;" horiz-adv-x="675" 
d="M206 877.5q-21 20.5 -21 50.5t21 51t52 21q29 0 49.5 -21t20.5 -51q0 -29 -20.5 -50t-49.5 -21q-31 0 -52 20.5zM377 878q-21 21 -21 50q0 30 21 51t52 21q29 0 49.5 -21t20.5 -51q0 -29 -20.5 -50t-49.5 -21q-31 0 -52 21zM625 674h-450v-212l385 1v-126h-385v-212
l450 1v-126h-575v799h575v-125z" />
    <glyph glyph-name="uni0416" unicode="&#x416;" horiz-adv-x="1101" 
d="M1051 800l-266 -400l266 -400h-151l-218 338h-69v-338h-125v338h-69l-218 -338h-151l266 400l-266 400h151l218 -337l69 -1v338h125v-338l69 1l218 337h151z" />
    <glyph glyph-name="uni0417" unicode="&#x417;" horiz-adv-x="759" 
d="M656.5 376q52.5 -44 52.5 -133q0 -125 -93 -184t-253 -59v-1q-155 0 -234 68.5t-79 220.5h129q0 -79 46 -119.5t138 -40.5q103 0 153 29.5t50 90.5q0 50 -38 79t-110 29h-94v125h94q62 0 93 25t31 72q0 37 -17.5 57t-56 28t-105.5 8q-86 0 -129 -30t-43 -95h-129
q0 132 72 193t229 61q161 0 234.5 -47t73.5 -147q0 -75 -42 -122.5t-111 -56.5q86 -7 138.5 -51z" />
    <glyph glyph-name="uni0418" unicode="&#x418;" horiz-adv-x="749" 
d="M699 800v-800h-125v606l-390 -606h-134v800h125v-606l390 606h134z" />
    <glyph glyph-name="uni0419" unicode="&#x419;" horiz-adv-x="749" 
d="M241.5 806.5q-61.5 24.5 -100 74t-38.5 119.5h125q-1 -57 35.5 -81t107.5 -24q66 0 101 24.5t35 80.5h125q0 -70 -38 -119t-98 -74t-125 -25q-68 0 -129.5 24.5zM699 800v-800h-125v606l-390 -606h-134v800h125v-606l390 606h134z" />
    <glyph glyph-name="uni041A" unicode="&#x41a;" horiz-adv-x="729" 
d="M679 800l-332 -400l332 -400h-155l-274 338h-75v-338h-125v800h125v-338l76 1l273 337h155z" />
    <glyph glyph-name="uni041B" unicode="&#x41b;" horiz-adv-x="735" 
d="M685 0h-125v675h-265v-371q0 -135 -27 -200.5t-77 -84.5t-141 -19v125q54 0 76.5 9t33 46t10.5 124v496h515v-800z" />
    <glyph glyph-name="uni041C" unicode="&#x41c;" horiz-adv-x="936" 
d="M886 800v-800h-126v515l-221 -515h-135l-227 519v-519h-127v800h128l293 -649l287 649h128z" />
    <glyph glyph-name="uni041D" unicode="&#x41d;" horiz-adv-x="735" 
d="M560 800h125v-800h-125v338h-385v-338h-125v800h125v-338l385 1v337z" />
    <glyph glyph-name="uni041E" unicode="&#x41e;" horiz-adv-x="834" 
d="M93 609.5q43 89.5 126.5 140t198.5 50.5t197.5 -50.5t125.5 -140t43 -205.5q0 -117 -43 -208.5t-125.5 -143.5t-197.5 -52t-198 52t-126.5 143.5t-43.5 208.5q0 116 43 205.5zM242 203.5q63 -74.5 176 -74.5q112 1 174.5 75.5t62.5 198.5q0 122 -62.5 195t-174.5 73
q-113 0 -176 -73t-63 -195q0 -125 63 -199.5z" />
    <glyph glyph-name="uni041F" unicode="&#x41f;" horiz-adv-x="735" 
d="M685 800v-800h-125v675h-385v-675h-125v800h635z" />
    <glyph glyph-name="uni0420" unicode="&#x420;" horiz-adv-x="781" 
d="M177 0h-127v800h318q154 0 258.5 -56t104.5 -204q0 -131 -107 -187t-256 -56h-191v-297zM368 419q110 0 165 27.5t55 97.5q0 69 -56 99t-164 30h-191v-254h191z" />
    <glyph glyph-name="uni0421" unicode="&#x421;" horiz-adv-x="805" 
d="M615.5 53.5q-86.5 -53.5 -206.5 -53.5q-113 0 -194 52t-123 143.5t-42 208.5q0 116 42 205.5t123 140t194 50.5q123 0 209.5 -55.5t136.5 -171.5l-112 -73q-34 95 -90 133t-144 38q-65 0 -117.5 -29t-83 -88.5t-30.5 -149.5q0 -140 66.5 -207.5t171.5 -67.5q82 0 135 36
t84 117l114 -73q-47 -102 -133.5 -155.5z" />
    <glyph glyph-name="uni0422" unicode="&#x422;" horiz-adv-x="727" 
d="M677 800v-125h-251v-675h-125v675h-251v124h251v1h376z" />
    <glyph glyph-name="uni0423" unicode="&#x423;" horiz-adv-x="801" 
d="M604 800h143l-379 -800h-143l122 258l-297 542h143l220 -402z" />
    <glyph glyph-name="uni0424" unicode="&#x424;" horiz-adv-x="898" 
d="M805 236.5q-43 -71.5 -119.5 -113.5t-176.5 -52v-71h-125v71q-98 11 -173.5 53t-118 113t-42.5 166q0 94 42.5 164t118 111t173.5 51v71h125v-71q100 -10 176.5 -50.5t119.5 -110.5t43 -165t-43 -166.5zM665 262q55 50 55 141q0 176 -211 197v-400q101 12 156 62z
M232.5 261.5q53.5 -50.5 151.5 -62.5v401q-205 -23 -205 -197q0 -91 53.5 -141.5z" />
    <glyph glyph-name="uni0425" unicode="&#x425;" horiz-adv-x="787" 
d="M737 800l-271 -400l271 -400h-145l-198 293l-199 -293h-145l271 400l-271 400h145l199 -293l198 293h145z" />
    <glyph glyph-name="uni0427" unicode="&#x427;" horiz-adv-x="781" 
d="M177 800v-196q0 -74 26 -114.5t76.5 -55.5t133.5 -15h190v381h128v-800h-128v297h-190q-166 0 -264.5 65.5t-98.5 241.5v196h127z" />
    <glyph glyph-name="uni0426" unicode="&#x426;" horiz-adv-x="885" 
d="M835 125v-325h-125v200h-660v800h125v-675h385v675h125v-675h150z" />
    <glyph glyph-name="uni0428" unicode="&#x428;" horiz-adv-x="1071" 
d="M50 800h125v-675h295v675h125v-675h301v675h125v-800h-971v800z" />
    <glyph glyph-name="uni0429" unicode="&#x429;" horiz-adv-x="1221" 
d="M1171 125v-325h-125v200h-996v800h125v-675h295v675h125v-675h301v675h125v-675h150z" />
    <glyph glyph-name="uni042C" unicode="&#x42c;" horiz-adv-x="781" 
d="M624 447q107 -56 107 -187q0 -148 -104.5 -204t-258.5 -56h-318v800h127v-297h191q149 0 256 -56zM368 127q108 0 164 30t56 99q0 70 -55 97.5t-165 27.5h-191v-254h191z" />
    <glyph glyph-name="uni042A" unicode="&#x42a;" horiz-adv-x="955" 
d="M798 447q107 -56 107 -187q0 -148 -104.5 -204t-258.5 -56h-318v675h-174v125h301v-297h191q149 0 256 -56zM706 157q56 30 56 99q0 70 -55 97.5t-165 27.5h-191v-254h191q108 0 164 30z" />
    <glyph glyph-name="uni042B" unicode="&#x42b;" horiz-adv-x="1006" 
d="M624 447q107 -56 107 -187q0 -148 -104.5 -204t-258.5 -56h-318v800h127v-297h191q149 0 256 -56zM956 0h-125v800h125v-800zM368 127q108 0 164 30t56 99q0 70 -55 97.5t-165 27.5h-191v-254h191z" />
    <glyph glyph-name="uni0404" unicode="&#x404;" horiz-adv-x="805" 
d="M551 165q53 36 84 117l114 -73q-47 -102 -133.5 -155.5t-206.5 -53.5q-113 0 -194 52t-123 143.5t-42 208.5q0 116 42 205.5t123 140t194 50.5q123 0 209.5 -55.5t136.5 -171.5l-112 -73q-34 95 -90 133t-144 38q-89 0 -151 -52.5t-76 -157.5h278v-122h-278
q15 -107 78.5 -158.5t155.5 -51.5q82 0 135 36z" />
    <glyph glyph-name="uni042D" unicode="&#x42d;" horiz-adv-x="805" 
d="M590 749.5q81 -50.5 123 -140t42 -205.5q0 -117 -42 -208.5t-123 -143.5t-194 -52q-120 0 -206.5 53.5t-133.5 155.5l114 73q31 -81 84 -117t135 -36q92 0 155.5 51.5t78.5 158.5h-278v122h278q-14 105 -76 157.5t-151 52.5q-88 0 -144 -38t-90 -133l-112 73
q50 116 136.5 171.5t209.5 55.5q113 0 194 -50.5z" />
    <glyph glyph-name="uni0406" unicode="&#x406;" horiz-adv-x="225" 
d="M175 800v-800h-125v800h125z" />
    <glyph glyph-name="uni0407" unicode="&#x407;" horiz-adv-x="366" 
d="M47 877.5q-21 20.5 -21 50.5t21 51t52 21q29 0 49.5 -21t20.5 -51q0 -29 -20.5 -50t-49.5 -21q-31 0 -52 20.5zM218 878q-21 21 -21 50q0 30 21 51t52 21q29 0 49.5 -21t20.5 -51q0 -29 -20.5 -50t-49.5 -21q-31 0 -52 21zM246 0h-125v800h125v-800z" />
    <glyph glyph-name="uni042E" unicode="&#x42e;" horiz-adv-x="1075" 
d="M856 749.5q83 -50.5 126 -140t43 -205.5t-43.5 -208t-126 -144t-197.5 -52q-104 0 -182 43t-124 119t-58 176h-119v-338h-125v800h125v-338l118 1q11 100 57 176t124.5 118.5t183.5 42.5q115 0 198 -50.5zM832.5 204.5q62.5 74.5 62.5 198.5q0 122 -62.5 195t-174.5 73
q-113 0 -175.5 -73t-62.5 -195q0 -125 62.5 -199.5t175.5 -74.5q112 1 174.5 75.5z" />
    <glyph glyph-name="uni042F" unicode="&#x42f;" horiz-adv-x="785" 
d="M731 800v-800h-128v297h-178l-226 -297h-148l235 308q-105 19 -170.5 75t-65.5 157q0 148 104 204t259 56h318zM603 673h-190q-108 0 -164 -30t-56 -99q0 -70 55.5 -97.5t164.5 -27.5h190v254z" />
    <glyph glyph-name="uni0430" unicode="&#x430;" horiz-adv-x="639" 
d="M520 506.5q69 -65.5 69 -197.5v-309h-123l20 192h-15q-36 -206 -216 -206q-103 0 -154 44t-51 125q0 87 69 136t199 49h146q-10 53 -47.5 78.5t-106.5 25.5q-48 0 -81 -19.5t-63 -60.5l-102 69q48 69 107.5 104t138.5 35q141 0 210 -65.5zM403 151q45 36 57 106h-142
q-72 0 -106 -18.5t-34 -56.5q0 -30 24 -48.5t72 -18.5q84 0 129 36z" />
    <glyph glyph-name="uni0431" unicode="&#x431;" horiz-adv-x="726" 
d="M130.5 592.5q73.5 82.5 183.5 101.5l32 6q81 16 114.5 37.5t40.5 62.5h125q-6 -96 -49.5 -144.5t-145.5 -67.5l-35 -6q-79 -14 -127.5 -38t-75.5 -68t-34 -118h23q7 46 37.5 81.5t75 54.5t92.5 19q91 0 156.5 -35t99 -95t33.5 -134t-33.5 -134t-99 -95t-156.5 -35
q-171 0 -255 88.5t-79 258.5v28q4 150 77.5 232.5zM232.5 145.5q48.5 -35.5 135.5 -35.5q79 0 130.5 36.5t51.5 102.5t-51.5 102.5t-130.5 36.5q-88 0 -136 -36t-48 -106q0 -65 48.5 -100.5z" />
    <glyph glyph-name="uni0432" unicode="&#x432;" horiz-adv-x="664" 
d="M355 566q101 0 149 -35t48 -89t-34.5 -88.5t-87.5 -41.5v-17q72 -7 119 -44t47 -100q0 -71 -60.5 -111t-180.5 -40h-305v566h305zM417 362q20 11 20 39q0 27 -20 38t-62 11h-183v-99h183q42 0 62 11zM462 185q0 29 -25 42.5t-82 13.5h-183v-118h183q107 0 107 62z" />
    <glyph glyph-name="uni0433" unicode="&#x433;" horiz-adv-x="543" 
d="M493 566v-121h-313v-445h-130v566h443z" />
    <glyph glyph-name="uni0491" unicode="&#x491;" horiz-adv-x="543" 
d="M363 760h130v-315h-313v-445h-130v566h313v194z" />
    <glyph glyph-name="uni0434" unicode="&#x434;" horiz-adv-x="874" 
d="M824 121v-321l-123 1v199h-528v-199l-123 -1v321h87q55 0 76.5 11t29.5 52t8 141v241h450v-445h123zM582 121v324h-214v-120q0 -70 -4.5 -119.5t-16.5 -84.5h235z" />
    <glyph glyph-name="uni0435" unicode="&#x435;" horiz-adv-x="670" 
d="M232.5 144.5q43.5 -35.5 109.5 -35.5q106 0 168 82l85 -58q-39 -74 -106 -111t-147 -37q-79 0 -146 39.5t-106.5 107t-39.5 147.5t39.5 147t106.5 106.5t146 39.5q84 0 148 -42t98 -117.5t31 -172.5h-441q11 -60 54.5 -95.5zM236.5 414.5q-43.5 -35.5 -57.5 -90.5h320
q-12 59 -55.5 92.5t-101.5 33.5q-62 0 -105.5 -35.5z" />
    <glyph glyph-name="uni0451" unicode="&#x451;" horiz-adv-x="670" 
d="M207 637.5q-21 20.5 -21 50.5t21 51t52 21q29 0 49.5 -21t20.5 -51q0 -29 -20.5 -50t-49.5 -21q-31 0 -52 20.5zM378 638q-21 21 -21 50q0 30 21 51t52 21q29 0 49.5 -21t20.5 -51q0 -29 -20.5 -50t-49.5 -21q-31 0 -52 21zM232.5 144.5q43.5 -35.5 109.5 -35.5
q106 0 168 82l85 -58q-39 -74 -106 -111t-147 -37q-79 0 -146 39.5t-106.5 107t-39.5 147.5t39.5 147t106.5 106.5t146 39.5q84 0 148 -42t98 -117.5t31 -172.5h-441q11 -60 54.5 -95.5zM236.5 414.5q-43.5 -35.5 -57.5 -90.5h320q-12 59 -55.5 92.5t-101.5 33.5
q-62 0 -105.5 -35.5z" />
    <glyph glyph-name="uni0436" unicode="&#x436;" horiz-adv-x="934" 
d="M884 566l-190 -283l190 -283h-134l-150 223h-75v-223h-117v223h-75l-150 -223h-133l190 283l-190 283h133l149 -222h76v222h117v-222h76l149 222h134z" />
    <glyph glyph-name="uni0437" unicode="&#x437;" horiz-adv-x="584" 
d="M489 248.5q41 -35.5 41 -97.5q0 -72 -58.5 -113.5t-182.5 -41.5q-91 0 -143 21t-74 62.5t-22 107.5h134q0 -39 22.5 -53.5t82.5 -14.5q58 0 82.5 17t24.5 48q0 27 -24 40t-83 13h-83v110h83q54 0 76.5 11t22.5 42q0 29 -23 41t-76 12q-47 0 -71.5 -5.5t-34.5 -19.5
t-10 -40h-115q0 90 51 136t180 46q110 0 162 -37.5t52 -95.5q0 -53 -34.5 -87.5t-87.5 -41.5v-17q67 -7 108 -42.5z" />
    <glyph glyph-name="uni0438" unicode="&#x438;" horiz-adv-x="664" 
d="M614 566v-567h-119v412l-315 -412h-130l1 1v566h117v-412l314 412h132z" />
    <glyph glyph-name="uni0439" unicode="&#x439;" horiz-adv-x="669" 
d="M203 606q-61 24 -99.5 73t-38.5 121h125q-1 -57 35.5 -81t107.5 -24q66 0 101 24.5t35 80.5h125q0 -72 -38 -121t-97.5 -73t-125.5 -24q-69 0 -130 24zM617 566v-567h-119v412l-315 -412h-131l1 1v566h118v-411l314 411h132z" />
    <glyph glyph-name="uni043A" unicode="&#x43a;" horiz-adv-x="663" 
d="M613 566l-190 -283l190 -283h-133l-150 223h-163v-223h-117v566h117v-222h164l149 222h133z" />
    <glyph glyph-name="uni043B" unicode="&#x43b;" horiz-adv-x="664" 
d="M614 0h-119v445h-214v-120q0 -131 -19 -199t-68 -97t-144 -29v121q55 0 76.5 11t29.5 52t8 141v241h450v-566z" />
    <glyph glyph-name="uni043C" unicode="&#x43c;" horiz-adv-x="727" 
d="M677 566v-567h-119v339l-28 -58l-104 -281h-125l-105 281l-27 56v-337h-119v567h140l174 -417l173 417h140z" />
    <glyph glyph-name="uni043D" unicode="&#x43d;" horiz-adv-x="664" 
d="M495 566h119v-566h-119v223h-327v-223h-118v566h118v-222h327v222z" />
    <glyph glyph-name="uni043E" unicode="&#x43e;" horiz-adv-x="667" 
d="M190 25q-65 40 -102.5 109t-37.5 151q0 81 37.5 149t102.5 108t144 40t144 -40t102 -108t37 -149q0 -82 -37 -151t-102 -109t-144 -40t-144 40zM449 158.5q43 49.5 43 125.5t-43 125t-115 49q-71 0 -115 -49.5t-44 -124.5q0 -76 44 -125.5t115 -49.5q72 0 115 49.5z" />
    <glyph glyph-name="uni043F" unicode="&#x43f;" horiz-adv-x="664" 
d="M614 566v-566h-119v445h-327v-445h-118v566h564z" />
    <glyph glyph-name="uni0440" unicode="&#x440;" horiz-adv-x="703" 
d="M530.5 532q56.5 -40 89.5 -109.5t33 -155.5q0 -75 -33 -140t-90 -103.5t-126 -38.5q-88 0 -145 49t-74 152h-17l10 -386h-128v766h128l-10 -185h20q20 93 76.5 142t139.5 49q70 0 126.5 -40zM446 133q38 21 59.5 57.5t21.5 82.5q0 73 -47 119.5t-120 46.5q-46 0 -84 -21
t-60.5 -57t-22.5 -79q0 -44 22 -83.5t60.5 -63t84.5 -23.5q48 0 86 21z" />
    <glyph glyph-name="uni0441" unicode="&#x441;" horiz-adv-x="658" 
d="M331 -15q-79 0 -143.5 39.5t-101 107t-36.5 147.5t36.5 147.5t101 106.5t143.5 39q98 0 168 -41t109 -118l-99 -68q-38 56 -76.5 77.5t-91.5 21.5q-72 0 -117.5 -46t-45.5 -119q0 -77 45 -121.5t118 -44.5q99 0 159 88l101 -68q-79 -148 -270 -148z" />
    <glyph glyph-name="uni0442" unicode="&#x442;" horiz-adv-x="664" 
d="M614 566v-121h-223v-445h-117v445h-224v121h564z" />
    <glyph glyph-name="uni0443" unicode="&#x443;" horiz-adv-x="658" 
d="M608 566l-121 -507q-23 -99 -68 -155.5t-118 -80t-186 -23.5v119q94 0 132 3.5t59 20t35 57.5h-144l-147 566h129l127 -488h56l117 488h129z" />
    <glyph glyph-name="uni0444" unicode="&#x444;" horiz-adv-x="790" 
d="M707 145.5q-33 -63.5 -97.5 -105t-154.5 -52.5v-188h-119v188q-91 11 -155.5 52.5t-97.5 105t-33 139.5q0 75 33 138t97.5 104t155.5 52v189h119v-189q90 -11 154.5 -52t97.5 -104t33 -138q0 -76 -33 -139.5zM214.5 170.5q39.5 -45.5 121.5 -57.5v341q-82 -12 -121.5 -57
t-39.5 -113t39.5 -113.5zM576 170.5q39 45.5 39 113.5t-39 113t-121 57v-341q82 12 121 57.5z" />
    <glyph glyph-name="uni0445" unicode="&#x445;" horiz-adv-x="704" 
d="M654 0h-146l-157 202l-157 -202h-144l219 283v25l-200 258h147l136 -176l136 176h145l-199 -257v-25z" />
    <glyph glyph-name="uni0447" unicode="&#x447;" horiz-adv-x="636" 
d="M97 255.5q-47 48.5 -47 153.5v157h125v-144q0 -53 19.5 -72.5t72.5 -19.5h194v236h125v-566h-125v207h-209q-108 0 -155 48.5z" />
    <glyph glyph-name="uni0446" unicode="&#x446;" horiz-adv-x="758" 
d="M708 123v-323l-123 1v199h-535v566h125v-443h266v443h125v-443h142z" />
    <glyph glyph-name="uni0448" unicode="&#x448;" horiz-adv-x="789" 
d="M614 566h125v-566h-689v566h125v-443h154v443h125v-443h160v443z" />
    <glyph glyph-name="uni0449" unicode="&#x449;" horiz-adv-x="931" 
d="M881 123v-323l-123 1v199h-708v566h125v-443h154v443h125v-443h160v443h125v-443h142z" />
    <glyph glyph-name="uni044C" unicode="&#x44c;" horiz-adv-x="646" 
d="M523.5 310q72.5 -41 72.5 -133q0 -177 -271 -177h-275v566h122v-215h153q126 0 198.5 -41zM439.5 131q31.5 15 31.5 46q0 21 -12.5 33t-44 18t-89.5 6h-153v-118h153q83 0 114.5 15z" />
    <glyph glyph-name="uni044A" unicode="&#x44a;" horiz-adv-x="794" 
d="M671.5 310q72.5 -41 72.5 -133q0 -177 -271 -177h-275v443h-148v123h270v-215h153q126 0 198.5 -41zM587.5 131q31.5 15 31.5 46q0 21 -12.5 33t-44 18t-89.5 6h-153v-118h153q83 0 114.5 15z" />
    <glyph glyph-name="uni044B" unicode="&#x44b;" horiz-adv-x="853" 
d="M523.5 310q72.5 -41 72.5 -133q0 -177 -271 -177h-275v566h122v-215h153q126 0 198.5 -41zM678 566h125v-566h-125v566zM439.5 131q31.5 15 31.5 46q0 21 -12.5 33t-44 18t-89.5 6h-153v-118h153q83 0 114.5 15z" />
    <glyph glyph-name="uni0454" unicode="&#x454;" horiz-adv-x="658" 
d="M500 201l101 -68q-79 -148 -270 -148q-79 0 -143.5 39.5t-101 107t-36.5 147.5t36.5 147.5t101 106.5t143.5 39q98 0 168 -41t109 -118l-99 -68q-38 56 -76.5 77.5t-91.5 21.5q-57 0 -98.5 -29.5t-56.5 -80.5h258v-111h-259q15 -52 56.5 -81t99.5 -29q99 0 159 88z" />
    <glyph glyph-name="uni044D" unicode="&#x44d;" horiz-adv-x="658" 
d="M470.5 533q64.5 -39 101 -106.5t36.5 -147.5t-36.5 -147.5t-101 -107t-143.5 -39.5q-191 0 -269 148l100 68q60 -88 159 -88q58 0 99.5 29t56.5 81h-259v111h258q-15 51 -56.5 80.5t-98.5 29.5q-53 0 -91.5 -21.5t-76.5 -77.5l-99 68q39 77 109.5 118t167.5 41
q79 0 143.5 -39z" />
    <glyph glyph-name="uni0456" unicode="&#x456;" horiz-adv-x="243" 
d="M71 637.5q-21 20.5 -21 50.5t21 51t52 21q29 0 49.5 -21t20.5 -51t-20.5 -50.5t-49.5 -20.5q-31 0 -52 20.5zM60 566h125v-566h-125v566z" />
    <glyph glyph-name="uni0457" unicode="&#x457;" horiz-adv-x="375" 
d="M47 637.5q-21 20.5 -21 50.5t21 51t52 21q29 0 49.5 -21t20.5 -51t-20.5 -50.5t-49.5 -20.5q-31 0 -52 20.5zM227 637.5q-21 20.5 -21 50.5t21 51t52 21q29 0 49.5 -21t20.5 -51t-20.5 -50.5t-49.5 -20.5q-31 0 -52 20.5zM125 566h125v-566h-125v566z" />
    <glyph glyph-name="uni044E" unicode="&#x44e;" horiz-adv-x="871" 
d="M682 542q65 -40 102 -108t37 -149q0 -82 -37 -151t-102 -109t-144 -40q-69 0 -128 31t-98 85t-52 122h-92v-223h-118v566h118v-222h91q13 67 52.5 121.5t98 85.5t128.5 31q79 0 144 -40zM653 158.5q43 49.5 43 125.5t-43 125t-115 49q-71 0 -115 -49.5t-44 -124.5
q0 -76 44 -125.5t115 -49.5q72 0 115 49.5z" />
    <glyph glyph-name="uni044F" unicode="&#x44f;" horiz-adv-x="646" 
d="M596 566v-566h-122v215h-120l-173 -215h-131l178 221q-178 29 -178 168q0 177 271 177h275zM474 450h-153q-83 0 -115 -15t-32 -46q0 -21 12.5 -33t44.5 -18t90 -6h153v118z" />
    <glyph glyph-name="zero" unicode="0" horiz-adv-x="816" 
d="M237.5 38q-81.5 48 -134.5 141.5t-53 221.5q0 127 53 220t134.5 141t165.5 48t168 -48.5t139.5 -141t55.5 -219.5t-55.5 -220.5t-139.5 -142t-168 -48.5t-165.5 48zM522 155.5q53 34.5 83.5 98t30.5 147.5q0 83 -30.5 146t-84 97.5t-118.5 34.5q-66 0 -117 -34.5
t-78.5 -97t-27.5 -146.5q0 -85 27.5 -148t78 -97.5t117.5 -34.5q66 0 119 34.5z" />
    <glyph glyph-name="one" unicode="1" horiz-adv-x="503" 
d="M323 800h130v-800h-130v617l-193 -188l-80 98z" />
    <glyph glyph-name="two" unicode="2" horiz-adv-x="662" 
d="M141.5 743q71.5 67 195.5 67q142 0 196.5 -71.5t54.5 -197.5q0 -66 -35.5 -128t-115 -130.5t-216.5 -155.5h391v-127h-562v127q167 114 252.5 183t122 122t36.5 109q0 68 -29 104.5t-95 36.5q-71 0 -108 -37t-48 -127h-127q16 158 87.5 225z" />
    <glyph glyph-name="three" unicode="3" horiz-adv-x="675" 
d="M213.5 162q40.5 -35 111.5 -35q75 0 124 42.5t49 122.5q0 61 -40 90.5t-105 29.5q-64 0 -130 -26l-52 130l252 169h-341v115h526v-115l-317 -192q51 8 90 8q115 0 179.5 -54.5t64.5 -154.5q0 -139 -79 -215.5t-221 -76.5q-100 0 -170 54t-105 160l92 61q31 -78 71.5 -113
z" />
    <glyph glyph-name="four" unicode="4" horiz-adv-x="786" 
d="M736 283v-126h-108v-157h-130v157h-448v126l438 517h140v-517h108zM200 283h298v360z" />
    <glyph glyph-name="five" unicode="5" horiz-adv-x="703" 
d="M535 524q56 -34 87 -95t31 -139q0 -144 -76 -222t-232 -78q-88 0 -145 25t-90 67.5t-60 107.5l92 60q27 -70 71 -101.5t132 -31.5q92 0 136.5 45.5t44.5 127.5q0 72 -40 108.5t-111 36.5q-54 0 -101.5 -20t-109.5 -65l-88 21l30 429h510v-127h-403l-18 -188
q65 41 107.5 57t102.5 16q74 0 130 -34z" />
    <glyph glyph-name="six" unicode="6" horiz-adv-x="703" 
d="M92 625q43 97 113.5 141t152.5 44q102 0 174 -43t117 -132l-98 -66q-33 59 -76.5 86.5t-116.5 27.5q-80 0 -133 -61.5t-55 -188.5q31 67 85.5 96t122.5 29q75 0 136.5 -33.5t97.5 -96t36 -144.5q0 -90 -36.5 -156.5t-102 -102t-149.5 -35.5q-142 0 -225 88t-85 301
q-1 149 42 246zM353 117q168 0 168 167q0 79 -44.5 117t-123.5 38q-77 0 -126 -40t-49 -115q0 -167 175 -167z" />
    <glyph glyph-name="seven" unicode="7" horiz-adv-x="667" 
d="M617 800l-270 -800h-139l227 673h-385v127h567z" />
    <glyph glyph-name="eight" unicode="8" horiz-adv-x="746" 
d="M99 364.5q49 55.5 142 86.5q-62 18 -96.5 63t-34.5 109q0 53 31.5 95.5t91 67t141.5 24.5q81 0 140.5 -24.5t90.5 -67t31 -95.5q0 -71 -33 -112t-97 -60q92 -31 141 -86.5t49 -130.5q0 -70 -38 -125.5t-110.5 -87t-173.5 -31.5t-174.5 31.5t-111.5 87t-38 125.5
q0 75 49 130.5zM265 537.5q35 -23.5 109 -23.5q142 0 142 96q0 98 -142 98q-74 0 -109 -24t-35 -74q0 -49 35 -72.5zM228 148.5q52 -32.5 146 -32.5q93 0 144.5 32.5t51.5 100.5q0 67 -54.5 103.5t-141.5 36.5t-142.5 -36.5t-55.5 -103.5q0 -68 52 -100.5z" />
    <glyph glyph-name="nine" unicode="9" horiz-adv-x="691" 
d="M599 175q-43 -97 -113.5 -141t-152.5 -44q-203 0 -291 175l98 66q34 -59 77 -86.5t116 -27.5q80 0 133 61.5t55 188.5q-30 -67 -85 -96t-122 -29q-75 0 -137 33.5t-98 96t-36 144.5q0 90 37 156.5t102.5 102t149.5 35.5q142 0 224.5 -88t84.5 -301q1 -149 -42 -246z
M338 683q-168 0 -168 -167q0 -79 45 -117t123 -38q77 0 126 40t49 115q0 167 -175 167z" />
    <glyph glyph-name="zero.ss01" horiz-adv-x="828" 
d="M573 761.5q83 -48.5 138 -141.5t55 -219q0 -127 -55 -220.5t-138 -142t-164 -48.5q-87 0 -170 48t-136 141.5t-53 221.5q0 127 53 220t136 141t170 48q81 0 164 -48.5zM288 645q-52 -34 -80.5 -97t-28.5 -147q0 -91 32 -157l328 389q-57 46 -130 46q-69 0 -121 -34z
M523.5 155q52.5 35 83 99t30.5 147q0 76 -27 138l-321 -385q53 -34 120 -34q62 0 114.5 35z" />
    <glyph glyph-name="one.ss01" horiz-adv-x="503" 
d="M323 800h130v-800h-130v587l60 59h-29l-224 -217l-80 98z" />
    <glyph glyph-name="two.ss01" horiz-adv-x="662" 
d="M141 743.5q71 66.5 194 66.5q98 0 152.5 -34.5t74.5 -92.5t20 -139q0 -70 -35 -131.5t-123 -136.5t-251 -181v-29l97 61h342v-127h-562v127l83 57q130 89 200 152.5t96 111t26 96.5q0 66 -26 102t-94 36q-69 0 -107 -38t-47 -126h-127q16 159 87 225.5z" />
    <glyph glyph-name="three.ss01" horiz-adv-x="675" 
d="M211.5 163q39.5 -36 107.5 -36q87 0 133 44.5t46 122.5q0 63 -45 92.5t-116 29.5q-56 0 -120 -18l-46 118l252 169h-341v115h526v-115l-277 -170h-65v-26q61 11 110 11q115 0 182 -53t67 -153q0 -141 -80 -217.5t-226 -76.5q-98 0 -166 55t-103 159l92 61
q30 -76 69.5 -112z" />
    <glyph glyph-name="four.ss01" horiz-adv-x="790" 
d="M50 283l438 517h140v-517h108v-126h-108v-157h-130v157h-448v126zM498 283l-1 320l36 48h-30l-303 -368h298z" />
    <glyph glyph-name="five.ss01" horiz-adv-x="691" 
d="M528.5 523q53.5 -35 83 -97t29.5 -140q0 -144 -78 -220t-224 -76q-113 0 -179.5 51.5t-104.5 148.5l92 60q27 -71 72.5 -103t119.5 -32q88 0 132 45t44 126q0 78 -40.5 114.5t-104.5 36.5q-44 0 -79.5 -12t-64.5 -31.5t-75 -55.5l-88 21l31 441h509v-125h-403l-14 -154
l-45 -41l18 -18q62 51 117.5 73.5t128.5 22.5q70 0 123.5 -35z" />
    <glyph glyph-name="six.ss01" horiz-adv-x="690" 
d="M90.5 620q41.5 97 109.5 143.5t146 46.5q103 0 182.5 -44.5t119.5 -130.5l-98 -66q-35 58 -83.5 87t-120.5 29q-71 0 -123 -44.5t-59 -140.5l-46 -62l18 -18q38 48 62 73.5t66 45t104 19.5q81 0 144 -33t98.5 -94.5t35.5 -144.5q0 -92 -37.5 -159t-101 -102t-139.5 -35
q-153 0 -234.5 91.5t-83.5 297.5q-1 144 40.5 241zM222 159q46 -44 127 -44q172 0 172 169q0 80 -46 117.5t-126 37.5q-74 0 -123.5 -38.5t-49.5 -116.5q0 -81 46 -125z" />
    <glyph glyph-name="seven.ss01" horiz-adv-x="667" 
d="M50 800h567l-270 -800h-139l220 646l76 54l-16 22l-77 -49h-361v127z" />
    <glyph glyph-name="eight.ss01" horiz-adv-x="742" 
d="M180 756q-64 -54 -64 -139q0 -41 23 -75t59.5 -54t74.5 -20h4v-33h-4q-61 0 -112 -27.5t-81 -73.5t-30 -100q0 -72 37.5 -127.5t110 -86t173.5 -30.5q102 0 175 30.5t111 86t38 127.5q0 54 -30.5 100t-82.5 73.5t-113 27.5h-4v33h4q38 0 75.5 20t62 54t24.5 75
q0 55 -29 98.5t-87 69t-144 25.5q-127 0 -191 -54zM264.5 540q-34.5 26 -34.5 71q0 46 33.5 72t107.5 26t109.5 -26.5t35.5 -71.5t-36.5 -71t-108.5 -26t-106.5 26zM227.5 150q-51.5 36 -51.5 96q0 41 24.5 73.5t68.5 50.5t102 18t103.5 -18t71 -50.5t25.5 -73.5
q0 -59 -53.5 -95.5t-146.5 -36.5q-92 0 -143.5 36z" />
    <glyph glyph-name="nine.ss01" horiz-adv-x="683" 
d="M599.5 178q-42.5 -97 -111 -142.5t-144.5 -45.5q-101 0 -182 46t-120 129l98 66q38 -62 82.5 -88t121.5 -26q71 0 122 46t62 137l46 62l-18 18q-39 -49 -63 -74t-66 -44.5t-102 -19.5q-76 0 -140.5 35.5t-102.5 97.5t-38 139q0 89 38 156.5t102 103.5t141 36
q153 0 233.5 -90t82.5 -299q1 -146 -41.5 -243zM472 638q-42 45 -129 45q-81 0 -127 -41t-46 -128q0 -74 49.5 -113.5t123.5 -39.5q77 0 124 41.5t47 111.5q0 79 -42 124z" />
    <glyph glyph-name="uni2080" unicode="&#x2080;" horiz-adv-x="816" 
d="M237.5 38q-81.5 48 -134.5 141.5t-53 221.5q0 127 53 220t134.5 141t165.5 48t168 -48.5t139.5 -141t55.5 -219.5t-55.5 -220.5t-139.5 -142t-168 -48.5t-165.5 48zM522 155.5q53 34.5 83.5 98t30.5 147.5q0 83 -30.5 146t-84 97.5t-118.5 34.5q-66 0 -117 -34.5
t-78.5 -97t-27.5 -146.5q0 -85 27.5 -148t78 -97.5t117.5 -34.5q66 0 119 34.5z" />
    <glyph glyph-name="uni2081" unicode="&#x2081;" horiz-adv-x="503" 
d="M323 800h130v-800h-130v617l-193 -188l-80 98z" />
    <glyph glyph-name="uni2082" unicode="&#x2082;" horiz-adv-x="662" 
d="M141.5 743q71.5 67 195.5 67q142 0 196.5 -71.5t54.5 -197.5q0 -66 -35.5 -128t-115 -130.5t-216.5 -155.5h391v-127h-562v127q167 114 252.5 183t122 122t36.5 109q0 68 -29 104.5t-95 36.5q-71 0 -108 -37t-48 -127h-127q16 158 87.5 225z" />
    <glyph glyph-name="uni2083" unicode="&#x2083;" horiz-adv-x="675" 
d="M213.5 162q40.5 -35 111.5 -35q75 0 124 42.5t49 122.5q0 61 -40 90.5t-105 29.5q-64 0 -130 -26l-52 130l252 169h-341v115h526v-115l-317 -192q51 8 90 8q115 0 179.5 -54.5t64.5 -154.5q0 -139 -79 -215.5t-221 -76.5q-100 0 -170 54t-105 160l92 61q31 -78 71.5 -113
z" />
    <glyph glyph-name="uni2084" unicode="&#x2084;" horiz-adv-x="786" 
d="M736 283v-126h-108v-157h-130v157h-448v126l438 517h140v-517h108zM200 283h298v360z" />
    <glyph glyph-name="uni2085" unicode="&#x2085;" horiz-adv-x="703" 
d="M535 524q56 -34 87 -95t31 -139q0 -144 -76 -222t-232 -78q-88 0 -145 25t-90 67.5t-60 107.5l92 60q27 -70 71 -101.5t132 -31.5q92 0 136.5 45.5t44.5 127.5q0 72 -40 108.5t-111 36.5q-54 0 -101.5 -20t-109.5 -65l-88 21l30 429h510v-127h-403l-18 -188
q65 41 107.5 57t102.5 16q74 0 130 -34z" />
    <glyph glyph-name="uni2086" unicode="&#x2086;" horiz-adv-x="703" 
d="M92 625q43 97 113.5 141t152.5 44q102 0 174 -43t117 -132l-98 -66q-33 59 -76.5 86.5t-116.5 27.5q-80 0 -133 -61.5t-55 -188.5q31 67 85.5 96t122.5 29q75 0 136.5 -33.5t97.5 -96t36 -144.5q0 -90 -36.5 -156.5t-102 -102t-149.5 -35.5q-142 0 -225 88t-85 301
q-1 149 42 246zM353 117q168 0 168 167q0 79 -44.5 117t-123.5 38q-77 0 -126 -40t-49 -115q0 -167 175 -167z" />
    <glyph glyph-name="uni2087" unicode="&#x2087;" horiz-adv-x="667" 
d="M617 800l-270 -800h-139l227 673h-385v127h567z" />
    <glyph glyph-name="uni2088" unicode="&#x2088;" horiz-adv-x="746" 
d="M99 364.5q49 55.5 142 86.5q-62 18 -96.5 63t-34.5 109q0 53 31.5 95.5t91 67t141.5 24.5q81 0 140.5 -24.5t90.5 -67t31 -95.5q0 -71 -33 -112t-97 -60q92 -31 141 -86.5t49 -130.5q0 -70 -38 -125.5t-110.5 -87t-173.5 -31.5t-174.5 31.5t-111.5 87t-38 125.5
q0 75 49 130.5zM265 537.5q35 -23.5 109 -23.5q142 0 142 96q0 98 -142 98q-74 0 -109 -24t-35 -74q0 -49 35 -72.5zM228 148.5q52 -32.5 146 -32.5q93 0 144.5 32.5t51.5 100.5q0 67 -54.5 103.5t-141.5 36.5t-142.5 -36.5t-55.5 -103.5q0 -68 52 -100.5z" />
    <glyph glyph-name="uni2089" unicode="&#x2089;" horiz-adv-x="691" 
d="M599 175q-43 -97 -113.5 -141t-152.5 -44q-203 0 -291 175l98 66q34 -59 77 -86.5t116 -27.5q80 0 133 61.5t55 188.5q-30 -67 -85 -96t-122 -29q-75 0 -137 33.5t-98 96t-36 144.5q0 90 37 156.5t102.5 102t149.5 35.5q142 0 224.5 -88t84.5 -301q1 -149 -42 -246z
M338 683q-168 0 -168 -167q0 -79 45 -117t123 -38q77 0 126 40t49 115q0 167 -175 167z" />
    <glyph glyph-name="uni2070" unicode="&#x2070;" horiz-adv-x="816" 
d="M237.5 38q-81.5 48 -134.5 141.5t-53 221.5q0 127 53 220t134.5 141t165.5 48t168 -48.5t139.5 -141t55.5 -219.5t-55.5 -220.5t-139.5 -142t-168 -48.5t-165.5 48zM522 155.5q53 34.5 83.5 98t30.5 147.5q0 83 -30.5 146t-84 97.5t-118.5 34.5q-66 0 -117 -34.5
t-78.5 -97t-27.5 -146.5q0 -85 27.5 -148t78 -97.5t117.5 -34.5q66 0 119 34.5z" />
    <glyph glyph-name="uni00B9" unicode="&#xb9;" horiz-adv-x="503" 
d="M323 800h130v-800h-130v617l-193 -188l-80 98z" />
    <glyph glyph-name="uni00B2" unicode="&#xb2;" horiz-adv-x="662" 
d="M141.5 743q71.5 67 195.5 67q142 0 196.5 -71.5t54.5 -197.5q0 -66 -35.5 -128t-115 -130.5t-216.5 -155.5h391v-127h-562v127q167 114 252.5 183t122 122t36.5 109q0 68 -29 104.5t-95 36.5q-71 0 -108 -37t-48 -127h-127q16 158 87.5 225z" />
    <glyph glyph-name="uni00B3" unicode="&#xb3;" horiz-adv-x="675" 
d="M213.5 162q40.5 -35 111.5 -35q75 0 124 42.5t49 122.5q0 61 -40 90.5t-105 29.5q-64 0 -130 -26l-52 130l252 169h-341v115h526v-115l-317 -192q51 8 90 8q115 0 179.5 -54.5t64.5 -154.5q0 -139 -79 -215.5t-221 -76.5q-100 0 -170 54t-105 160l92 61q31 -78 71.5 -113
z" />
    <glyph glyph-name="uni2074" unicode="&#x2074;" horiz-adv-x="786" 
d="M736 283v-126h-108v-157h-130v157h-448v126l438 517h140v-517h108zM200 283h298v360z" />
    <glyph glyph-name="uni2075" unicode="&#x2075;" horiz-adv-x="703" 
d="M535 524q56 -34 87 -95t31 -139q0 -144 -76 -222t-232 -78q-88 0 -145 25t-90 67.5t-60 107.5l92 60q27 -70 71 -101.5t132 -31.5q92 0 136.5 45.5t44.5 127.5q0 72 -40 108.5t-111 36.5q-54 0 -101.5 -20t-109.5 -65l-88 21l30 429h510v-127h-403l-18 -188
q65 41 107.5 57t102.5 16q74 0 130 -34z" />
    <glyph glyph-name="uni2076" unicode="&#x2076;" horiz-adv-x="703" 
d="M92 625q43 97 113.5 141t152.5 44q102 0 174 -43t117 -132l-98 -66q-33 59 -76.5 86.5t-116.5 27.5q-80 0 -133 -61.5t-55 -188.5q31 67 85.5 96t122.5 29q75 0 136.5 -33.5t97.5 -96t36 -144.5q0 -90 -36.5 -156.5t-102 -102t-149.5 -35.5q-142 0 -225 88t-85 301
q-1 149 42 246zM353 117q168 0 168 167q0 79 -44.5 117t-123.5 38q-77 0 -126 -40t-49 -115q0 -167 175 -167z" />
    <glyph glyph-name="uni2077" unicode="&#x2077;" horiz-adv-x="667" 
d="M617 800l-270 -800h-139l227 673h-385v127h567z" />
    <glyph glyph-name="uni2078" unicode="&#x2078;" horiz-adv-x="746" 
d="M99 364.5q49 55.5 142 86.5q-62 18 -96.5 63t-34.5 109q0 53 31.5 95.5t91 67t141.5 24.5q81 0 140.5 -24.5t90.5 -67t31 -95.5q0 -71 -33 -112t-97 -60q92 -31 141 -86.5t49 -130.5q0 -70 -38 -125.5t-110.5 -87t-173.5 -31.5t-174.5 31.5t-111.5 87t-38 125.5
q0 75 49 130.5zM265 537.5q35 -23.5 109 -23.5q142 0 142 96q0 98 -142 98q-74 0 -109 -24t-35 -74q0 -49 35 -72.5zM228 148.5q52 -32.5 146 -32.5q93 0 144.5 32.5t51.5 100.5q0 67 -54.5 103.5t-141.5 36.5t-142.5 -36.5t-55.5 -103.5q0 -68 52 -100.5z" />
    <glyph glyph-name="uni2079" unicode="&#x2079;" horiz-adv-x="691" 
d="M599 175q-43 -97 -113.5 -141t-152.5 -44q-203 0 -291 175l98 66q34 -59 77 -86.5t116 -27.5q80 0 133 61.5t55 188.5q-30 -67 -85 -96t-122 -29q-75 0 -137 33.5t-98 96t-36 144.5q0 90 37 156.5t102.5 102t149.5 35.5q142 0 224.5 -88t84.5 -301q1 -149 -42 -246z
M338 683q-168 0 -168 -167q0 -79 45 -117t123 -38q77 0 126 40t49 115q0 167 -175 167z" />
    <glyph glyph-name="fraction" unicode="&#x2044;" horiz-adv-x="600" 
 />
    <glyph glyph-name="period" unicode="." horiz-adv-x="260" 
d="M73.5 23.5q-23.5 23.5 -23.5 57.5q0 33 23.5 56t57.5 23q33 0 56 -23t23 -56q0 -34 -23 -57.5t-56 -23.5q-34 0 -57.5 23.5z" />
    <glyph glyph-name="comma" unicode="," horiz-adv-x="256" 
d="M206 160l-50 -290h-106l30 290h126z" />
    <glyph glyph-name="colon" unicode=":" horiz-adv-x="265" 
d="M73.5 393.5q-23.5 23.5 -23.5 57.5q0 33 23.5 56t57.5 23q33 0 56 -23t23 -56q0 -34 -23 -57.5t-56 -23.5q-34 0 -57.5 23.5zM73.5 23.5q-23.5 23.5 -23.5 57.5q0 33 23.5 56t57.5 23q33 0 56 -23t23 -56q0 -34 -23 -57.5t-56 -23.5q-34 0 -57.5 23.5z" />
    <glyph glyph-name="semicolon" unicode=";" horiz-adv-x="265" 
d="M73.5 393.5q-23.5 23.5 -23.5 57.5q0 33 23.5 56t57.5 23q33 0 56 -23t23 -56q0 -34 -23 -57.5t-56 -23.5q-34 0 -57.5 23.5zM206 160l-50 -290h-106l30 290h126z" />
    <glyph glyph-name="ellipsis" unicode="&#x2026;" horiz-adv-x="689" 
d="M497.5 23.5q-23.5 23.5 -23.5 57.5q0 33 23.5 56t57.5 23q33 0 56 -23t23 -56q0 -34 -23 -57.5t-56 -23.5q-34 0 -57.5 23.5zM73.5 23.5q-23.5 23.5 -23.5 57.5q0 33 23.5 56t57.5 23q33 0 56 -23t23 -56q0 -34 -23 -57.5t-56 -23.5q-34 0 -57.5 23.5zM285.5 23.5
q-23.5 23.5 -23.5 57.5q0 33 23.5 56t57.5 23q33 0 56 -23t23 -56q0 -34 -23 -57.5t-56 -23.5q-34 0 -57.5 23.5z" />
    <glyph glyph-name="exclam" unicode="!" horiz-adv-x="260" 
d="M180 800v-566h-98v566h98zM73.5 23.5q-23.5 23.5 -23.5 57.5q0 33 23.5 56t57.5 23q33 0 56 -23t23 -56q0 -34 -23 -57.5t-56 -23.5q-34 0 -57.5 23.5z" />
    <glyph glyph-name="exclamdown" unicode="&#xa1;" horiz-adv-x="260" 
d="M187 776.5q23 -23.5 23 -57.5q0 -33 -23 -56t-56 -23q-34 0 -57.5 23t-23.5 56q0 34 23.5 57.5t57.5 23.5q33 0 56 -23.5zM82 0v566h98v-566h-98z" />
    <glyph glyph-name="question" unicode="?" horiz-adv-x="585" 
d="M113.5 725q63.5 75 187.5 75q70 0 124.5 -26t84.5 -69t30 -93q0 -65 -26.5 -108.5t-95.5 -97.5q-52 -40 -77.5 -77.5t-26.5 -96.5h-109q1 71 25.5 122.5t92.5 102.5q55 42 75 68.5t20 64.5t-29 62.5t-88 24.5q-66 0 -100.5 -41t-34.5 -136h-116q0 150 63.5 225z
M199.5 23.5q-23.5 23.5 -23.5 57.5q0 33 23.5 56t57.5 23q33 0 56 -23t23 -56q0 -34 -23 -57.5t-56 -23.5q-34 0 -57.5 23.5z" />
    <glyph glyph-name="questiondown" unicode="&#xbf;" horiz-adv-x="585" 
d="M385.5 676.5q23.5 -23.5 23.5 -57.5q0 -33 -23.5 -56t-57.5 -23q-32 0 -55.5 23t-23.5 56q0 34 23.5 57.5t55.5 23.5q34 0 57.5 -23.5zM471.5 -25q-63.5 -75 -187.5 -75q-70 0 -124.5 26t-84.5 69t-30 93q0 65 26.5 108.5t95.5 97.5q52 40 77.5 77.5t26.5 96.5h109
q-1 -71 -25.5 -122.5t-92.5 -102.5q-54 -41 -74 -68t-20 -65t28.5 -62.5t87.5 -24.5q66 0 100.5 41t34.5 136h116q0 -150 -63.5 -225z" />
    <glyph glyph-name="periodcentered" unicode="&#xb7;" horiz-adv-x="265" 
d="M73.5 220.5q-23.5 23.5 -23.5 58.5t23.5 58.5t58.5 23.5t59 -23.5t24 -58.5t-24 -58.5t-59 -23.5t-58.5 23.5z" />
    <glyph glyph-name="bullet" unicode="&#x2022;" horiz-adv-x="381" 
d="M90 178q-40 40 -40 101t40 101t101 40q60 0 100 -40t40 -101q0 -60 -40 -100.5t-100 -40.5q-61 0 -101 40z" />
    <glyph glyph-name="asterisk" unicode="*" horiz-adv-x="486" 
d="M50 552h106l-78 68l57 57l68 -78v121h80v-122l79 89l56 -56l-89 -79h107v-80h-106l78 -68l-57 -57l-68 78v-121h-80v122l-79 -89l-56 56l89 79h-107v80z" />
    <glyph glyph-name="numbersign" unicode="#" horiz-adv-x="750" 
d="M696 434h-122l-22 -159h104v-115h-120l-22 -160h-121l22 160h-119l-22 -160h-121l22 160h-121v115h137l22 159h-119v115h134l21 151h121l-21 -151h119l21 151h121l-21 -151h107v-115zM431 275l22 159h-119l-22 -159h119z" />
    <glyph glyph-name="slash" unicode="/" horiz-adv-x="479" 
d="M429 700l-246 -790h-133l246 790h133z" />
    <glyph glyph-name="backslash" unicode="\" horiz-adv-x="479" 
d="M183 700l246 -790h-133l-246 790h133z" />
    <glyph glyph-name="parenleft" unicode="(" horiz-adv-x="349" 
d="M263 628q-80 -165 -80 -323t80 -323l36 -72h-133l-36 72q-80 165 -80 323t80 323l36 72h133z" />
    <glyph glyph-name="parenright" unicode=")" horiz-adv-x="349" 
d="M219 628q80 -161 80 -323t-80 -323l-36 -72h-133l36 72q80 161 80 323t-80 323l-36 72h133z" />
    <glyph glyph-name="braceleft" unicode="{" horiz-adv-x="430" 
d="M152.5 229q17.5 -5 24 -15.5t6.5 -31.5v-124q0 -70 13.5 -108.5t40.5 -53.5t71 -15h72v117h-18q-34 0 -47 12t-13 48v166q0 39 -7.5 56.5t-35.5 25t-91 7.5h-14v21h14q63 0 91 7.5t35.5 25t7.5 56.5v166q0 36 13 48t47 12h18v117h-72q-44 0 -71 -15t-40.5 -53.5
t-13.5 -108.5v-130q0 -21 -6.5 -31.5t-24 -15.5t-52.5 -5h-50v-173h50q35 0 52.5 -5z" />
    <glyph glyph-name="braceright" unicode="}" horiz-adv-x="430" 
d="M380 407h-50q-35 0 -52.5 5t-24 15.5t-6.5 31.5v130q0 70 -13.5 108.5t-40.5 53.5t-71 15h-72v-117h18q34 0 47 -12t13 -48v-166q0 -39 7.5 -56.5t35.5 -25t91 -7.5h14v-21h-14q-63 0 -91 -7.5t-35.5 -25t-7.5 -56.5v-166q0 -36 -13 -48t-47 -12h-18v-117h72q44 0 71 15
t40.5 53.5t13.5 108.5v124q0 21 6.5 31.5t24 15.5t52.5 5h50v173z" />
    <glyph glyph-name="bracketleft" unicode="[" horiz-adv-x="396" 
d="M346 577h-170v-544h170v-123h-296v790h296v-123z" />
    <glyph glyph-name="bracketright" unicode="]" horiz-adv-x="372" 
d="M322 700v-790h-296v123h170v544h-170v123h296z" />
    <glyph glyph-name="hyphen" unicode="-" horiz-adv-x="526" 
d="M476 250h-426v123h426v-123z" />
    <glyph glyph-name="endash" unicode="&#x2013;" 
d="M616 250h-566v122h566v-122z" />
    <glyph glyph-name="emdash" unicode="&#x2014;" horiz-adv-x="856" 
d="M806 250h-756v122h756v-122z" />
    <glyph glyph-name="underscore" unicode="_" horiz-adv-x="526" 
d="M476 0h-426v123h426v-123z" />
    <glyph glyph-name="quotesinglbase" unicode="&#x201a;" horiz-adv-x="256" 
d="M206 160l-50 -290h-106l30 290h126z" />
    <glyph glyph-name="quotedblbase" unicode="&#x201e;" horiz-adv-x="444" 
d="M394 160l-50 -290h-106l30 290h126zM206 160l-50 -290h-106l30 290h126z" />
    <glyph glyph-name="quotedblleft" unicode="&#x201c;" horiz-adv-x="444" 
d="M100 700h106l-30 -290h-126zM288 700h106l-30 -290h-126z" />
    <glyph glyph-name="quotedblright" unicode="&#x201d;" horiz-adv-x="444" 
d="M206 410h-126l-30 290h106zM394 410h-126l-30 290h106z" />
    <glyph glyph-name="quoteleft" unicode="&#x2018;" horiz-adv-x="256" 
d="M100 700h106l-30 -290h-126z" />
    <glyph glyph-name="quoteright" unicode="&#x2019;" horiz-adv-x="256" 
d="M206 700l-50 -290h-106l30 290h126z" />
    <glyph glyph-name="guillemotleft" unicode="&#xab;" horiz-adv-x="619" 
d="M351 510l-158 -204l158 -205h-143l-158 205l158 204h143zM573 510l-158 -204l158 -205h-143l-158 205l158 204h143z" />
    <glyph glyph-name="guillemotright" unicode="&#xbb;" horiz-adv-x="619" 
d="M189 510l158 -204l-158 -205h-143l158 205l-158 204h143zM411 510l158 -204l-158 -205h-143l158 205l-158 204h143z" />
    <glyph glyph-name="guilsinglleft" unicode="&#x2039;" horiz-adv-x="401" 
d="M351 510l-158 -204l158 -205h-143l-158 205l158 204h143z" />
    <glyph glyph-name="guilsinglright" unicode="&#x203a;" horiz-adv-x="397" 
d="M189 510l158 -204l-158 -205h-143l158 205l-158 204h143z" />
    <glyph glyph-name="quotedbl" unicode="&#x22;" horiz-adv-x="458" 
d="M390 700l-20 -260h-110l-20 260h150zM182 700l-20 -260h-110l-20 260h150z" />
    <glyph glyph-name="quotesingle" unicode="'" horiz-adv-x="214" 
d="M182 700l-20 -260h-110l-20 260h150z" />
    <glyph glyph-name="cent" unicode="&#xa2;" horiz-adv-x="658" 
d="M500 241l101 -68q-71 -131 -227 -146v-137h-83v138q-69 10 -124 51t-86 104t-31 137q0 73 31 136t86 104t124 50v130h83v-129q81 -8 140 -48.5t94 -109.5l-99 -68q-32 46 -63.5 69t-71.5 29v-327q77 12 126 85zM208.5 216q30.5 -42 82.5 -57v319q-52 -14 -82.5 -56.5
t-30.5 -101.5q0 -62 30.5 -104z" />
    <glyph glyph-name="currency" unicode="&#xa4;" horiz-adv-x="849" 
d="M666 196l133 -134l-75 -76l-133 134q-73 -48 -167 -48q-95 0 -167 47l-132 -133l-75 76l133 132q-47 72 -47 166t47 166l-133 132l75 76l133 -133q72 47 166 47q95 0 166 -48l134 134l75 -76l-133 -134q46 -73 46 -164t-46 -164zM507 218.5q38 21.5 59.5 58.5t21.5 83
t-21.5 83t-59.5 58.5t-83 21.5q-46 0 -83 -21.5t-58.5 -58.5t-21.5 -83t21.5 -83t58.5 -58.5t83 -21.5q45 0 83 21.5z" />
    <glyph glyph-name="dollar" unicode="$" horiz-adv-x="720" 
d="M608.5 370q62.5 -63 61.5 -159q-1 -99 -74 -152.5t-196 -58.5v-130h-83v133q-94 12 -156 63t-111 146l119 55q28 -58 64.5 -90.5t83.5 -44.5v234l-14 3q-109 21 -170 82t-61 156q0 86 69 137t176 56v110h83v-114q88 -12 144.5 -60t95.5 -138l-106 -49q-24 49 -57 78.5
t-77 41.5v-200q146 -36 208.5 -99zM226 527.5q29 -22.5 91 -38.5v189q-120 -5 -120 -89q0 -39 29 -61.5zM545 223q0 46 -35.5 76t-109.5 49v-223q145 7 145 98z" />
    <glyph glyph-name="Euro" unicode="&#x20ac;" horiz-adv-x="730" 
d="M365 634.5q-62 -36.5 -89 -113.5l308 1v-83l-325 -1q-1 -11 -1 -34q0 -24 1 -36l325 1v-77l-311 -1q24 -83 87 -122.5t153 -39.5q56 0 93.5 10t73.5 35v-132q-39 -23 -80 -32.5t-111 -9.5q-83 0 -155 32t-123.5 97t-70.5 162h-90v77h81q-1 12 -1 36q0 23 1 34h-81v83h92
q20 92 71 155t122.5 93.5t153.5 30.5q68 0 109 -8.5t82 -28.5v-133q-37 23 -74.5 32t-92.5 9q-86 0 -148 -36.5z" />
    <glyph glyph-name="uni20B4" unicode="&#x20b4;" horiz-adv-x="702" 
d="M618 428l-556 -1v84h291q65 0 108.5 20t43.5 59q0 88 -139 88q-70 0 -118 -31.5t-80 -97.5l-106 49q45 106 116.5 154t187.5 48q68 0 128.5 -21t98 -64.5t37.5 -107.5q0 -32 -11 -50t-32.5 -28t-60.5 -18h92v-83zM652 212q-49 -103 -127.5 -157.5t-198.5 -54.5
q-75 0 -138.5 21.5t-100.5 60.5t-37 90t35.5 78.5t97.5 42.5h-121v82l556 1v-83h-319q-57 0 -91 -23t-34 -65q0 -80 152 -80q74 0 126 37t81 105z" />
    <glyph glyph-name="uni20BD" unicode="&#x20bd;" horiz-adv-x="876" 
d="M272 236l372 1v-122l-372 -1v-114h-127v114h-95v122h95v60h-95v122h95v382h318q154 0 258.5 -56t104.5 -204q0 -131 -107 -187t-256 -56h-191v-61zM463 419q110 0 165 27.5t55 97.5q0 69 -56 99t-164 30h-191v-254h191z" />
    <glyph glyph-name="sterling" unicode="&#xa3;" horiz-adv-x="663" 
d="M613 1l-562 -1h-1v119h1q70 0 100 28t30 83q0 48 -23 132h-108v83h85q-15 63 -15 114q0 119 78.5 180t233.5 61q55 0 93 -8.5t80 -27.5v-133q-39 21 -77 30.5t-96 9.5q-93 0 -139 -37.5t-46 -109.5q0 -33 11 -79l237 1v-83h-211q16 -64 16 -117q0 -71 -27 -127l340 1
v-119z" />
    <glyph glyph-name="yen" unicode="&#xa5;" horiz-adv-x="789" 
d="M739 800l-219 -406h114v-83h-158l-17 -31v-16h175v-83h-175v-179h-129v178h-174v83h174v17l-16 30h-158v83h113l-219 407h139l205 -400l200 400h145z" />
    <glyph glyph-name="plus" unicode="+" 
d="M616 359v-111h-227v-228h-112v228h-227v111h227v227h112v-227h227z" />
    <glyph glyph-name="minus" unicode="&#x2212;" 
d="M616 248h-566v111h566v-111z" />
    <glyph glyph-name="multiply" unicode="&#xd7;" horiz-adv-x="579" 
d="M529 458l-161 -161l161 -161l-79 -78l-160 161l-161 -161l-79 78l161 161l-161 161l79 78l161 -160l160 160z" />
    <glyph glyph-name="divide" unicode="&#xf7;" 
d="M616 243h-566v111h566v-111zM274.5 459.5q-23.5 23.5 -23.5 57.5q0 33 23.5 56t57.5 23q33 0 56 -23t23 -56q0 -34 -23 -57.5t-56 -23.5q-34 0 -57.5 23.5zM274.5 23.5q-23.5 23.5 -23.5 57.5q0 33 23.5 56t57.5 23q33 0 56 -23t23 -56q0 -34 -23 -57.5t-56 -23.5
q-34 0 -57.5 23.5z" />
    <glyph glyph-name="equal" unicode="=" 
d="M616 362h-566v111h566v-111zM616 144h-566v111h566v-111z" />
    <glyph glyph-name="notequal" unicode="&#x2260;" 
d="M616 362h-201l-34 -107h235v-111h-269l-73 -234h-133l73 234h-164v111h198l34 107h-232v111h266l71 227h133l-71 -227h167v-111z" />
    <glyph glyph-name="greater" unicode="&#x3e;" 
d="M50 553l566 -150v-208l-566 -160v123l497 140l-497 132v123z" />
    <glyph glyph-name="less" unicode="&#x3c;" 
d="M616 553v-123l-497 -132l497 -140v-123l-566 160v208z" />
    <glyph glyph-name="greaterequal" unicode="&#x2265;" 
d="M50 613l566 -150v-208l-566 -160v123l497 140l-497 132v123zM616 -109h-566v111h566v-111z" />
    <glyph glyph-name="lessequal" unicode="&#x2264;" 
d="M616 613v-123l-497 -132l497 -140v-123l-566 160v208zM50 -109v111h566v-111h-566z" />
    <glyph glyph-name="plusminus" unicode="&#xb1;" 
d="M616 425v-111h-227v-228h-112v228h-227v111h227v227h112v-227h227zM616 -109h-566v111h566v-111z" />
    <glyph glyph-name="approxequal" unicode="&#x2248;" 
d="M466 111q-63 0 -123 23q-72 26 -141 26q-64 0 -152 -21v118q83 20 151 20q73 0 142 -25q64 -23 123 -23q67 0 150 28v-118q-83 -28 -150 -28zM466 323q-63 0 -123 23q-72 26 -141 26q-64 0 -152 -21v118q83 20 151 20q73 0 142 -25q64 -23 123 -23q67 0 150 28v-118
q-83 -28 -150 -28z" />
    <glyph glyph-name="asciitilde" unicode="~" 
d="M466 213q-63 0 -123 23q-72 26 -141 26q-64 0 -152 -21v118q83 20 151 20q73 0 142 -25q64 -23 123 -23q67 0 150 28v-118q-83 -28 -150 -28z" />
    <glyph glyph-name="logicalnot" unicode="&#xac;" 
d="M50 359h566v-359h-122v248h-444v111z" />
    <glyph glyph-name="asciicircum" unicode="^" horiz-adv-x="600" 
d="M550 358h-128l-129 259l-121 -259h-122l160 342h170z" />
    <glyph glyph-name="emptyset" unicode="&#x2205;" horiz-adv-x="769" 
d="M639 533q52 -77 52 -173q0 -86 -40.5 -156.5t-111 -110.5t-155.5 -40q-98 0 -174 51l-96 -96l-82 82l96 96q-51 74 -51 174q0 87 40 157t110 110t157 40q96 0 173 -52l98 97l82 -82zM218 276l250 250q-40 19 -84 19q-52 0 -94.5 -24t-66.5 -66.5t-24 -94.5q0 -44 19 -84z
M550 444l-250 -250q40 -19 84 -19q51 0 93.5 24t67 66.5t24.5 94.5q0 44 -19 84z" />
    <glyph glyph-name="infinity" unicode="&#x221e;" horiz-adv-x="1184" 
d="M344.5 60q-35.5 -15 -83.5 -15q-70 0 -117.5 34.5t-70.5 89t-23 115.5t23 115.5t70.5 89t117.5 34.5q47 0 81.5 -14.5t117.5 -64.5l132 -81l132 81q74 46 113 62.5t86 16.5q70 0 117.5 -34.5t70.5 -89t23 -115.5t-23 -115.5t-70.5 -89t-117.5 -34.5q-48 0 -83.5 15
t-115.5 64l-132 82l-132 -82q-80 -49 -115.5 -64zM347.5 399q-46.5 17 -86.5 17q-56 0 -83.5 -35.5t-27.5 -96.5t27.5 -96.5t83.5 -35.5q39 0 85.5 17.5t116.5 63.5l78 51l-78 52q-69 46 -115.5 63zM840 165.5q47 -19.5 83 -19.5q56 0 83.5 38t27.5 100q0 61 -27.5 96.5
t-83.5 35.5q-40 0 -86.5 -17t-115.5 -63l-78 -52l78 -51q72 -48 119 -67.5z" />
    <glyph glyph-name="integral" unicode="&#x222b;" horiz-adv-x="611" 
d="M88 25q40 0 57.5 13.5t29.5 49.5l170 504q20 57 57.5 82.5t113.5 25.5h45v-126h-39q-39 0 -56 -13.5t-29 -49.5l-174 -515q-18 -54 -56.5 -75.5t-111.5 -21.5h-45v126h38z" />
    <glyph glyph-name="product" unicode="&#x220f;" horiz-adv-x="701" 
d="M651 700v-128h-90v-674h-126v674h-168v-674h-126v674h-91v128h601z" />
    <glyph glyph-name="summation" unicode="&#x2211;" horiz-adv-x="566" 
d="M516 700v-116h-326l230 -188v-184l-233 -198h329v-116h-466v154l272 251l-272 248v149h466z" />
    <glyph glyph-name="radical" unicode="&#x221a;" horiz-adv-x="849" 
d="M543 870h256v-129h-163l-269 -941h-139l-178 487h150l92 -269z" />
    <glyph glyph-name="partialdiff" unicode="&#x2202;" horiz-adv-x="676" 
d="M547.5 84q-78.5 -94 -213.5 -94q-134 0 -209 81.5t-75 229.5q0 84 34 148.5t98 100.5t152 36q72 0 123 -29t104 -89l19 19l-17 19q-30 72 -72.5 107t-124.5 48.5t-244 13.5v125q188 0 298 -42t158 -131.5t48 -237.5q0 -211 -78.5 -305zM455.5 419.5
q-48.5 42.5 -121.5 42.5q-70 0 -115 -42.5t-45 -118.5q0 -87 44.5 -137t115.5 -50q49 0 88 24t60.5 66.5t21.5 96.5q0 76 -48.5 118.5z" />
    <glyph glyph-name="percent" unicode="%" horiz-adv-x="870" 
d="M134.5 375.5q-39.5 22.5 -62 62.5t-22.5 89t22.5 88.5t62 62t88.5 22.5q48 0 88 -22.5t63 -62t23 -88.5t-23 -89t-63 -62.5t-88 -22.5q-49 0 -88.5 22.5zM547 700h121l-346 -700h-121zM282 468q24 24 24 59t-24 58.5t-59 23.5q-34 0 -58 -23.5t-24 -58.5t23.5 -59
t58.5 -24t59 24zM557.5 22.5q-39.5 22.5 -62 62.5t-22.5 89t22.5 88.5t62 62t88.5 22.5q48 0 88 -22.5t63 -62t23 -88.5t-23 -89t-63 -62.5t-88 -22.5q-49 0 -88.5 22.5zM705 115q24 24 24 59t-24 58.5t-59 23.5q-34 0 -58 -23.5t-24 -58.5t23.5 -59t58.5 -24t59 24z" />
    <glyph glyph-name="perthousand" unicode="&#x2030;" horiz-adv-x="1263" 
d="M134.5 375.5q-39.5 22.5 -62 62.5t-22.5 89t22.5 88.5t62 62t88.5 22.5q48 0 88 -22.5t63 -62t23 -88.5t-23 -89t-63 -62.5t-88 -22.5q-49 0 -88.5 22.5zM547 700h115l-346 -700h-115zM282 468q24 24 24 59t-24 58.5t-59 23.5q-34 0 -58 -23.5t-24 -58.5t23.5 -59
t58.5 -24t59 24zM551.5 22.5q-39.5 22.5 -62 62.5t-22.5 89t22.5 88.5t62 62t88.5 22.5q48 0 88 -22.5t63 -62t23 -88.5t-23 -89t-63 -62.5t-88 -22.5q-49 0 -88.5 22.5zM950.5 22.5q-39.5 22.5 -62 62.5t-22.5 89t22.5 88.5t62 62t88.5 22.5q48 0 88 -22.5t63 -62t23 -88.5
t-23 -89t-63 -62.5t-88 -22.5q-49 0 -88.5 22.5zM699 115q24 24 24 59t-24 58.5t-59 23.5q-34 0 -58 -23.5t-24 -58.5t23.5 -59t58.5 -24t59 24zM1098 115q24 24 24 59t-24 58.5t-59 23.5q-34 0 -58 -23.5t-24 -58.5t23.5 -59t58.5 -24t59 24z" />
    <glyph glyph-name="lozenge" unicode="&#x25ca;" horiz-adv-x="706" 
d="M458 700l198 -350l-198 -350h-216l-192 350l192 350h216zM351 61l164 289l-164 289l-159 -289z" />
    <glyph glyph-name="at" unicode="@" horiz-adv-x="982" 
d="M105 469q55 97 152.5 151.5t217.5 54.5q131 0 235 -52.5t163 -148.5t59 -223v-139q0 -46 -23.5 -81.5t-61 -55t-77.5 -19.5q-62 0 -103 43t-41 113v57h-16q-14 -58 -51.5 -88t-96.5 -30q-51 0 -95.5 26.5t-71.5 72.5t-27 100q0 53 27 98.5t71.5 72t95.5 26.5
q57 0 94.5 -30.5t52.5 -85.5h17l-7 107h101v-326q0 -20 11 -30.5t39 -10.5q52 0 52 41v138q0 162 -95.5 236t-251.5 73q-88 0 -158 -40.5t-110.5 -111t-40.5 -157.5t40 -158.5t110.5 -112t158.5 -40.5q81 0 148 35l33 -106q-82 -45 -181 -45q-120 0 -217 54.5t-152.5 152
t-55.5 221.5q0 121 55 218zM420 165q31 -30 86 -30q44 0 76 31t32 79v6q0 48 -31.5 80t-76.5 32q-55 0 -86 -29.5t-31 -83.5q0 -55 31 -85z" />
    <glyph glyph-name="ampersand" unicode="&#x26;" horiz-adv-x="766" 
d="M576 0l-34 52q-76 -52 -171 -52q-151 0 -235 65.5t-84 197.5q0 89 43 145.5t154 92.5l-196 299h597v-122h-340l-67 45l-18 -27l67 -45l266 -409q35 81 35 218h122q0 -100 -23 -181.5t-65 -141.5l89 -137h-140zM478 150l-167 255q-71 -18 -102.5 -51.5t-31.5 -90.5
q0 -138 194 -138q63 0 107 25z" />
    <glyph glyph-name="paragraph" unicode="&#xb6;" horiz-adv-x="662" 
d="M80 687.5q30 52.5 82.5 82.5t117.5 30h128v-800h-128v339q-65 0 -117.5 30t-82.5 83t-30 118t30 117.5zM478 800h134v-800h-134v800z" />
    <glyph glyph-name="section" unicode="&#xa7;" horiz-adv-x="590" 
d="M151.5 -9q-59.5 38 -100.5 121l107 51q24 -52 60.5 -70t84.5 -18q56 0 80.5 14t24.5 35q0 28 -29 43t-108 24q-103 11 -158.5 45t-55.5 91q0 46 37 68.5t93 34.5v21q-60 22 -90.5 48.5t-30.5 69.5q0 66 59.5 98.5t158.5 32.5q95 0 154.5 -38t100.5 -120l-107 -51
q-24 52 -60 69.5t-85 17.5q-56 0 -80.5 -14t-24.5 -35q0 -27 29.5 -42.5t111.5 -24.5q98 -11 154 -44.5t56 -90.5q0 -44 -37.5 -67.5t-92.5 -36.5v-21q60 -22 90.5 -48.5t30.5 -69.5q0 -66 -59.5 -98.5t-158.5 -32.5q-95 0 -154.5 38zM384.5 278.5q34.5 18.5 34.5 48.5
q0 29 -36.5 47.5t-87.5 18.5q-54 0 -88.5 -18t-34.5 -48t36.5 -48t86.5 -19q55 0 89.5 18.5z" />
    <glyph glyph-name="copyright" unicode="&#xa9;" horiz-adv-x="891" 
d="M244.5 3.5q-90.5 51.5 -142.5 141.5t-52 201t52 201.5t142.5 142t201.5 51.5q106 0 197 -52t144.5 -142.5t53.5 -200.5q0 -111 -52.5 -201t-142.5 -141.5t-200 -51.5q-111 0 -201.5 51.5zM593.5 93q66.5 38 105 104.5t38.5 148.5t-38.5 148.5t-105 105t-147.5 38.5
q-82 0 -148.5 -38.5t-104.5 -105t-38 -148.5q0 -81 38 -148t104.5 -105t148.5 -38q81 0 147.5 38zM342.5 174q-47.5 26 -74 71.5t-26.5 101.5t26.5 101.5t74 71.5t106.5 26q67 0 117 -28t75 -79l-67 -46q-25 36 -55.5 50t-69.5 14q-48 0 -82 -31t-34 -79q0 -50 33.5 -79
t82.5 -29q80 0 118 55l69 -47q-24 -48 -72 -73.5t-115 -25.5q-59 0 -106.5 26z" />
    <glyph glyph-name="registered" unicode="&#xae;" horiz-adv-x="754" 
d="M210 124.5q-75 42.5 -117.5 117t-42.5 166.5t42.5 167t117.5 117.5t167 42.5q88 0 163 -43t119.5 -118t44.5 -166t-43 -166t-118 -117.5t-166 -42.5q-92 0 -167 42.5zM492 211q52 30 82 82t30 115t-30 115t-82 82t-115 30q-64 0 -115.5 -30t-81.5 -81.5t-30 -115.5
q0 -63 30 -115t82 -82t115 -30t115 30zM380 557q140 0 140 -101q0 -32 -15.5 -51t-46.5 -29l51 -112h-68l-43 102l-89 -1v-101h-62v293h133zM451 457q0 19 -17.5 28t-53.5 9h-71v-72h71q71 0 71 35z" />
    <glyph glyph-name="trademark" unicode="&#x2122;" horiz-adv-x="1293" 
d="M527 622v-97h-196v-525h-97v525h-195v97h488zM1254 622v-622h-98v401l-172 -401h-105l-177 405v-405h-98v622h100l227 -505l224 505h99z" />
    <glyph glyph-name="degree" unicode="&#xb0;" horiz-adv-x="447" 
d="M135.5 395q-39.5 23 -62.5 62.5t-23 87.5q0 49 23 89t62.5 62.5t88.5 22.5q47 0 86.5 -22.5t63 -62.5t23.5 -89q0 -48 -23 -87.5t-62.5 -62.5t-87.5 -23q-49 0 -88.5 23zM287.5 482q25.5 26 25.5 63q0 38 -25.5 64t-63.5 26t-63.5 -26t-25.5 -64t25.5 -63.5t63.5 -25.5
t63.5 26z" />
    <glyph glyph-name="bar" unicode="|" horiz-adv-x="600" 
d="M50 800h134v-800h-134v800z" />
    <glyph glyph-name="brokenbar" unicode="&#xa6;" horiz-adv-x="234" 
d="M50 434v366h134v-366h-134zM50 0v369h134v-369h-134z" />
    <glyph glyph-name="dagger" unicode="&#x2020;" horiz-adv-x="518" 
d="M468 700v-110h-151v-410h-116v410h-150l-1 110h151v100h116v-100h151z" />
    <glyph glyph-name="daggerdbl" unicode="&#x2021;" horiz-adv-x="518" 
d="M468 590h-151v-97h151v-110h-151v-203h-116v203h-150l-1 110h151v97h-150l-1 110h151v100h116v-100h151v-110z" />
    <glyph glyph-name="uni2116" unicode="&#x2116;" horiz-adv-x="1141" 
d="M574 194v606h125v-800h-134l-390 606v-606h-125v800h134zM798.5 509q-46.5 46 -46.5 122q0 77 46.5 123t122.5 46q48 0 86.5 -21t60.5 -59.5t22 -88.5q0 -75 -47 -121.5t-122 -46.5q-76 0 -122.5 46zM858.5 694q-23.5 -23 -23.5 -63q0 -39 23.5 -62.5t62.5 -23.5
q38 0 62 23.5t24 62.5q0 40 -23.5 63t-62.5 23t-62.5 -23zM752 423h339v-125h-339v125z" />
    <glyph glyph-name="brevecombcy" horiz-adv-x="0" 
 />
    </font>
</defs>
</svg>
