<?xml version="1.0" standalone="no"?>
<!DOCTYPE svg PUBLIC "-//W3C//DTD SVG 1.1//EN" "http://www.w3.org/Graphics/SVG/1.1/DTD/svg11.dtd" >
<svg xmlns="http://www.w3.org/2000/svg" xmlns:xlink="http://www.w3.org/1999/xlink" version="1.1">
<metadata>
Created by FontForge 20170812 at Tue Mar 15 18:27:59 2022
 By www-data
</metadata>
<defs>
<font id="CraftworkGrotesk-Medium" horiz-adv-x="666" >
  <font-face 
    font-family="Craftwork Grotesk Medium"
    font-weight="500"
    font-stretch="normal"
    units-per-em="1000"
    panose-1="0 0 6 0 0 0 0 0 0 0"
    ascent="800"
    descent="-200"
    x-height="522"
    cap-height="800"
    bbox="28 -200 1173 1000"
    underline-thickness="50"
    underline-position="-100"
    unicode-range="U+0020-25CA"
  />
<missing-glyph horiz-adv-x="600" 
d="M492 -200h-380v1200h380v-1200zM202 920v-40h78v-44h-80v-40h200v40h-80v44h80v40h-198zM200 765v-125h200v41h-80v84h-120zM280 681h-40v43h40v-43zM200 608v-40h80v-44h-80v-40h120v84h80v40h-200zM360 536v-80h-160v-40h200v120h-40zM280 389v-67h40v28h40v-57h-120
v96h-40v-135h200v135h-120zM200 182v-136h200v136h-200zM360 86h-120v56h120v-56zM200 18v-39h84l-84 -57v-39h200v39h-123l84 57h39v39h-200z" />
    <glyph glyph-name=".notdef" horiz-adv-x="600" 
d="M492 -200h-380v1200h380v-1200zM202 920v-40h78v-44h-80v-40h200v40h-80v44h80v40h-198zM200 765v-125h200v41h-80v84h-120zM280 681h-40v43h40v-43zM200 608v-40h80v-44h-80v-40h120v84h80v40h-200zM360 536v-80h-160v-40h200v120h-40zM280 389v-67h40v28h40v-57h-120
v96h-40v-135h200v135h-120zM200 182v-136h200v136h-200zM360 86h-120v56h120v-56zM200 18v-39h84l-84 -57v-39h200v39h-123l84 57h39v39h-200z" />
    <glyph glyph-name="space" unicode=" " horiz-adv-x="250" 
 />
    <glyph glyph-name="A" unicode="A" horiz-adv-x="881" 
d="M741 0l-102 236h-398l-101 -236h-90l344 800h91l346 -800h-90zM278 321l324 1l-162 375z" />
    <glyph glyph-name="B" unicode="B" horiz-adv-x="734" 
d="M353 800q118 1 177 -49t59 -134q0 -60 -38 -103.5t-96 -51.5q103 -9 166 -63.5t63 -148.5q0 -126 -91.5 -188t-239.5 -62h-303v800h303zM465.5 530.5q37.5 29.5 37.5 79.5q0 48 -37.5 76t-112.5 28h-217v-213h217q75 0 112.5 29.5zM537 133.5q56 47.5 56 120.5
q0 70 -58 116t-182 46h-217v-330h217q128 0 184 47.5z" />
    <glyph glyph-name="C" unicode="C" horiz-adv-x="787" 
d="M609 50.5q-82 -50.5 -200 -50.5q-115 0 -196 52t-122 143.5t-41 208.5q0 116 41 205.5t122 140t196 50.5q120 0 202 -50.5t126 -147.5l-75 -53q-67 165 -253 165q-81 0 -142.5 -38t-95.5 -108t-34 -164q0 -98 34 -169.5t95.5 -110t142.5 -38.5q181 -1 251 161l74 -53
q-43 -93 -125 -143.5z" />
    <glyph glyph-name="D" unicode="D" horiz-adv-x="780" 
d="M633 694.5q97 -105.5 97 -290.5q0 -187 -97 -295.5t-312 -108.5h-271v800h85v-1l186 1q215 0 312 -105.5zM566 170q79 84 79 234q0 144 -79.5 227.5t-244.5 83.5h-186v-631l186 1q166 1 245 85z" />
    <glyph glyph-name="E" unicode="E" horiz-adv-x="675" 
d="M625 715h-490v-273l425 1v-85h-425v-274l490 1v-85h-575v800h85v-1l490 1v-85z" />
    <glyph glyph-name="F" unicode="F" horiz-adv-x="675" 
d="M625 715h-490v-273l425 1v-85h-425v-358h-85v800h85v-1l490 1v-85z" />
    <glyph glyph-name="G" unicode="G" horiz-adv-x="807" 
d="M760 411q0 -190 -82 -300.5t-268 -110.5q-116 0 -197 52t-122 143t-41 209q0 117 40.5 206t121.5 139.5t197 50.5q236 0 328 -198l-75 -53q-35 81 -97 123t-156 42q-83 0 -144.5 -39t-94.5 -109t-33 -162q0 -96 33 -167.5t94.5 -111t145.5 -39.5q116 1 182 64t82 179
h-273v81l278 1h81z" />
    <glyph glyph-name="H" unicode="H" horiz-adv-x="695" 
d="M560 800h85v-800h-85v358h-425v-358h-85v800h85v-358l425 1v357z" />
    <glyph glyph-name="I" unicode="I" horiz-adv-x="185" 
d="M135 800v-800h-85v800h85z" />
    <glyph glyph-name="J" unicode="J" horiz-adv-x="600" 
d="M176 125.5q41 -41.5 128 -40.5q83 1 122 39.5t39 127.5v548h85v-548q0 -134 -57.5 -193t-188.5 -59q-135 0 -194.5 61t-59.5 191h85q0 -85 41 -126.5z" />
    <glyph glyph-name="K" unicode="K" horiz-adv-x="683" 
d="M633 800l-351 -400l351 -400h-109l-297 338l-92 -105v-233h-85v800h85v-444l389 444h109z" />
    <glyph glyph-name="L" unicode="L" horiz-adv-x="675" 
d="M135 85h490v-85l-490 1v-1h-85v800h85v-715z" />
    <glyph glyph-name="M" unicode="M" horiz-adv-x="883" 
d="M833 800v-800h-88v601l-253 -601h-91l-263 606v-606h-88v800h91l305 -695l296 695h91z" />
    <glyph glyph-name="N" unicode="N" horiz-adv-x="722" 
d="M587 800h85v-800h-94l-443 671v-671h-85v800h94l443 -671v671z" />
    <glyph glyph-name="O" unicode="O" horiz-adv-x="821" 
d="M91.5 609.5q41.5 89.5 123 140t196.5 50.5t196 -50.5t122.5 -140t41.5 -205.5q0 -117 -41.5 -208.5t-123 -143.5t-195.5 -52q-115 0 -196.5 52t-123 143.5t-41.5 208.5q0 116 41.5 205.5zM170 241q32 -72 93.5 -112.5t147.5 -40.5q85 0 146.5 41t93.5 112.5t32 162.5
t-32 160.5t-93 108.5t-147 39t-147.5 -39t-93.5 -108.5t-32 -160.5t32 -163z" />
    <glyph glyph-name="P" unicode="P" horiz-adv-x="730" 
d="M136 0h-86v800h298q143 0 237.5 -58t94.5 -197q0 -87 -47 -142t-122 -79t-163 -24h-212v-300zM348 384q241 0 241 163q0 85 -67 127t-174 42h-212v-332h212z" />
    <glyph glyph-name="Q" unicode="Q" horiz-adv-x="821" 
d="M728 192.5q-43 -92.5 -124 -142.5l132 -250h-91l-114 217q-56 -17 -120 -17q-115 0 -196.5 52t-123 143.5t-41.5 208.5q0 116 41.5 205.5t123 140t196.5 50.5t196 -50.5t122.5 -140t41.5 -205.5q0 -119 -43 -211.5zM488 98l-117 222h91l99 -188q59 39 90.5 110t31.5 162
t-32 160.5t-93 108.5t-147 39t-147.5 -39t-93.5 -108.5t-32 -160.5t32 -163t93.5 -112.5t147.5 -40.5q37 0 77 10z" />
    <glyph glyph-name="R" unicode="R" horiz-adv-x="730" 
d="M640.5 415.5q-39.5 -53.5 -108.5 -82.5l144 -333h-93l-133 309q-50 -9 -102 -9h-212v-300h-86v800h298q153 0 242.5 -56.5t89.5 -198.5q0 -76 -39.5 -129.5zM348 384q129 0 185 39.5t56 123.5q0 169 -241 169h-212v-332h212z" />
    <glyph glyph-name="S" unicode="S" horiz-adv-x="682" 
d="M221.5 125q56.5 -39 138.5 -39q88 0 137.5 31t49.5 98q0 121 -192 160l-50 11q-119 24 -181 76t-62 145q0 59 35 103t93.5 67t127.5 23q113 0 180.5 -51t112.5 -154l-70 -43q-38 85 -92.5 124t-132.5 39q-76 0 -122.5 -29t-46.5 -85q0 -52 43 -83t129 -51l48 -11
q144 -33 205 -91t60 -154q-1 -104 -76 -157.5t-198 -53.5q-119 0 -190.5 52.5t-117.5 154.5l75 46q40 -89 96.5 -128z" />
    <glyph glyph-name="T" unicode="T" horiz-adv-x="679" 
d="M629 800v-85h-247v-715h-85v715h-247v85h579z" />
    <glyph glyph-name="U" unicode="U" horiz-adv-x="687" 
d="M135 800v-436q0 -95 19.5 -156t66 -92t128.5 -31q114 -1 158.5 67.5t44.5 211.5v436h85v-436q0 -122 -26 -201t-89 -121t-173 -42q-115 0 -180.5 42t-92 121t-26.5 201v436h85z" />
    <glyph glyph-name="V" unicode="V" horiz-adv-x="745" 
d="M606 800h89l-282 -800h-95l-268 800h89l228 -674z" />
    <glyph glyph-name="W" unicode="W" horiz-adv-x="1109" 
d="M139 800l180 -673l191 673h89l180 -673l191 673h89l-234 -800h-95l-177 659l-188 -659h-95l-220 800h89z" />
    <glyph glyph-name="X" unicode="X" horiz-adv-x="751" 
d="M701 800l-275 -400l275 -400h-101l-224 327l-225 -327h-101l275 400l-275 400h101l225 -327l224 327h101z" />
    <glyph glyph-name="Y" unicode="Y" horiz-adv-x="757" 
d="M606 800h101l-283 -520v-278h-91v278l-283 520h99l229 -440z" />
    <glyph glyph-name="Z" unicode="Z" horiz-adv-x="689" 
d="M639 800l-441 -716l441 1v-85h-589l442 715h-425v84l478 1h94z" />
    <glyph glyph-name="A.ss01" horiz-adv-x="886" 
d="M743 0l-100 236h-401l-100 -236h-98l344 800h106l346 -800h-97zM277 321l329 1l-148 349v65h-33v-65z" />
    <glyph glyph-name="B.ss01" horiz-adv-x="734" 
d="M293 800q159 1 227.5 -46t68.5 -131q0 -74 -52.5 -110t-163.5 -37v-30q162 -1 236.5 -51.5t74.5 -150.5q0 -125 -101 -184.5t-290 -59.5h-243v800h243zM455 529.5q48 29.5 48 80.5t-47 77t-163 26h-157v-213h157q114 0 162 29.5zM524.5 132q68.5 48 68.5 121
q0 72 -68.5 118t-231.5 46h-157v-333h157q163 0 231.5 48z" />
    <glyph glyph-name="G.ss01" horiz-adv-x="827" 
d="M777 411v-411h-83l29 329h-31q0 -169 -76 -249t-206 -80q-116 0 -197 52t-122 143t-41 209q0 117 40.5 206t121.5 139.5t197 50.5q236 0 328 -198l-75 -53q-71 165 -253 165q-80 0 -141.5 -37.5t-96 -108t-34.5 -164.5q0 -99 34.5 -170.5t96 -109t142.5 -38.5
q222 2 235 243h-244v81l243 1h133z" />
    <glyph glyph-name="I.ss01" horiz-adv-x="655" 
d="M605 715h-219v-630h219v-85h-555v84h251v631h-251v84h251v1h304v-85z" />
    <glyph glyph-name="J.ss01" horiz-adv-x="568" 
d="M518 252q0 -95 -23 -149.5t-72.5 -78.5t-134.5 -24q-93 0 -144.5 24.5t-72.5 75t-21 136.5h85q0 -54 12.5 -86.5t45.5 -48.5t95 -16q60 0 91 17.5t42.5 53t11.5 96.5v463h-313v84l398 1v-548z" />
    <glyph glyph-name="K.ss01" horiz-adv-x="683" 
d="M235 384h59l339 -384h-109l-312 358h-77v-358h-85v800h85v-358l77 1l312 357h109l-339 -383h-59v-33z" />
    <glyph glyph-name="M.ss01" horiz-adv-x="884" 
d="M50 800h91l305 -697l297 697h91v-800h-88v553l48 109h-33l-270 -662h-90l-278 662h-33l48 -109v-553h-88v800z" />
    <glyph glyph-name="N.ss01" horiz-adv-x="721" 
d="M50 800h94l454 -684h33l-44 71v613h84v-800h-94l-454 684h-33l45 -74v-610h-85v800z" />
    <glyph glyph-name="V.ss01" horiz-adv-x="743" 
d="M139 800l211 -626v-60h33v60l221 626h89l-280 -800h-95l-268 800h89z" />
    <glyph glyph-name="W.ss01" horiz-adv-x="1109" 
d="M970 800h89l-231 -800h-100l-175 641l-185 -641h-100l-218 800h89l162 -625v-61h35v61l174 625h89l162 -625v-61h35v61z" />
    <glyph glyph-name="Y.ss01" horiz-adv-x="747" 
d="M608 800h89l-282 -538v-262h-93v262l-272 538h89l214 -434v-60h33v60z" />
    <glyph glyph-name="K.ss02" horiz-adv-x="683" 
d="M633 800l-353 -400l353 -400h-109l-312 358h-77v-358h-85v800h85v-358l77 1l312 357h109z" />
    <glyph glyph-name="a" unicode="a" horiz-adv-x="568" 
d="M458 470.5q60 -61.5 60 -161.5v-309h-83l15 159h-17q-22 -87 -72 -130t-122 -43q-97 0 -143 44t-46 112q0 95 72 136t211 41h104q-3 60 -45 93.5t-108 33.5q-53 0 -87 -24t-62 -71l-70 51q40 61 90.5 95.5t128.5 34.5q114 0 174 -61.5zM370 121.5q47 49.5 61 128.5h-98
q-101 0 -150 -23.5t-49 -75.5q0 -36 28 -57.5t83 -21.5q78 0 125 49.5z" />
    <glyph glyph-name="b" unicode="b" horiz-adv-x="642" 
d="M474 496q55 -37 86.5 -100.5t31.5 -139.5q0 -74 -31.5 -136t-86.5 -98.5t-123 -36.5q-82 0 -134 43t-71 129h-20l10 -157h-86v800h86v-278l-10 -156h22q20 80 72.5 123.5t130.5 43.5q68 0 123 -37zM416 94.5q42 23.5 66 66t24 97.5t-24.5 97.5t-66 66t-92.5 23.5
q-47 0 -86.5 -24.5t-62.5 -68.5t-23 -99q0 -48 24 -90t63.5 -67t84.5 -25q51 0 93 23.5z" />
    <glyph glyph-name="c" unicode="c" horiz-adv-x="595" 
d="M445.5 18.5q-58.5 -33.5 -135.5 -33.5q-75 0 -134 36.5t-92.5 99.5t-33.5 139q0 75 33.5 137.5t92.5 99t134 36.5q80 0 140.5 -36.5t94.5 -102.5l-67 -49q-57 102 -165 102q-51 0 -91 -23.5t-62.5 -66t-22.5 -97.5q0 -86 49 -137.5t127 -51.5q51 0 91 23t66 66l68 -48
q-34 -60 -92.5 -93.5z" />
    <glyph glyph-name="d" unicode="d" horiz-adv-x="642" 
d="M592 800v-800h-86l10 157h-20q-19 -86 -71 -129t-134 -43q-68 0 -123 36.5t-86.5 98.5t-31.5 136q0 76 31.5 139.5t86.5 100.5t123 37q79 0 130.5 -43.5t72.5 -123.5h22l-10 156v278h86zM403.5 96q39.5 25 63.5 67t24 90q0 55 -23 99t-62.5 68.5t-86.5 24.5
q-51 0 -92.5 -23.5t-66 -66t-24.5 -97.5t24 -97.5t66 -66t93 -23.5q45 0 84.5 25z" />
    <glyph glyph-name="e" unicode="e" horiz-adv-x="621" 
d="M194.5 112.5q47.5 -42.5 118.5 -42.5q51 0 92.5 22.5t67.5 64.5l63 -45q-34 -61 -92.5 -94t-130.5 -33q-75 0 -135 36.5t-94 99.5t-34 139q0 74 34 137t94.5 99.5t134.5 36.5q81 0 141 -41t90.5 -111t25.5 -154h-433q10 -72 57.5 -114.5zM196.5 406.5
q-47.5 -42.5 -58.5 -111.5h348q-10 71 -56 112.5t-117 41.5q-69 0 -116.5 -42.5z" />
    <glyph glyph-name="f" unicode="f" horiz-adv-x="457" 
d="M294.5 707q-31.5 -13 -40 -50.5t-8.5 -134.5h161v-85h-161v-437h-85v437h-111v85h110q1 114 16.5 169.5t67 82t163.5 26.5v-80q-81 0 -112.5 -13z" />
    <glyph glyph-name="g" unicode="g" horiz-adv-x="652" 
d="M168.5 -169q-57.5 31 -94.5 88l69 49q28 -46 68.5 -67t103.5 -21q89 0 140.5 52t60.5 136l10 89h-21q-38 -169 -204 -169q-66 0 -121.5 36.5t-87.5 99t-32 137.5t31.5 137t86.5 98t123 36q77 0 129.5 -42.5t73.5 -123.5h22l-10 156h86v-366q0 -171 -74 -263.5t-213 -92.5
q-89 0 -146.5 31zM412.5 93q39.5 22 64 65t24.5 103q0 87 -47.5 135.5t-124.5 48.5q-51 0 -93 -23t-66.5 -65t-24.5 -96q0 -56 24.5 -99t66.5 -67t93 -24q44 0 83.5 22z" />
    <glyph glyph-name="h" unicode="h" horiz-adv-x="583" 
d="M533 295v-295h-85v295q0 77 -36 116t-99 39q-72 0 -120.5 -50.5t-48.5 -148.5v-251h-86v800h86v-278l-26 -156h21q32 170 186 170q208 0 208 -241z" />
    <glyph glyph-name="i" unicode="i" horiz-adv-x="214" 
d="M66.5 622.5q-16.5 16.5 -16.5 40.5t16.5 40.5t41.5 16.5q23 0 39.5 -16.5t16.5 -40.5t-16.5 -40.5t-39.5 -16.5q-25 0 -41.5 16.5zM65 522h85v-522h-85v522z" />
    <glyph glyph-name="j" unicode="j" horiz-adv-x="363" 
d="M215.5 622.5q-16.5 16.5 -16.5 40.5t16.5 40.5t41.5 16.5q23 0 39.5 -16.5t16.5 -40.5t-16.5 -40.5t-39.5 -16.5q-25 0 -41.5 16.5zM214 522h85v-522q-1 -80 -17 -121t-67 -60t-157 -19v85q68 0 99 7t44 31t13 77v522z" />
    <glyph glyph-name="k" unicode="k" horiz-adv-x="510" 
d="M460 522l-211 -208l211 -314h-97l-169 260l-59 -58v-202h-85v800h85v-493l217 215h108z" />
    <glyph glyph-name="l" unicode="l" horiz-adv-x="185" 
d="M50 800h85v-800h-85v800z" />
    <glyph glyph-name="m" unicode="m" horiz-adv-x="924" 
d="M136 522l-26 -156h21q18 86 64.5 128t116.5 42q52 0 90 -23.5t58 -62t19 -84.5h21q18 86 64.5 128t116.5 42q92 0 142.5 -58t50.5 -183v-295h-85v295q0 76 -34 115.5t-90 39.5q-71 0 -115.5 -50t-44.5 -149v-251h-85v295q0 76 -34 115.5t-90 39.5q-71 0 -115.5 -50
t-44.5 -149v-251h-86v522h86z" />
    <glyph glyph-name="n" unicode="n" horiz-adv-x="575" 
d="M525 295v-295h-85v295q0 77 -36 116t-100 39q-72 0 -120 -50.5t-48 -148.5v-251h-86v522h86l-26 -156h20q34 170 186 170q209 0 209 -241z" />
    <glyph glyph-name="o" unicode="o" horiz-adv-x="620" 
d="M176.5 22q-59.5 37 -93 100.5t-33.5 139.5q0 75 33.5 138t93 99.5t134.5 36.5q74 0 133.5 -36.5t92.5 -99.5t33 -138q0 -77 -33 -140t-92.5 -100t-133.5 -37q-75 0 -134.5 37zM400.5 94q39.5 24 62 67.5t22.5 99.5t-22.5 99t-62 67t-89.5 24q-51 0 -90.5 -24t-62 -67
t-22.5 -99t22.5 -99.5t62 -67.5t90.5 -24q50 0 89.5 24z" />
    <glyph glyph-name="p" unicode="p" horiz-adv-x="642" 
d="M474 496q55 -37 86.5 -101t31.5 -141q0 -73 -31.5 -134.5t-86.5 -98t-123 -36.5q-80 0 -132 43.5t-72 126.5h-21l10 -355h-86v722h86l-10 -158h21q20 83 72 126t132 43q68 0 123 -37zM415.5 94q41.5 23 66 65.5t24.5 96.5q0 56 -24 99t-66 66.5t-93 23.5q-45 0 -84.5 -24
t-63.5 -65.5t-24 -90.5q0 -54 23 -98.5t62.5 -70t86.5 -25.5q51 0 92.5 23z" />
    <glyph glyph-name="q" unicode="q" horiz-adv-x="642" 
d="M592 522v-722h-86l10 355h-21q-19 -83 -71 -126.5t-133 -43.5q-68 0 -123 36.5t-86.5 98t-31.5 134.5q0 77 31.5 141t86.5 101t123 37q80 0 132 -43t72 -126h21l-10 158h86zM405.5 96.5q39.5 25.5 62.5 70t23 98.5q0 49 -24 90.5t-63.5 65.5t-84.5 24q-51 0 -93 -23.5
t-66 -66.5t-24 -99q0 -54 24.5 -96.5t66 -65.5t92.5 -23q47 0 86.5 25.5z" />
    <glyph glyph-name="r" unicode="r" horiz-adv-x="370" 
d="M193.5 484.5q46.5 37.5 126.5 37.5v-90q-8 1 -24 1q-72 0 -116 -45t-44 -137v-251h-86v522h86l-26 -156h20q17 81 63.5 118.5z" />
    <glyph glyph-name="s" unicode="s" horiz-adv-x="541" 
d="M187 96q36 -24 86 -24q61 0 96 20t35 50q0 31 -23.5 49.5t-87.5 33.5l-33 9q-101 24 -143 61t-42 99q0 37 21.5 68.5t65 51t105.5 19.5q78 0 129 -36t83 -101l-72 -45q-26 52 -60.5 75t-79.5 23q-58 0 -83 -17.5t-25 -43.5q0 -27 21 -44t80 -33l33 -8
q104 -25 147.5 -63.5t43.5 -99.5q0 -38 -25 -73t-73 -57t-113 -22q-82 0 -135 35t-88 104l77 46q24 -53 60 -77z" />
    <glyph glyph-name="t" unicode="t" horiz-adv-x="459" 
d="M253.5 140.5q9.5 -35.5 41 -45.5t114.5 -10v-85q-116 0 -168 23t-67 76t-15 170v168h-109v85h109v198h85v-198h163v-85h-163v-168q0 -93 9.5 -128.5z" />
    <glyph glyph-name="u" unicode="u" horiz-adv-x="575" 
d="M525 522v-522h-86l26 156h-20q-34 -170 -186 -170q-209 0 -209 241v295h85v-295q0 -77 36 -116t100 -39q72 0 120 50.5t48 148.5v251h86z" />
    <glyph glyph-name="v" unicode="v" horiz-adv-x="584" 
d="M444 522h90l-132 -522h-210l-142 522h90l126 -463h61z" />
    <glyph glyph-name="w" unicode="w" horiz-adv-x="894" 
d="M766 522h90l-112 -522h-209l-42 203l-34 134l-31 -133l-38 -204h-210l-122 522h90l108 -463h57l99 463h90l109 -463h56z" />
    <glyph glyph-name="x" unicode="x" horiz-adv-x="605" 
d="M555 0h-100l-153 206l-153 -206h-99l195 263v20l-177 239h101l134 -181l134 181h99l-177 -239v-18z" />
    <glyph glyph-name="y" unicode="y" horiz-adv-x="583" 
d="M533 522l-127 -502q-21 -86 -53.5 -132.5t-92 -67t-164.5 -20.5v83q86 0 122 6t56.5 29.5t36.5 81.5h-119l-142 522h90l126 -463h60l118 463h89z" />
    <glyph glyph-name="z" unicode="z" horiz-adv-x="559" 
d="M200 81h309v-81h-459l301 441h-276v81h424z" />
    <glyph glyph-name="a.ss01" horiz-adv-x="642" 
d="M592 522v-522h-86l10 157h-20q-19 -86 -71 -129t-134 -43q-68 0 -123 36.5t-86.5 98.5t-31.5 136q0 76 31.5 139.5t86.5 100.5t123 37q79 0 130.5 -43.5t72.5 -123.5h22l-10 156h86zM403.5 96q39.5 25 63.5 67t24 90q0 55 -23 99t-62.5 68.5t-86.5 24.5
q-51 0 -92.5 -23.5t-66 -66t-24.5 -97.5t24 -97.5t66 -66t93 -23.5q45 0 84.5 25z" />
    <glyph glyph-name="f.ss01" horiz-adv-x="457" 
d="M294.5 707q-31.5 -13 -40 -50.5t-8.5 -134.5h161v-85h-161v-352h160v-85h-356v85h111v352h-111v85h110q1 114 16.5 169.5t67 82t163.5 26.5v-80q-81 0 -112.5 -13z" />
    <glyph glyph-name="g.ss01" horiz-adv-x="579" 
d="M144.5 -169q-56.5 31 -93.5 88l70 51q29 -45 67 -64.5t100 -19.5q46 0 81.5 15t54.5 40.5t19 55.5q0 35 -24.5 58t-73.5 23q-34 0 -73 -11l-146 -36l-29 96l191 70q-120 1 -179 37t-59 123q0 49 30 90t84 65t124 24q40 0 78.5 -12t66.5 -32l96 34v-73h-47q23 -22 32 -44
t9 -55q0 -119 -165 -172q-124 -53 -179 -75l4 -12l37 10q39 11 48 14q63 18 111 18q70 0 107 -36t37 -104q0 -45 -26 -90.5t-79 -76t-130 -30.5q-87 0 -143.5 31zM403 276.5q38 24.5 38 75.5q0 47 -39.5 73.5t-113.5 26.5q-76 0 -115 -26.5t-39 -73.5q0 -51 38 -75.5
t116 -24.5q77 0 115 24.5z" />
    <glyph glyph-name="i.ss01" horiz-adv-x="536" 
d="M228 622q-17 17 -17 41t17 40.5t42 16.5q23 0 39 -16.5t16 -40.5t-16 -41t-39 -17q-25 0 -42 17zM311 84h175v-84h-436v84h176v354h-160v84h245v-438z" />
    <glyph glyph-name="j.ss01" horiz-adv-x="373" 
d="M224.5 622.5q-16.5 16.5 -16.5 40.5t16.5 40.5t41.5 16.5q23 0 39.5 -16.5t16.5 -40.5t-16.5 -40.5t-39.5 -16.5q-25 0 -41.5 16.5zM308 0q-1 -79 -16.5 -119.5t-66.5 -60.5t-158 -20v85q71 0 102 7.5t42.5 30.5t11.5 77v436h-173v86h258v-522z" />
    <glyph glyph-name="r.ss01" horiz-adv-x="506" 
d="M439 447q-71 0 -119 -48.5t-48 -141.5v-172h172v-85h-394v85h136v352h-104v85h190l-26 -148h21q36 162 189 162v-90z" />
    <glyph glyph-name="t.ss01" horiz-adv-x="552" 
d="M502 522v-85h-183v-437h-85v437h-184v85h184v166h85v-166h183z" />
    <glyph glyph-name="y.ss01" horiz-adv-x="575" 
d="M529 522l-132 -522h-61q-1 -79 -17 -119.5t-67 -60.5t-157 -20v85q72 0 102.5 7t42 30t11.5 78h-63l-142 522h90l126 -463h61l117 463h89z" />
    <glyph glyph-name="a.ss02" horiz-adv-x="568" 
d="M458 470.5q60 -61.5 60 -161.5v-309h-83l15 159h-17q-22 -87 -72 -130t-122 -43q-97 0 -143 44t-46 112q0 95 72 136t211 41h104q-3 60 -45 93.5t-108 33.5q-54 0 -95 -21t-110 -77l-2 94q45 42 93 66t114 24q114 0 174 -61.5zM370 121.5q47 49.5 61 128.5h-98
q-101 0 -150 -23.5t-49 -75.5q0 -36 28 -57.5t83 -21.5q78 0 125 49.5z" />
    <glyph glyph-name="c.ss02" horiz-adv-x="563" 
d="M178.5 21.5q-60.5 36.5 -94.5 99.5t-34 139q0 75 34 137.5t94.5 99t137.5 36.5q64 0 116.5 -23.5t80.5 -61.5v-97q-38 40 -85.5 68t-111.5 28q-51 0 -92 -23.5t-64 -66t-23 -97.5q0 -57 23 -100t64 -66t92 -23q69 0 119 23.5t78 61.5v-94q-27 -37 -78.5 -57t-118.5 -20
q-77 0 -137.5 36.5z" />
    <glyph glyph-name="e.ss02" horiz-adv-x="616" 
d="M452.5 491.5q58.5 -38.5 88 -108t24.5 -159.5h-428q10 -71 58 -114t118 -43q59 0 110.5 17t98.5 59v-93q-43 -34 -91.5 -50.5t-117.5 -16.5q-74 0 -134.5 36.5t-94.5 99.5t-34 138t34 137.5t94.5 99t134.5 36.5q81 0 139.5 -38.5zM196.5 404q-47.5 -42 -58.5 -110h348
q-11 70 -57 111t-116 41q-69 0 -116.5 -42z" />
    <glyph glyph-name="f.ss02" horiz-adv-x="567" 
d="M245 702q-33 -21 -33 -56t34 -73h236l-1 -85h-235v-488h-87v488h-109v85h109q-30 41 -30 84q0 40 26.5 73t72 51.5t100.5 18.5q65 0 109 -19t79 -55v-88q-49 46 -91 65.5t-97 19.5q-50 0 -83 -21z" />
    <glyph glyph-name="g.ss02" horiz-adv-x="638" 
d="M189 -181q-45 19 -78 51v93q27 -38 79 -60.5t116 -22.5q94 0 148 61t54 173v43h-12q-37 -172 -205 -172q-68 0 -123 37t-86.5 100.5t-31.5 138.5t31.5 137t86.5 98.5t123 36.5q76 0 129 -43t74 -124h14l-2 156h82v-408q0 -147 -73 -230.5t-209 -83.5q-72 0 -117 19z
M402.5 92.5q39.5 21.5 64 64.5t24.5 104t-25 102.5t-64.5 61.5t-82.5 20q-51 0 -93 -23t-66.5 -65t-24.5 -96q0 -56 24.5 -99t66.5 -67t93 -24q44 0 83.5 21.5z" />
    <glyph glyph-name="j.ss02" horiz-adv-x="375" 
d="M214.5 622.5q-16.5 16.5 -16.5 40.5t16.5 40.5t41.5 16.5q23 0 39.5 -16.5t16.5 -40.5t-16.5 -40.5t-39.5 -16.5q-25 0 -41.5 16.5zM213 522h85v-522q-1 -77 -57 -124t-184 -76v86q82 13 119 37.5t37 76.5v522z" />
    <glyph glyph-name="s.ss02" horiz-adv-x="510" 
d="M155.5 95q46.5 -23 93.5 -23q60 0 95 20t35 50q0 31 -23.5 49.5t-86.5 33.5l-34 9q-101 24 -143 61t-42 99q0 37 22 68.5t65.5 51t105.5 19.5q51 0 84.5 -12t53 -29.5t38.5 -44.5v-97q-43 55 -86 77t-90 22q-59 0 -84 -17.5t-25 -43.5q0 -27 21.5 -44t79.5 -33l34 -8
q104 -25 147.5 -63.5t43.5 -99.5q0 -38 -25 -73t-73 -57t-113 -22q-61 0 -105.5 23t-85.5 74v93q51 -60 97.5 -83z" />
    <glyph glyph-name="uni0410" unicode="&#x410;" horiz-adv-x="881" 
d="M741 0l-102 236h-398l-101 -236h-90l344 800h91l346 -800h-90zM278 321l324 1l-162 375z" />
    <glyph glyph-name="uni0411" unicode="&#x411;" horiz-adv-x="734" 
d="M136 502h225q147 0 235 -62t88 -187q0 -126 -88 -189.5t-235 -63.5h-311v800h570v-86h-484v-212zM537.5 133q55.5 47 55.5 120q0 72 -55.5 118t-176.5 46h-225v-331h225q121 0 176.5 47z" />
    <glyph glyph-name="uni0412" unicode="&#x412;" horiz-adv-x="734" 
d="M353 800q118 1 177 -49t59 -134q0 -60 -38 -103.5t-96 -51.5q103 -9 166 -63.5t63 -148.5q0 -126 -91.5 -188t-239.5 -62h-303v800h303zM465.5 530.5q37.5 29.5 37.5 79.5q0 48 -37.5 76t-112.5 28h-217v-213h217q75 0 112.5 29.5zM537 133.5q56 47.5 56 120.5
q0 70 -58 116t-182 46h-217v-330h217q128 0 184 47.5z" />
    <glyph glyph-name="uni0413" unicode="&#x413;" horiz-adv-x="624" 
d="M136 714v-714h-86v800h524v-86h-438z" />
    <glyph glyph-name="uni0490" unicode="&#x490;" horiz-adv-x="616" 
d="M488 1000h86v-286h-438v-714h-86v800h438v200z" />
    <glyph glyph-name="uni0414" unicode="&#x414;" horiz-adv-x="955" 
d="M905 -200h-85v200l-613 1q-15 -1 -47 -1h-25v-200h-85v285h110q53 0 76 10t33.5 48t10.5 125v532h475v-715h150v-285zM670 716h-305v-448q0 -123 -24 -183h329v631z" />
    <glyph glyph-name="uni0415" unicode="&#x415;" horiz-adv-x="675" 
d="M625 715h-490v-273l425 1v-85h-425v-274l490 1v-85h-575v800h85v-1l490 1v-85z" />
    <glyph glyph-name="uni0401" unicode="&#x401;" horiz-adv-x="675" 
d="M231 902.5q-17 16.5 -17 40.5t17 40.5t42 16.5q23 0 39.5 -16.5t16.5 -40.5t-16.5 -40.5t-39.5 -16.5q-25 0 -42 16.5zM368 902.5q-17 16.5 -17 40.5t17 40.5t42 16.5q23 0 39.5 -16.5t16.5 -40.5t-16.5 -40.5t-39.5 -16.5q-25 0 -42 16.5zM625 715h-490v-273l425 1v-85
h-425v-274l490 1v-85h-575v800h85v-1l490 1v-85z" />
    <glyph glyph-name="uni0416" unicode="&#x416;" horiz-adv-x="1017" 
d="M967 800l-271 -400l271 -400h-101l-239 358h-76v-358h-85v358h-76l-239 -358h-101l271 400l-271 400h101l238 -357l77 -1v358h85v-358l77 1l238 357h101z" />
    <glyph glyph-name="uni0417" unicode="&#x417;" horiz-adv-x="690" 
d="M589.5 380.5q49.5 -46.5 49.5 -138.5q0 -123 -83 -182.5t-210 -59.5q-134 0 -215 72t-81 219h86q0 -92 52 -148.5t158 -56.5q99 0 150.5 44t51.5 114q0 69 -46 106.5t-138 37.5h-73v85h73q75 0 115.5 31.5t40.5 87.5q0 63 -41.5 92.5t-132.5 29.5q-93 0 -139.5 -37
t-46.5 -109h-86q0 114 66 173.5t206 58.5q136 1 198 -49.5t62 -149.5q0 -44 -21.5 -80.5t-56.5 -59t-72 -27.5q84 -7 133.5 -53.5z" />
    <glyph glyph-name="uni0418" unicode="&#x418;" horiz-adv-x="722" 
d="M672 800v-800h-85v671l-443 -671h-94v800h85v-671l443 671h94z" />
    <glyph glyph-name="uni0419" unicode="&#x419;" horiz-adv-x="722" 
d="M240 817.5q-57 23.5 -93 70t-36 112.5h85q-1 -66 41.5 -95.5t121.5 -29.5q156 0 156 125h85q0 -66 -35.5 -112.5t-91 -70t-114.5 -23.5q-62 0 -119 23.5zM672 800v-800h-85v671l-443 -671h-94v800h85v-671l443 671h94z" />
    <glyph glyph-name="uni041A" unicode="&#x41a;" horiz-adv-x="683" 
d="M633 800l-353 -400l353 -400h-109l-312 358h-77v-358h-85v800h85v-358l77 1l312 357h109z" />
    <glyph glyph-name="uni041B" unicode="&#x41b;" horiz-adv-x="695" 
d="M645 0h-85v716h-305v-448q0 -124 -23.5 -181.5t-64 -72t-117.5 -14.5v85q53 0 76 10t33.5 48t10.5 125v532h475v-800z" />
    <glyph glyph-name="uni041C" unicode="&#x41c;" horiz-adv-x="883" 
d="M833 800v-800h-88v601l-253 -601h-91l-263 606v-606h-88v800h91l305 -695l296 695h91z" />
    <glyph glyph-name="uni041D" unicode="&#x41d;" horiz-adv-x="695" 
d="M560 800h85v-800h-85v358h-425v-358h-85v800h85v-358l425 1v357z" />
    <glyph glyph-name="uni041E" unicode="&#x41e;" horiz-adv-x="821" 
d="M91.5 609.5q41.5 89.5 123 140t196.5 50.5t196 -50.5t122.5 -140t41.5 -205.5q0 -117 -41.5 -208.5t-123 -143.5t-195.5 -52q-115 0 -196.5 52t-123 143.5t-41.5 208.5q0 116 41.5 205.5zM170 241q32 -72 93.5 -112.5t147.5 -40.5q85 0 146.5 41t93.5 112.5t32 162.5
t-32 160.5t-93 108.5t-147 39t-147.5 -39t-93.5 -108.5t-32 -160.5t32 -163z" />
    <glyph glyph-name="uni041F" unicode="&#x41f;" horiz-adv-x="695" 
d="M645 800v-800h-85v715h-425v-715h-85v800h595z" />
    <glyph glyph-name="uni0420" unicode="&#x420;" horiz-adv-x="730" 
d="M136 0h-86v800h298q143 0 237.5 -58t94.5 -197q0 -87 -47 -142t-122 -79t-163 -24h-212v-300zM348 384q241 0 241 163q0 85 -67 127t-174 42h-212v-332h212z" />
    <glyph glyph-name="uni0421" unicode="&#x421;" horiz-adv-x="787" 
d="M609 50.5q-82 -50.5 -200 -50.5q-115 0 -196 52t-122 143.5t-41 208.5q0 116 41 205.5t122 140t196 50.5q120 0 202 -50.5t126 -147.5l-75 -53q-67 165 -253 165q-81 0 -142.5 -38t-95.5 -108t-34 -164q0 -98 34 -169.5t95.5 -110t142.5 -38.5q181 -1 251 161l74 -53
q-43 -93 -125 -143.5z" />
    <glyph glyph-name="uni0422" unicode="&#x422;" horiz-adv-x="679" 
d="M629 800v-85h-247v-715h-85v715h-247v85h579z" />
    <glyph glyph-name="uni0423" unicode="&#x423;" horiz-adv-x="759" 
d="M604 800h97l-379 -800h-97l122 258l-297 542h97l245 -447z" />
    <glyph glyph-name="uni0424" unicode="&#x424;" horiz-adv-x="842" 
d="M753.5 237q-39.5 -73 -113.5 -116.5t-177 -50.5v-70h-85v70q-102 8 -176 51.5t-113 116t-39 165.5t39 164t113 113.5t176 49.5v70h85v-69q103 -7 177.5 -49.5t113.5 -114t39 -164.5t-39.5 -166zM642.5 230.5q63.5 63.5 63.5 172.5t-63 170.5t-180 70.5v-488
q116 11 179.5 74.5zM200 230q63 -64 178 -74v488q-116 -9 -178.5 -70.5t-62.5 -170.5t63 -173z" />
    <glyph glyph-name="uni0425" unicode="&#x425;" horiz-adv-x="751" 
d="M701 800l-275 -400l275 -400h-101l-224 327l-225 -327h-101l275 400l-275 400h101l225 -327l224 327h101z" />
    <glyph glyph-name="uni0427" unicode="&#x427;" horiz-adv-x="730" 
d="M136 800v-233q0 -98 58 -140.5t188 -42.5h212v416h86v-800h-86v300h-212q-154 0 -243 61t-89 206v233h86z" />
    <glyph glyph-name="uni0426" unicode="&#x426;" horiz-adv-x="805" 
d="M755 85v-285h-85v200l-535 1v-1h-85v800h85v-715h425v715h85v-715h110z" />
    <glyph glyph-name="uni0428" unicode="&#x428;" horiz-adv-x="1027" 
d="M50 800h85v-715h335v715h85v-715h337v715h85v-800h-927v800z" />
    <glyph glyph-name="uni0429" unicode="&#x429;" horiz-adv-x="1137" 
d="M1087 85v-285h-85v200h-952v800h85v-715h335v715h85v-715h337v715h85v-715h110z" />
    <glyph glyph-name="uni042C" unicode="&#x42c;" horiz-adv-x="730" 
d="M511 476q75 -24 122 -79t47 -142q0 -139 -94.5 -197t-237.5 -58h-298v800h86v-300h212q88 0 163 -24zM348 84q107 0 174 42t67 127q0 163 -241 163h-212v-332h212z" />
    <glyph glyph-name="uni042A" unicode="&#x42a;" horiz-adv-x="888" 
d="M669 476q75 -24 122 -79t47 -142q0 -139 -94.5 -197t-237.5 -58h-298v715h-158v85h244v-300h212q88 0 163 -24zM680 126q67 42 67 127q0 163 -241 163h-212v-332h212q107 0 174 42z" />
    <glyph glyph-name="uni042B" unicode="&#x42b;" horiz-adv-x="915" 
d="M511 476q75 -24 122 -79t47 -142q0 -139 -94.5 -197t-237.5 -58h-298v800h86v-300h212q88 0 163 -24zM865 0h-85v800h85v-800zM348 84q107 0 174 42t67 127q0 163 -241 163h-212v-332h212z" />
    <glyph glyph-name="uni0404" unicode="&#x404;" horiz-adv-x="787" 
d="M660 247l74 -53q-43 -93 -125 -143.5t-200 -50.5q-115 0 -196 52t-122 143.5t-41 208.5q0 116 41 205.5t122 140t196 50.5q120 0 202 -50.5t126 -147.5l-75 -53q-67 165 -253 165q-75 0 -134 -33t-94.5 -94.5t-41.5 -144.5h313v-84h-313q12 -127 84.5 -199t185.5 -73
q181 -1 251 161z" />
    <glyph glyph-name="uni042D" unicode="&#x42d;" horiz-adv-x="787" 
d="M574 749.5q81 -50.5 122 -140t41 -205.5q0 -117 -41 -208.5t-122 -143.5t-196 -52q-118 0 -200 50.5t-125 143.5l74 53q70 -162 251 -161q113 1 185.5 73t84.5 199h-313v84h313q-6 83 -41.5 144.5t-94.5 94.5t-134 33q-185 0 -253 -165l-75 53q44 97 126 147.5t202 50.5
q115 0 196 -50.5z" />
    <glyph glyph-name="uni0406" unicode="&#x406;" horiz-adv-x="185" 
d="M135 800v-800h-85v800h85z" />
    <glyph glyph-name="uni0407" unicode="&#x407;" horiz-adv-x="335" 
d="M58.5 902.5q-16.5 16.5 -16.5 40.5t16.5 40.5t41.5 16.5q23 0 39.5 -16.5t16.5 -40.5t-16.5 -40.5t-39.5 -16.5q-25 0 -41.5 16.5zM195.5 902.5q-16.5 16.5 -16.5 40.5t16.5 40.5t41.5 16.5q23 0 39.5 -16.5t16.5 -40.5t-16.5 -40.5t-39.5 -16.5q-25 0 -41.5 16.5zM209 0
h-85v800h85v-800z" />
    <glyph glyph-name="uni042E" unicode="&#x42e;" horiz-adv-x="1032" 
d="M818 749.5q81 -50.5 122.5 -140t41.5 -205.5q0 -117 -41.5 -208.5t-123 -143.5t-195.5 -52q-107 0 -185.5 45.5t-122 126.5t-51.5 186h-128v-358h-85v800h85v-358l127 1q7 106 50.5 186.5t122 125.5t187.5 45q115 0 196 -50.5zM768.5 129q61.5 41 93.5 112.5t32 162.5
t-32 160.5t-93 108.5t-147 39t-147.5 -39t-93.5 -108.5t-32 -160.5t32 -163t93.5 -112.5t147.5 -40.5q85 0 146.5 41z" />
    <glyph glyph-name="uni042F" unicode="&#x42f;" horiz-adv-x="738" 
d="M680 800v-800h-86v300h-179l-257 -300h-106l261 304q-115 13 -189 71.5t-74 169.5q0 139 94.5 197t237.5 58h298zM594 716h-212q-107 0 -174 -42t-67 -127q0 -88 65.5 -125.5t175.5 -37.5h212v332z" />
    <glyph glyph-name="uni0430" unicode="&#x430;" horiz-adv-x="568" 
d="M458 470.5q60 -61.5 60 -161.5v-309h-83l15 159h-17q-22 -87 -72 -130t-122 -43q-97 0 -143 44t-46 112q0 95 72 136t211 41h104q-3 60 -45 93.5t-108 33.5q-53 0 -87 -24t-62 -71l-70 51q40 61 90.5 95.5t128.5 34.5q114 0 174 -61.5zM370 121.5q47 49.5 61 128.5h-98
q-101 0 -150 -23.5t-49 -75.5q0 -36 28 -57.5t83 -21.5q78 0 125 49.5z" />
    <glyph glyph-name="uni0431" unicode="&#x431;" horiz-adv-x="647" 
d="M123.5 586.5q60.5 74.5 167.5 96.5l32 6q48 11 74 25.5t38 33.5t23 52h85q-13 -77 -51.5 -124t-119.5 -67l-35 -8q-75 -16 -116.5 -39.5t-64.5 -70.5t-36 -133h23q17 72 69.5 113.5t123.5 41.5q78 0 137.5 -35t91.5 -95t32 -133q0 -74 -32 -134.5t-91.5 -95.5t-137.5 -35
q-140 0 -212.5 80t-72.5 229q0 25 1 38l2 28q9 152 69.5 226.5zM194 117q49 -47 135 -47q49 0 90.5 22t66.5 63t25 95q0 53 -25 93.5t-67 62.5t-90 22q-86 0 -135 -48.5t-49 -136.5q0 -79 49 -126z" />
    <glyph glyph-name="uni0432" unicode="&#x432;" horiz-adv-x="591" 
d="M302 522q94 0 138.5 -32t44.5 -83q0 -49 -31.5 -79t-81.5 -37v-15q73 -7 118 -42.5t45 -93.5q0 -66 -57.5 -103t-175.5 -37h-252v522h252zM377.5 333.5q25.5 13.5 25.5 46.5t-25.5 46t-75.5 13h-168v-119h168q50 0 75.5 13.5zM414 106q33 21 33 58t-33 56.5t-112 19.5
h-168v-155h168q79 0 112 21z" />
    <glyph glyph-name="uni0433" unicode="&#x433;" horiz-adv-x="475" 
d="M425 522v-82h-288v-440h-87v522h375z" />
    <glyph glyph-name="uni0491" unicode="&#x491;" horiz-adv-x="476" 
d="M339 719h87v-279h-289v-440h-87v522h289v197z" />
    <glyph glyph-name="uni0434" unicode="&#x434;" horiz-adv-x="809" 
d="M759 -200l-83 1v199h-543v-199l-83 -1v284h103q32 0 47 6t22.5 28.5t7.5 73.5v330h414v-438h115v-284zM561 84v356h-248v-248q0 -68 -13 -108h261z" />
    <glyph glyph-name="uni0435" unicode="&#x435;" horiz-adv-x="621" 
d="M194.5 112.5q47.5 -42.5 118.5 -42.5q51 0 92.5 22.5t67.5 64.5l63 -45q-34 -61 -92.5 -94t-130.5 -33q-75 0 -135 36.5t-94 99.5t-34 139q0 74 34 137t94.5 99.5t134.5 36.5q81 0 141 -41t90.5 -111t25.5 -154h-433q10 -72 57.5 -114.5zM196.5 406.5
q-47.5 -42.5 -58.5 -111.5h348q-10 71 -56 112.5t-117 41.5q-69 0 -116.5 -42.5z" />
    <glyph glyph-name="uni0451" unicode="&#x451;" horiz-adv-x="621" 
d="M204.5 622.5q-16.5 16.5 -16.5 40.5t16.5 40.5t41.5 16.5q23 0 39.5 -16.5t16.5 -40.5t-16.5 -40.5t-39.5 -16.5q-25 0 -41.5 16.5zM341.5 622.5q-16.5 16.5 -16.5 40.5t16.5 40.5t41.5 16.5q23 0 39.5 -16.5t16.5 -40.5t-16.5 -40.5t-39.5 -16.5q-25 0 -41.5 16.5z
M194.5 112.5q47.5 -42.5 118.5 -42.5q51 0 92.5 22.5t67.5 64.5l63 -45q-34 -61 -92.5 -94t-130.5 -33q-75 0 -135 36.5t-94 99.5t-34 139q0 74 34 137t94.5 99.5t134.5 36.5q81 0 141 -41t90.5 -111t25.5 -154h-433q10 -72 57.5 -114.5zM196.5 406.5
q-47.5 -42.5 -58.5 -111.5h348q-10 71 -56 112.5t-117 41.5q-69 0 -116.5 -42.5z" />
    <glyph glyph-name="uni0436" unicode="&#x436;" horiz-adv-x="849" 
d="M799 522l-190 -261l190 -261h-96l-160 220h-77v-220h-83v220h-77l-160 -220h-96l190 261l-190 261h96l159 -219h78v219h83v-219h78l159 219h96z" />
    <glyph glyph-name="uni0437" unicode="&#x437;" horiz-adv-x="531" 
d="M473 139q0 -68 -50 -107.5t-163 -39.5q-118 0 -164 45t-46 131h88q0 -36 10 -55.5t36 -27.5t76 -8q125 0 125 86q0 68 -125 68h-61v81h61q57 0 85 14.5t28 52.5q0 35 -28 51t-85 16q-68 0 -93.5 -19t-25.5 -72h-82q0 80 45.5 127t155.5 47q96 0 145 -37t49 -94
q0 -48 -31.5 -78.5t-80.5 -36.5v-16q131 -12 131 -128z" />
    <glyph glyph-name="uni0438" unicode="&#x438;" horiz-adv-x="593" 
d="M543 522v-523h-83v414l-315 -414h-95l1 1v522h82v-414l314 414h96z" />
    <glyph glyph-name="uni0439" unicode="&#x439;" horiz-adv-x="602" 
d="M183 616q-57 22 -92.5 68t-35.5 116h85q-1 -66 41.5 -95.5t121.5 -29.5q156 0 156 125h85q0 -69 -35.5 -115.5t-90.5 -68.5t-115 -22q-63 0 -120 22zM548 522v-523h-83v414l-315 -414h-95l1 1v522h82v-414l314 414h96z" />
    <glyph glyph-name="uni043A" unicode="&#x43a;" horiz-adv-x="592" 
d="M542 522l-190 -261l190 -261h-97l-160 220h-153v-220h-82v522h82v-219h154l159 219h97z" />
    <glyph glyph-name="uni043B" unicode="&#x43b;" horiz-adv-x="591" 
d="M541 0h-83v440h-248v-248q0 -71 -14.5 -112.5t-49 -60.5t-96.5 -19v84q32 0 47 6t22.5 28.5t7.5 73.5v330h414v-522z" />
    <glyph glyph-name="uni043C" unicode="&#x43c;" 
d="M616 522v-522h-83v372l-54 -120l-104 -252h-84l-104 253l-54 120v-373h-83v522h112l171 -419l171 419h112z" />
    <glyph glyph-name="uni043D" unicode="&#x43d;" horiz-adv-x="592" 
d="M459 522h83v-522h-83v220h-326v-220h-83v522h83v-219h326v219z" />
    <glyph glyph-name="uni043E" unicode="&#x43e;" horiz-adv-x="620" 
d="M176.5 22q-59.5 37 -93 100.5t-33.5 139.5q0 75 33.5 138t93 99.5t134.5 36.5q74 0 133.5 -36.5t92.5 -99.5t33 -138q0 -77 -33 -140t-92.5 -100t-133.5 -37q-75 0 -134.5 37zM400.5 94q39.5 24 62 67.5t22.5 99.5t-22.5 99t-62 67t-89.5 24q-51 0 -90.5 -24t-62 -67
t-22.5 -99t22.5 -99.5t62 -67.5t90.5 -24q50 0 89.5 24z" />
    <glyph glyph-name="uni043F" unicode="&#x43f;" horiz-adv-x="592" 
d="M542 522v-522h-83v440h-326v-440h-83v522h492z" />
    <glyph glyph-name="uni0440" unicode="&#x440;" horiz-adv-x="642" 
d="M474 496q55 -37 86.5 -101t31.5 -141q0 -73 -31.5 -134.5t-86.5 -98t-123 -36.5q-80 0 -132 43.5t-72 126.5h-21l10 -355h-86v722h86l-10 -158h21q20 83 72 126t132 43q68 0 123 -37zM415.5 94q41.5 23 66 65.5t24.5 96.5q0 56 -24 99t-66 66.5t-93 23.5q-45 0 -84.5 -24
t-63.5 -65.5t-24 -90.5q0 -54 23 -98.5t62.5 -70t86.5 -25.5q51 0 92.5 23z" />
    <glyph glyph-name="uni0441" unicode="&#x441;" horiz-adv-x="595" 
d="M445.5 18.5q-58.5 -33.5 -135.5 -33.5q-75 0 -134 36.5t-92.5 99.5t-33.5 139q0 75 33.5 137.5t92.5 99t134 36.5q80 0 140.5 -36.5t94.5 -102.5l-67 -49q-57 102 -165 102q-51 0 -91 -23.5t-62.5 -66t-22.5 -97.5q0 -86 49 -137.5t127 -51.5q51 0 91 23t66 66l68 -48
q-34 -60 -92.5 -93.5z" />
    <glyph glyph-name="uni0442" unicode="&#x442;" horiz-adv-x="592" 
d="M542 522v-82h-204v-440h-83v440h-205v82h492z" />
    <glyph glyph-name="uni0443" unicode="&#x443;" horiz-adv-x="583" 
d="M533 522l-127 -502q-21 -86 -53.5 -132.5t-92 -67t-164.5 -20.5v83q86 0 122 6t56.5 29.5t36.5 81.5h-119l-142 522h90l126 -463h60l118 463h89z" />
    <glyph glyph-name="uni0444" unicode="&#x444;" horiz-adv-x="707" 
d="M626.5 130.5q-30.5 -59.5 -90 -97.5t-141.5 -46v-187h-83v187q-82 8 -141.5 46t-90 97.5t-30.5 131.5q0 71 30.5 130t90 96.5t141.5 45.5v202h83v-202q82 -8 141.5 -45.5t90 -96.5t30.5 -130q0 -72 -30.5 -131.5zM526.5 132q44.5 50 44.5 129q0 78 -44.5 128t-131.5 60
v-377q87 10 131.5 60zM181 132.5q45 -50.5 131 -60.5v377q-86 -10 -131 -60t-45 -128t45 -128.5z" />
    <glyph glyph-name="uni0445" unicode="&#x445;" horiz-adv-x="605" 
d="M555 0h-100l-153 206l-153 -206h-99l195 263v20l-177 239h101l134 -181l134 181h99l-177 -239v-18z" />
    <glyph glyph-name="uni0447" unicode="&#x447;" horiz-adv-x="557" 
d="M50 377v145h85v-132q0 -53 19.5 -72.5t72.5 -19.5h194v224h85v-522h-85v215h-209q-162 0 -162 162z" />
    <glyph glyph-name="uni0446" unicode="&#x446;" horiz-adv-x="697" 
d="M647 83v-283l-83 1v199h-514v522h85v-439h306v439h85v-439h121z" />
    <glyph glyph-name="uni0448" unicode="&#x448;" horiz-adv-x="721" 
d="M586 522h85v-522h-621v522h85v-439h182v439h85v-439h184v439z" />
    <glyph glyph-name="uni0449" unicode="&#x449;" horiz-adv-x="842" 
d="M792 83v-283l-83 1v199h-659v522h85v-439h182v439h85v-439h184v439h85v-439h121z" />
    <glyph glyph-name="uni044C" unicode="&#x44c;" horiz-adv-x="585" 
d="M474.5 281.5q60.5 -38.5 60.5 -119.5q0 -83 -60.5 -122.5t-182.5 -39.5h-242v522h84v-202h158q122 0 182.5 -38.5zM414.5 103.5q35.5 20.5 35.5 58.5q0 37 -35 56t-123 19h-158v-154h158q87 0 122.5 20.5z" />
    <glyph glyph-name="uni044A" unicode="&#x44a;" horiz-adv-x="733" 
d="M622.5 281.5q60.5 -38.5 60.5 -119.5q0 -83 -60.5 -122.5t-182.5 -39.5h-242v439h-148v83h232v-202h158q122 0 182.5 -38.5zM562.5 103.5q35.5 20.5 35.5 58.5q0 37 -35 56t-123 19h-158v-154h158q87 0 122.5 20.5z" />
    <glyph glyph-name="uni044B" unicode="&#x44b;" horiz-adv-x="732" 
d="M474.5 281.5q60.5 -38.5 60.5 -119.5q0 -83 -60.5 -122.5t-182.5 -39.5h-242v522h84v-202h158q122 0 182.5 -38.5zM597 522h85v-522h-85v522zM414.5 103.5q35.5 20.5 35.5 58.5q0 37 -35 56t-123 19h-158v-154h158q87 0 122.5 20.5z" />
    <glyph glyph-name="uni0454" unicode="&#x454;" horiz-adv-x="595" 
d="M404 94q40 23 66 66l68 -48q-34 -60 -92.5 -93.5t-135.5 -33.5q-75 0 -134 36.5t-92.5 99.5t-33.5 139q0 75 33.5 137.5t92.5 99t134 36.5q80 0 140.5 -36.5t94.5 -102.5l-67 -49q-57 102 -165 102q-68 0 -115 -40.5t-58 -107.5h272v-79h-272q11 -69 58 -109t115 -40
q51 0 91 23z" />
    <glyph glyph-name="uni044D" unicode="&#x44d;" horiz-adv-x="596" 
d="M419.5 496.5q59.5 -36.5 92.5 -99t33 -137.5q0 -76 -33 -138.5t-92.5 -99.5t-133.5 -37q-77 0 -136 33.5t-93 93.5l68 48q26 -43 66.5 -66t90.5 -23q68 0 115.5 40t58.5 109h-273v79h273q-12 68 -59.5 108t-114.5 40q-108 0 -164 -102l-68 49q34 66 95 102.5t141 36.5
q74 0 133.5 -36.5z" />
    <glyph glyph-name="uni0456" unicode="&#x456;" horiz-adv-x="214" 
d="M66.5 622.5q-16.5 16.5 -16.5 40.5t16.5 40.5t41.5 16.5q23 0 39.5 -16.5t16.5 -40.5t-16.5 -40.5t-39.5 -16.5q-25 0 -41.5 16.5zM65 522h85v-522h-85v522z" />
    <glyph glyph-name="uni0457" unicode="&#x457;" horiz-adv-x="338" 
d="M58.5 622.5q-16.5 16.5 -16.5 40.5t16.5 40.5t41.5 16.5q23 0 39.5 -16.5t16.5 -40.5t-16.5 -40.5t-39.5 -16.5q-25 0 -41.5 16.5zM198.5 622.5q-16.5 16.5 -16.5 40.5t16.5 40.5t41.5 16.5q23 0 39.5 -16.5t16.5 -40.5t-16.5 -40.5t-39.5 -16.5q-25 0 -41.5 16.5z
M126 522h85v-522h-85v522z" />
    <glyph glyph-name="uni044E" unicode="&#x44e;" horiz-adv-x="778" 
d="M602.5 499.5q59.5 -36.5 92.5 -99.5t33 -138q0 -77 -33 -140t-92.5 -100t-133.5 -37q-68 0 -123.5 30.5t-91 84t-43.5 120.5h-78v-220h-83v522h83v-219h78q8 66 43.5 119t91 83.5t123.5 30.5q74 0 133.5 -36.5zM558.5 94q39.5 24 62 67.5t22.5 99.5t-22.5 99t-62 67
t-89.5 24q-51 0 -90.5 -24t-62 -67t-22.5 -99t22.5 -99.5t62 -67.5t90.5 -24q50 0 89.5 24z" />
    <glyph glyph-name="uni044F" unicode="&#x44f;" horiz-adv-x="585" 
d="M535 522v-522h-84v202h-153l-153 -202h-95l157 208q-157 23 -157 152q0 83 60.5 122.5t182.5 39.5h242zM451 439h-158q-87 0 -122.5 -20.5t-35.5 -58.5q0 -37 35 -56t123 -19h158v154z" />
    <glyph glyph-name="zero" unicode="0" horiz-adv-x="744" 
d="M210.5 39.5q-73.5 49.5 -117 143t-43.5 218.5q0 124 43.5 217t117 142.5t160.5 49.5t160.5 -49.5t118 -142.5t44.5 -217q0 -125 -44 -218t-118 -143t-161 -50t-160.5 49.5zM492.5 120.5q52.5 39.5 81.5 112t29 168.5q0 95 -29 167t-81.5 111.5t-121.5 39.5
q-70 0 -122 -39t-80 -111t-28 -168q0 -97 28 -169t80 -111.5t122 -39.5q69 0 121.5 39.5z" />
    <glyph glyph-name="one" unicode="1" horiz-adv-x="463" 
d="M323 800h90v-800h-90v672l-213 -211l-60 66z" />
    <glyph glyph-name="two" unicode="2" horiz-adv-x="662" 
d="M142 741.5q72 68.5 199 68.5q137 0 190 -70t53 -184q0 -73 -38 -141.5t-127.5 -146.5t-245.5 -179h439v-89h-562v89q176 121 270 199.5t134.5 140.5t40.5 127q0 163 -154 163q-91 0 -138.5 -47.5t-58.5 -165.5h-90q16 167 88 235.5z" />
    <glyph glyph-name="three" unicode="3" horiz-adv-x="655" 
d="M200 127.5q49 -38.5 121 -38.5q91 0 143 51t52 148q0 78 -46.5 117t-116.5 39q-53 0 -106 -22l-40 76l259 216h-381v86h503v-86l-264 -208q33 5 58 5q101 0 162 -58.5t61 -164.5q0 -138 -72.5 -213t-211.5 -75q-191 0 -271 194l68 49q33 -77 82 -115.5z" />
    <glyph glyph-name="four" unicode="4" horiz-adv-x="730" 
d="M680 275v-85h-96v-190h-90v190h-444v85l434 525h100v-525h96zM156 275h338v415z" />
    <glyph glyph-name="five" unicode="5" horiz-adv-x="671" 
d="M499.5 517q58.5 -33 90 -92.5t31.5 -137.5q0 -140 -70.5 -218.5t-209.5 -78.5q-118 0 -183 50t-108 146l68 49q34 -78 84 -117t139 -39q91 0 141 55t50 153q0 90 -49 132.5t-132 42.5q-59 0 -108 -22t-111 -70l-52 24l30 406h474v-89h-399l-22 -234q59 39 102 56t96 17
q80 0 138.5 -33z" />
    <glyph glyph-name="six" unicode="6" horiz-adv-x="664" 
d="M88 630.5q38 94.5 102.5 137t145.5 42.5q99 0 162 -47.5t108 -140.5l-70 -50q-36 75 -80.5 111.5t-119.5 36.5q-53 0 -98.5 -29.5t-74.5 -94t-29 -163.5q32 57 90 87t121 30q80 0 140.5 -32.5t93.5 -92.5t33 -140q0 -91 -33 -157.5t-94.5 -102t-145.5 -35.5
q-135 0 -212 88t-77 311q0 147 38 241.5zM195 129.5q51 -49.5 142 -49.5q86 0 136 49.5t50 155.5q0 92 -52.5 137t-133.5 45q-50 0 -94.5 -21t-71.5 -62.5t-27 -98.5q0 -106 51 -155.5z" />
    <glyph glyph-name="seven" unicode="7" horiz-adv-x="647" 
d="M597 800l-302 -800h-95l268 711h-418v89h547z" />
    <glyph glyph-name="eight" unicode="8" horiz-adv-x="725" 
d="M96.5 368q46.5 57 133.5 90q-60 21 -90 62t-30 95q0 88 65.5 141.5t187.5 53.5t187 -53.5t65 -141.5q0 -115 -120 -157q87 -33 133.5 -90t46.5 -134q0 -71 -35.5 -126t-105.5 -86.5t-171 -31.5t-171.5 31.5t-106 86.5t-35.5 126q0 77 46.5 134zM363 498q166 0 166 113
q0 58 -41.5 89t-124.5 31q-85 0 -126.5 -31t-41.5 -89q0 -113 168 -113zM197 117.5q60 -40.5 166 -40.5q105 0 164.5 40.5t59.5 121.5q0 53 -30.5 92.5t-82 60t-111.5 20.5q-61 0 -112.5 -20.5t-82.5 -60t-31 -92.5q0 -81 60 -121.5z" />
    <glyph glyph-name="nine" unicode="9" horiz-adv-x="660" 
d="M572 169.5q-38 -94.5 -102.5 -137t-145.5 -42.5q-100 0 -163 47.5t-107 140.5l70 50q36 -75 80.5 -111.5t119.5 -36.5q53 0 98.5 29.5t74.5 94t29 163.5q-32 -57 -90 -87t-121 -30q-80 0 -140.5 32.5t-93.5 92.5t-33 140q0 91 33 157.5t94.5 102t145.5 35.5
q135 0 212 -88t77 -311q0 -147 -38 -241.5zM465 670.5q-51 49.5 -142 49.5q-86 0 -136 -49.5t-50 -155.5q0 -92 52.5 -137t133.5 -45q50 0 94.5 21t71.5 62.5t27 98.5q0 106 -51 155.5z" />
    <glyph glyph-name="zero.ss01" horiz-adv-x="748" 
d="M532.5 760.5q73.5 -49.5 117.5 -142.5t44 -217q0 -125 -44 -218t-117.5 -143t-159.5 -50q-88 0 -162 49.5t-117.5 143t-43.5 218.5q0 124 43.5 217t117.5 142.5t162 49.5q86 0 159.5 -49.5zM249.5 680.5q-52.5 -39.5 -81 -111.5t-28.5 -168q0 -93 26 -163l374 395
q-31 42 -73.5 64.5t-93.5 22.5q-71 0 -123.5 -39.5zM493.5 119q52.5 40 81.5 113t29 169q0 87 -25 157l-372 -396q30 -40 72.5 -61.5t93.5 -21.5q68 0 120.5 40z" />
    <glyph glyph-name="one.ss01" horiz-adv-x="463" 
d="M323 800h90v-800h-90v642l41 40h-29l-225 -221l-60 66z" />
    <glyph glyph-name="two.ss01" horiz-adv-x="662" 
d="M141.5 741.5q71.5 68.5 198.5 68.5q138 0 190 -69.5t52 -183.5q0 -74 -37 -141.5t-129 -148t-259 -189.5v-29l65 40h390v-89h-562v89l84 58q141 99 219 171t109 128t31 111q0 72 -33.5 117t-119.5 45q-90 0 -138 -48t-58 -165h-90q16 167 87.5 235.5z" />
    <glyph glyph-name="three.ss01" horiz-adv-x="655" 
d="M199.5 128q48.5 -39 119.5 -39q95 0 146 51.5t51 148.5q0 79 -48 117.5t-120 38.5q-51 0 -103 -19l-38 72l259 216h-381v86h503v-86l-234 -185h-49v-26q36 7 74 7q103 0 164.5 -57.5t61.5 -163.5q0 -139 -72.5 -214t-213.5 -75q-187 0 -269 194l68 49q33 -76 81.5 -115z
" />
    <glyph glyph-name="four.ss01" horiz-adv-x="738" 
d="M50 275l434 525h100v-525h96v-85h-96v-190h-90v190h-444v85zM494 275l-1 374l33 43h-30l-340 -417h338z" />
    <glyph glyph-name="five.ss01" horiz-adv-x="667" 
d="M503.5 517q53.5 -33 83.5 -93t30 -138q0 -140 -71.5 -218t-206.5 -78q-113 0 -179 50.5t-108 145.5l68 49q34 -79 84.5 -119.5t134.5 -40.5q90 0 141 56.5t51 154.5q0 91 -47 135.5t-114 44.5q-52 0 -90.5 -11.5t-67.5 -30t-84 -58.5l-52 24l30 410h474v-85h-400
l-18 -204l-36 -35l18 -18q66 54 114 73t123 19q69 0 122.5 -33z" />
    <glyph glyph-name="six.ss01" horiz-adv-x="657" 
d="M88 628.5q38 94.5 101.5 138t140.5 43.5q96 0 164 -49t109 -139l-70 -50q-37 74 -85 113.5t-118 39.5q-46 0 -90 -24t-74 -78t-33 -138l-30 -36l18 -18q33 39 61.5 64t67 40t90.5 15q82 0 142.5 -32.5t93.5 -92t33 -139.5q0 -92 -33.5 -158.5t-94.5 -102t-141 -35.5
q-137 0 -213.5 92.5t-76.5 306.5q0 145 38 239.5zM193 131.5q53 -56.5 141 -56.5q86 0 138 52t52 158q0 92 -54 137t-136 45q-83 0 -138.5 -46t-55.5 -136q0 -97 53 -153.5z" />
    <glyph glyph-name="seven.ss01" horiz-adv-x="647" 
d="M50 800h547l-302 -800h-95l259 682l53 39l-17 24l-53 -34h-392v89z" />
    <glyph glyph-name="eight.ss01" horiz-adv-x="718" 
d="M172 757q-60 -53 -60 -144q0 -37 21.5 -69.5t56 -52t71.5 -19.5h4v-33h-4q-60 0 -108.5 -29t-75.5 -76t-27 -100q0 -72 34.5 -127t104 -86t170.5 -31t172 31t107 86.5t36 126.5q0 52 -28.5 99.5t-78.5 76.5t-110 29h-4v33h4q37 0 73 19.5t59 52t23 69.5q0 91 -62.5 144
t-190.5 53q-127 0 -187 -53zM234.5 526q-39.5 28 -39.5 85q0 58 38 89.5t126 31.5q170 0 170 -121q0 -113 -170 -113q-85 0 -124.5 28zM196 116q-59 43 -59 122q0 52 30 91.5t80.5 60.5t111.5 21t113.5 -21.5t84 -60.5t31.5 -91q0 -78 -62 -121.5t-167 -43.5q-104 0 -163 43
z" />
    <glyph glyph-name="nine.ss01" horiz-adv-x="644" 
d="M571 171.5q-39 -94.5 -103.5 -138t-140.5 -43.5q-95 0 -163 49.5t-110 138.5l70 50q37 -74 84 -111.5t119 -37.5q48 0 90.5 26t72.5 79t37 131l30 36l-18 18q-50 -59 -98 -89t-119 -30q-83 0 -145 33t-95.5 93t-33.5 138q0 91 33 158t95 102.5t146 35.5q140 0 214 -91.5
t74 -307.5q0 -145 -39 -239.5zM467 666q-50 55 -139 55q-86 0 -139 -51t-53 -156q0 -61 27 -101.5t70.5 -60t94.5 -19.5q52 0 95 20.5t68.5 61t25.5 99.5q0 97 -50 152z" />
    <glyph glyph-name="uni2080" unicode="&#x2080;" horiz-adv-x="744" 
d="M210.5 39.5q-73.5 49.5 -117 143t-43.5 218.5q0 124 43.5 217t117 142.5t160.5 49.5t160.5 -49.5t118 -142.5t44.5 -217q0 -125 -44 -218t-118 -143t-161 -50t-160.5 49.5zM492.5 120.5q52.5 39.5 81.5 112t29 168.5q0 95 -29 167t-81.5 111.5t-121.5 39.5
q-70 0 -122 -39t-80 -111t-28 -168q0 -97 28 -169t80 -111.5t122 -39.5q69 0 121.5 39.5z" />
    <glyph glyph-name="uni2081" unicode="&#x2081;" horiz-adv-x="463" 
d="M323 800h90v-800h-90v672l-213 -211l-60 66z" />
    <glyph glyph-name="uni2082" unicode="&#x2082;" horiz-adv-x="662" 
d="M142 741.5q72 68.5 199 68.5q137 0 190 -70t53 -184q0 -73 -38 -141.5t-127.5 -146.5t-245.5 -179h439v-89h-562v89q176 121 270 199.5t134.5 140.5t40.5 127q0 163 -154 163q-91 0 -138.5 -47.5t-58.5 -165.5h-90q16 167 88 235.5z" />
    <glyph glyph-name="uni2083" unicode="&#x2083;" horiz-adv-x="655" 
d="M200 127.5q49 -38.5 121 -38.5q91 0 143 51t52 148q0 78 -46.5 117t-116.5 39q-53 0 -106 -22l-40 76l259 216h-381v86h503v-86l-264 -208q33 5 58 5q101 0 162 -58.5t61 -164.5q0 -138 -72.5 -213t-211.5 -75q-191 0 -271 194l68 49q33 -77 82 -115.5z" />
    <glyph glyph-name="uni2084" unicode="&#x2084;" horiz-adv-x="730" 
d="M680 275v-85h-96v-190h-90v190h-444v85l434 525h100v-525h96zM156 275h338v415z" />
    <glyph glyph-name="uni2085" unicode="&#x2085;" horiz-adv-x="671" 
d="M499.5 517q58.5 -33 90 -92.5t31.5 -137.5q0 -140 -70.5 -218.5t-209.5 -78.5q-118 0 -183 50t-108 146l68 49q34 -78 84 -117t139 -39q91 0 141 55t50 153q0 90 -49 132.5t-132 42.5q-59 0 -108 -22t-111 -70l-52 24l30 406h474v-89h-399l-22 -234q59 39 102 56t96 17
q80 0 138.5 -33z" />
    <glyph glyph-name="uni2086" unicode="&#x2086;" horiz-adv-x="664" 
d="M88 630.5q38 94.5 102.5 137t145.5 42.5q99 0 162 -47.5t108 -140.5l-70 -50q-36 75 -80.5 111.5t-119.5 36.5q-53 0 -98.5 -29.5t-74.5 -94t-29 -163.5q32 57 90 87t121 30q80 0 140.5 -32.5t93.5 -92.5t33 -140q0 -91 -33 -157.5t-94.5 -102t-145.5 -35.5
q-135 0 -212 88t-77 311q0 147 38 241.5zM195 129.5q51 -49.5 142 -49.5q86 0 136 49.5t50 155.5q0 92 -52.5 137t-133.5 45q-50 0 -94.5 -21t-71.5 -62.5t-27 -98.5q0 -106 51 -155.5z" />
    <glyph glyph-name="uni2087" unicode="&#x2087;" horiz-adv-x="647" 
d="M597 800l-302 -800h-95l268 711h-418v89h547z" />
    <glyph glyph-name="uni2088" unicode="&#x2088;" horiz-adv-x="725" 
d="M96.5 368q46.5 57 133.5 90q-60 21 -90 62t-30 95q0 88 65.5 141.5t187.5 53.5t187 -53.5t65 -141.5q0 -115 -120 -157q87 -33 133.5 -90t46.5 -134q0 -71 -35.5 -126t-105.5 -86.5t-171 -31.5t-171.5 31.5t-106 86.5t-35.5 126q0 77 46.5 134zM363 498q166 0 166 113
q0 58 -41.5 89t-124.5 31q-85 0 -126.5 -31t-41.5 -89q0 -113 168 -113zM197 117.5q60 -40.5 166 -40.5q105 0 164.5 40.5t59.5 121.5q0 53 -30.5 92.5t-82 60t-111.5 20.5q-61 0 -112.5 -20.5t-82.5 -60t-31 -92.5q0 -81 60 -121.5z" />
    <glyph glyph-name="uni2089" unicode="&#x2089;" horiz-adv-x="660" 
d="M572 169.5q-38 -94.5 -102.5 -137t-145.5 -42.5q-100 0 -163 47.5t-107 140.5l70 50q36 -75 80.5 -111.5t119.5 -36.5q53 0 98.5 29.5t74.5 94t29 163.5q-32 -57 -90 -87t-121 -30q-80 0 -140.5 32.5t-93.5 92.5t-33 140q0 91 33 157.5t94.5 102t145.5 35.5
q135 0 212 -88t77 -311q0 -147 -38 -241.5zM465 670.5q-51 49.5 -142 49.5q-86 0 -136 -49.5t-50 -155.5q0 -92 52.5 -137t133.5 -45q50 0 94.5 21t71.5 62.5t27 98.5q0 106 -51 155.5z" />
    <glyph glyph-name="uni2070" unicode="&#x2070;" horiz-adv-x="744" 
d="M210.5 39.5q-73.5 49.5 -117 143t-43.5 218.5q0 124 43.5 217t117 142.5t160.5 49.5t160.5 -49.5t118 -142.5t44.5 -217q0 -125 -44 -218t-118 -143t-161 -50t-160.5 49.5zM492.5 120.5q52.5 39.5 81.5 112t29 168.5q0 95 -29 167t-81.5 111.5t-121.5 39.5
q-70 0 -122 -39t-80 -111t-28 -168q0 -97 28 -169t80 -111.5t122 -39.5q69 0 121.5 39.5z" />
    <glyph glyph-name="uni00B9" unicode="&#xb9;" horiz-adv-x="463" 
d="M323 800h90v-800h-90v672l-213 -211l-60 66z" />
    <glyph glyph-name="uni00B2" unicode="&#xb2;" horiz-adv-x="662" 
d="M142 741.5q72 68.5 199 68.5q137 0 190 -70t53 -184q0 -73 -38 -141.5t-127.5 -146.5t-245.5 -179h439v-89h-562v89q176 121 270 199.5t134.5 140.5t40.5 127q0 163 -154 163q-91 0 -138.5 -47.5t-58.5 -165.5h-90q16 167 88 235.5z" />
    <glyph glyph-name="uni00B3" unicode="&#xb3;" horiz-adv-x="655" 
d="M200 127.5q49 -38.5 121 -38.5q91 0 143 51t52 148q0 78 -46.5 117t-116.5 39q-53 0 -106 -22l-40 76l259 216h-381v86h503v-86l-264 -208q33 5 58 5q101 0 162 -58.5t61 -164.5q0 -138 -72.5 -213t-211.5 -75q-191 0 -271 194l68 49q33 -77 82 -115.5z" />
    <glyph glyph-name="uni2074" unicode="&#x2074;" horiz-adv-x="730" 
d="M680 275v-85h-96v-190h-90v190h-444v85l434 525h100v-525h96zM156 275h338v415z" />
    <glyph glyph-name="uni2075" unicode="&#x2075;" horiz-adv-x="671" 
d="M499.5 517q58.5 -33 90 -92.5t31.5 -137.5q0 -140 -70.5 -218.5t-209.5 -78.5q-118 0 -183 50t-108 146l68 49q34 -78 84 -117t139 -39q91 0 141 55t50 153q0 90 -49 132.5t-132 42.5q-59 0 -108 -22t-111 -70l-52 24l30 406h474v-89h-399l-22 -234q59 39 102 56t96 17
q80 0 138.5 -33z" />
    <glyph glyph-name="uni2076" unicode="&#x2076;" horiz-adv-x="664" 
d="M88 630.5q38 94.5 102.5 137t145.5 42.5q99 0 162 -47.5t108 -140.5l-70 -50q-36 75 -80.5 111.5t-119.5 36.5q-53 0 -98.5 -29.5t-74.5 -94t-29 -163.5q32 57 90 87t121 30q80 0 140.5 -32.5t93.5 -92.5t33 -140q0 -91 -33 -157.5t-94.5 -102t-145.5 -35.5
q-135 0 -212 88t-77 311q0 147 38 241.5zM195 129.5q51 -49.5 142 -49.5q86 0 136 49.5t50 155.5q0 92 -52.5 137t-133.5 45q-50 0 -94.5 -21t-71.5 -62.5t-27 -98.5q0 -106 51 -155.5z" />
    <glyph glyph-name="uni2077" unicode="&#x2077;" horiz-adv-x="647" 
d="M597 800l-302 -800h-95l268 711h-418v89h547z" />
    <glyph glyph-name="uni2078" unicode="&#x2078;" horiz-adv-x="725" 
d="M96.5 368q46.5 57 133.5 90q-60 21 -90 62t-30 95q0 88 65.5 141.5t187.5 53.5t187 -53.5t65 -141.5q0 -115 -120 -157q87 -33 133.5 -90t46.5 -134q0 -71 -35.5 -126t-105.5 -86.5t-171 -31.5t-171.5 31.5t-106 86.5t-35.5 126q0 77 46.5 134zM363 498q166 0 166 113
q0 58 -41.5 89t-124.5 31q-85 0 -126.5 -31t-41.5 -89q0 -113 168 -113zM197 117.5q60 -40.5 166 -40.5q105 0 164.5 40.5t59.5 121.5q0 53 -30.5 92.5t-82 60t-111.5 20.5q-61 0 -112.5 -20.5t-82.5 -60t-31 -92.5q0 -81 60 -121.5z" />
    <glyph glyph-name="uni2079" unicode="&#x2079;" horiz-adv-x="660" 
d="M572 169.5q-38 -94.5 -102.5 -137t-145.5 -42.5q-100 0 -163 47.5t-107 140.5l70 50q36 -75 80.5 -111.5t119.5 -36.5q53 0 98.5 29.5t74.5 94t29 163.5q-32 -57 -90 -87t-121 -30q-80 0 -140.5 32.5t-93.5 92.5t-33 140q0 91 33 157.5t94.5 102t145.5 35.5
q135 0 212 -88t77 -311q0 -147 -38 -241.5zM465 670.5q-51 49.5 -142 49.5q-86 0 -136 -49.5t-50 -155.5q0 -92 52.5 -137t133.5 -45q50 0 94.5 21t71.5 62.5t27 98.5q0 106 -51 155.5z" />
    <glyph glyph-name="fraction" unicode="&#x2044;" horiz-adv-x="600" 
 />
    <glyph glyph-name="period" unicode="." horiz-adv-x="241" 
d="M70.5 20.5q-20.5 20.5 -20.5 50.5q0 29 20.5 49.5t50.5 20.5q29 0 49.5 -20.5t20.5 -49.5q0 -30 -20.5 -50.5t-49.5 -20.5q-30 0 -50.5 20.5z" />
    <glyph glyph-name="comma" unicode="," horiz-adv-x="232" 
d="M182 140l-50 -270h-82l30 270h102z" />
    <glyph glyph-name="colon" unicode=":" horiz-adv-x="242" 
d="M70.5 390.5q-20.5 20.5 -20.5 50.5q0 29 20.5 49.5t50.5 20.5q29 0 49.5 -20.5t20.5 -49.5q0 -30 -20.5 -50.5t-49.5 -20.5q-30 0 -50.5 20.5zM70.5 20.5q-20.5 20.5 -20.5 50.5q0 29 20.5 49.5t50.5 20.5q29 0 49.5 -20.5t20.5 -49.5q0 -30 -20.5 -50.5t-49.5 -20.5
q-30 0 -50.5 20.5z" />
    <glyph glyph-name="semicolon" unicode=";" horiz-adv-x="242" 
d="M70.5 390.5q-20.5 20.5 -20.5 50.5q0 29 20.5 49.5t50.5 20.5q29 0 49.5 -20.5t20.5 -49.5q0 -30 -20.5 -50.5t-49.5 -20.5q-30 0 -50.5 20.5zM182 140l-50 -270h-82l30 270h102z" />
    <glyph glyph-name="ellipsis" unicode="&#x2026;" horiz-adv-x="650" 
d="M478.5 20.5q-20.5 20.5 -20.5 50.5q0 29 20.5 49.5t50.5 20.5q29 0 49.5 -20.5t20.5 -49.5q0 -30 -20.5 -50.5t-49.5 -20.5q-30 0 -50.5 20.5zM70.5 20.5q-20.5 20.5 -20.5 50.5q0 29 20.5 49.5t50.5 20.5q29 0 49.5 -20.5t20.5 -49.5q0 -30 -20.5 -50.5t-49.5 -20.5
q-30 0 -50.5 20.5zM274.5 20.5q-20.5 20.5 -20.5 50.5q0 29 20.5 49.5t50.5 20.5q29 0 49.5 -20.5t20.5 -49.5q0 -30 -20.5 -50.5t-49.5 -20.5q-30 0 -50.5 20.5z" />
    <glyph glyph-name="exclam" unicode="!" horiz-adv-x="241" 
d="M160 800v-566h-78v566h78zM70.5 20.5q-20.5 20.5 -20.5 50.5q0 29 20.5 49.5t50.5 20.5q29 0 49.5 -20.5t20.5 -49.5q0 -30 -20.5 -50.5t-49.5 -20.5q-30 0 -50.5 20.5z" />
    <glyph glyph-name="exclamdown" unicode="&#xa1;" horiz-adv-x="241" 
d="M170.5 779.5q20.5 -20.5 20.5 -50.5q0 -29 -20.5 -49.5t-49.5 -20.5q-30 0 -50.5 20.5t-20.5 49.5q0 30 20.5 50.5t50.5 20.5q29 0 49.5 -20.5zM82 0v566h78v-566h-78z" />
    <glyph glyph-name="question" unicode="?" horiz-adv-x="580" 
d="M305 800q68 0 122 -26t83.5 -69t29.5 -93q0 -63 -30 -107t-108 -105q-44 -34 -69 -75t-26 -101h-78q1 68 29.5 123.5t92.5 103.5q42 32 63.5 53t31 43.5t9.5 54.5q0 49 -38.5 81.5t-111.5 32.5q-87 0 -129.5 -48t-42.5 -168h-83q0 300 255 300zM217.5 20.5
q-20.5 20.5 -20.5 50.5q0 29 20.5 49.5t50.5 20.5q29 0 49 -20.5t20 -49.5q0 -30 -20 -50.5t-49 -20.5q-30 0 -50.5 20.5z" />
    <glyph glyph-name="questiondown" unicode="&#xbf;" horiz-adv-x="580" 
d="M363.5 679.5q20.5 -20.5 20.5 -50.5q0 -29 -20.5 -49.5t-50.5 -20.5q-29 0 -49.5 20.5t-20.5 49.5q0 30 20.5 50.5t49.5 20.5q30 0 50.5 -20.5zM275 -100q-68 0 -122 26t-83.5 69t-29.5 93q0 63 30 107t108 105q44 34 69.5 75t26.5 101h77q-1 -68 -29.5 -123.5
t-92.5 -103.5q-42 -32 -63.5 -53t-31 -43.5t-9.5 -54.5q0 -49 38.5 -81.5t111.5 -32.5q87 0 130 48t43 168h82q0 -300 -255 -300z" />
    <glyph glyph-name="periodcentered" unicode="&#xb7;" horiz-adv-x="242" 
d="M70.5 228.5q-20.5 20.5 -20.5 50.5t20.5 50.5t50.5 20.5t50.5 -20.5t20.5 -50.5t-20.5 -50.5t-50.5 -20.5t-50.5 20.5z" />
    <glyph glyph-name="bullet" unicode="&#x2022;" horiz-adv-x="324" 
d="M82 199q-32 32 -32 80t32 80t80 32q47 0 79.5 -32t32.5 -80t-32.5 -80t-79.5 -32q-48 0 -80 32z" />
    <glyph glyph-name="asterisk" unicode="*" horiz-adv-x="486" 
d="M50 548h117l-86 75l51 51l75 -84v130h72v-131l86 95l50 -50l-95 -86h116v-72h-115l84 -75l-51 -51l-75 86v-132h-72v131l-86 -95l-50 50l95 86h-116v72z" />
    <glyph glyph-name="numbersign" unicode="#" horiz-adv-x="718" 
d="M660 458h-127l-30 -215h117v-83h-128l-22 -160h-85l22 160h-147l-22 -160h-85l22 160h-117v83h128l30 215h-118v83h129l22 159h85l-22 -159h147l22 159h85l-22 -159h116v-83zM418 243l30 215h-147l-30 -215h147z" />
    <glyph glyph-name="slash" unicode="/" horiz-adv-x="435" 
d="M385 700l-246 -790h-89l246 790h89z" />
    <glyph glyph-name="backslash" unicode="\" horiz-adv-x="435" 
d="M139 700l246 -790h-89l-246 790h89z" />
    <glyph glyph-name="parenleft" unicode="(" horiz-adv-x="282" 
d="M204 628q-65 -171 -65 -323q0 -151 65 -323l28 -72h-89l-28 72q-65 172 -65 323q0 152 65 323l28 72h89z" />
    <glyph glyph-name="parenright" unicode=")" horiz-adv-x="282" 
d="M167 628q65 -171 65 -323q0 -151 -65 -323l-28 -72h-89l28 72q65 172 65 323q0 152 -65 323l-28 72h89z" />
    <glyph glyph-name="braceleft" unicode="{" horiz-adv-x="374" 
d="M132.5 257q17.5 -5 24 -15.5t6.5 -31.5v-186q0 -78 30 -110.5t95 -32.5h36v83h-18q-34 0 -47 12t-13 48v200q0 38 -8 56t-31.5 25.5t-73.5 7.5h-15v21h15q50 0 73.5 7.5t31.5 25.5t8 56v200q0 36 13 48t47 12h18v83h-36q-65 0 -95 -32.5t-30 -110.5v-188
q0 -21 -6.5 -31.5t-24 -15.5t-52.5 -5h-30v-121h30q35 0 52.5 -5z" />
    <glyph glyph-name="braceright" unicode="}" horiz-adv-x="374" 
d="M324 383h-30q-35 0 -52.5 5t-24 15.5t-6.5 31.5v188q0 78 -30 110.5t-95 32.5h-36v-83h18q34 0 47 -12t13 -48v-200q0 -38 8 -56t31.5 -25.5t73.5 -7.5h15v-21h-15q-50 0 -73.5 -7.5t-31.5 -25.5t-8 -56v-200q0 -36 -13 -48t-47 -12h-18v-83h36q65 0 95 32.5t30 110.5
v186q0 21 6.5 31.5t24 15.5t52.5 5h30v121z" />
    <glyph glyph-name="bracketleft" unicode="[" horiz-adv-x="345" 
d="M295 614h-158v-618h158v-86h-245v790h245v-86z" />
    <glyph glyph-name="bracketright" unicode="]" horiz-adv-x="337" 
d="M287 700v-790h-245v86h158v618h-158v86h245z" />
    <glyph glyph-name="hyphen" unicode="-" horiz-adv-x="526" 
d="M476 250h-426v86h426v-86z" />
    <glyph glyph-name="endash" unicode="&#x2013;" 
d="M616 250h-566v86h566v-86z" />
    <glyph glyph-name="emdash" unicode="&#x2014;" horiz-adv-x="856" 
d="M806 250h-756v86h756v-86z" />
    <glyph glyph-name="underscore" unicode="_" horiz-adv-x="526" 
d="M476 0h-426v86h426v-86z" />
    <glyph glyph-name="quotesinglbase" unicode="&#x201a;" horiz-adv-x="232" 
d="M182 140l-50 -270h-82l30 270h102z" />
    <glyph glyph-name="quotedblbase" unicode="&#x201e;" horiz-adv-x="392" 
d="M342 140l-50 -270h-82l30 270h102zM182 140l-50 -270h-82l30 270h102z" />
    <glyph glyph-name="quotedblleft" unicode="&#x201c;" horiz-adv-x="392" 
d="M100 700h82l-30 -270h-102zM260 700h82l-30 -270h-102z" />
    <glyph glyph-name="quotedblright" unicode="&#x201d;" horiz-adv-x="392" 
d="M182 430h-102l-30 270h82zM342 430h-102l-30 270h82z" />
    <glyph glyph-name="quoteleft" unicode="&#x2018;" horiz-adv-x="232" 
d="M100 700h82l-30 -270h-102z" />
    <glyph glyph-name="quoteright" unicode="&#x2019;" horiz-adv-x="232" 
d="M182 700l-50 -270h-82l30 270h102z" />
    <glyph glyph-name="guillemotleft" unicode="&#xab;" horiz-adv-x="543" 
d="M307 510l-158 -204l158 -205h-99l-158 205l158 204h99zM501 510l-158 -204l158 -205h-99l-158 205l158 204h99z" />
    <glyph glyph-name="guillemotright" unicode="&#xbb;" horiz-adv-x="543" 
d="M141 510l158 -204l-158 -205h-99l158 205l-158 204h99zM335 510l158 -204l-158 -205h-99l158 205l-158 204h99z" />
    <glyph glyph-name="guilsinglleft" unicode="&#x2039;" horiz-adv-x="357" 
d="M307 510l-158 -204l158 -205h-99l-158 205l158 204h99z" />
    <glyph glyph-name="guilsinglright" unicode="&#x203a;" horiz-adv-x="349" 
d="M141 510l158 -204l-158 -205h-99l158 205l-158 204h99z" />
    <glyph glyph-name="quotedbl" unicode="&#x22;" horiz-adv-x="386" 
d="M330 700l-20 -260h-70l-20 260h110zM154 700l-20 -260h-70l-20 260h110z" />
    <glyph glyph-name="quotesingle" unicode="'" horiz-adv-x="198" 
d="M154 700l-20 -260h-70l-20 260h110z" />
    <glyph glyph-name="cent" unicode="&#xa2;" horiz-adv-x="595" 
d="M470 241l68 -49q-30 -53 -80.5 -85.5t-116.5 -39.5v-157h-71v159q-64 9 -114.5 47.5t-78 97t-27.5 127.5q0 68 27.5 126.5t78 96.5t114.5 47v169h71v-168q69 -7 121.5 -42.5t82.5 -94.5l-67 -49q-49 88 -137 100v-372q83 11 129 87zM173.5 218.5q36.5 -48.5 96.5 -61.5
v366q-60 -14 -96.5 -62.5t-36.5 -119.5q0 -74 36.5 -122.5z" />
    <glyph glyph-name="currency" unicode="&#xa4;" horiz-adv-x="796" 
d="M618 196l128 -127l-56 -56l-128 128q-70 -53 -165 -53q-93 0 -165 51l-126 -126l-56 56l126 126q-51 72 -51 165q0 94 52 165l-127 126l56 56l126 -126q72 51 165 51q94 0 165 -52l128 127l56 -56l-128 -128q51 -70 51 -163q0 -92 -51 -164zM492 196.5q43 24.5 68 67.5
t25 96t-25 96t-68 67.5t-95 24.5q-53 0 -95.5 -24.5t-67 -67.5t-24.5 -96t24.5 -96t67 -67.5t95.5 -24.5q52 0 95 24.5z" />
    <glyph glyph-name="dollar" unicode="$" horiz-adv-x="682" 
d="M573.5 363.5q59.5 -57.5 58.5 -152.5q-1 -101 -71.5 -154.5t-187.5 -56.5v-130h-71v133q-94 12 -153 63t-99 141l75 46q33 -72 76 -111.5t101 -50.5v296q-118 24 -179 76t-61 144q0 57 32.5 99.5t87.5 66.5t120 27v110h71v-113q88 -12 143.5 -62t94.5 -140l-70 -43
q-31 69 -72 107.5t-96 49.5v-254q141 -34 200.5 -91.5zM186 521.5q39 -30.5 116 -50.5v244q-71 -3 -113 -32t-42 -82q0 -49 39 -79.5zM501 119.5q46 31.5 46 95.5q0 115 -174 156v-285q82 2 128 33.5z" />
    <glyph glyph-name="Euro" unicode="&#x20ac;" horiz-adv-x="690" 
d="M325.5 659.5q-70.5 -54.5 -96.5 -152.5l320 1v-71l-331 -1q-1 -10 -1 -32q0 -23 1 -35l331 1v-69l-321 -1q25 -102 95.5 -157.5t173.5 -56.5q44 0 78 8t65 25v-92q-32 -14 -67.5 -20.5t-83.5 -6.5q-141 0 -232.5 79.5t-117.5 220.5h-89v69h81q-1 12 -1 35q0 22 1 32h-81
v71h89q26 138 117.5 215.5t232.5 77.5q47 0 82.5 -6t68.5 -19v-93q-60 32 -143 32q-101 0 -171.5 -54.5z" />
    <glyph glyph-name="uni20B4" unicode="&#x20b4;" horiz-adv-x="676" 
d="M610 433l-556 -1v71h304q83 0 127 26t44 72q0 55 -45.5 84.5t-125.5 29.5q-77 0 -131 -39t-92 -124l-70 43q44 103 112.5 154t180.5 51q67 0 125.5 -22.5t94.5 -66t36 -104.5q0 -47 -21.5 -68.5t-74.5 -35.5h92v-70zM626 207q-44 -100 -116.5 -153.5t-191.5 -53.5
q-75 0 -136 21.5t-96.5 60.5t-35.5 90q0 44 34 78.5t87 50.5h-117v70l556 1v-71h-331q-37 0 -70.5 -15t-53.5 -42t-20 -61q0 -45 48.5 -71t134.5 -26q83 0 139.5 40.5t93.5 126.5z" />
    <glyph glyph-name="uni20BD" unicode="&#x20bd;" horiz-adv-x="825" 
d="M231 236l413 1v-84l-413 -1v-152h-86v152h-95v84h95v63h-95v84h95v417h298q143 0 237.5 -58t94.5 -197q0 -87 -47 -142t-122 -79t-163 -24h-212v-64zM443 384q241 0 241 163q0 85 -67 127t-174 42h-212v-332h212z" />
    <glyph glyph-name="sterling" unicode="&#xa3;" horiz-adv-x="643" 
d="M593 1l-542 -1h-1v83h1q137 1 137 146q0 57 -21 138h-117v71h97q-18 71 -18 128q0 234 303 234q79 0 145 -25v-93q-62 32 -145 32q-110 0 -164 -41t-54 -124q0 -48 18 -111l263 1v-71l-241 -1q20 -69 20 -132q0 -93 -42 -152l361 1v-83z" />
    <glyph glyph-name="yen" unicode="&#xa5;" horiz-adv-x="757" 
d="M707 800l-231 -424h134v-71h-173l-13 -25v-34h186v-71h-186v-173h-91v172h-185v71h185v35l-13 24h-172v71h133l-231 425h99l221 -425l16 1l220 424h101z" />
    <glyph glyph-name="plus" unicode="+" 
d="M616 331v-82h-242v-242h-82v242h-242v82h242v242h82v-242h242z" />
    <glyph glyph-name="minus" unicode="&#x2212;" 
d="M616 249h-566v82h566v-82z" />
    <glyph glyph-name="multiply" unicode="&#xd7;" horiz-adv-x="559" 
d="M509 458l-171 -171l171 -171l-58 -58l-171 171l-171 -171l-59 58l171 171l-171 171l59 59l171 -171l171 171z" />
    <glyph glyph-name="divide" unicode="&#xf7;" 
d="M616 247h-566v82h566v-82zM282.5 456.5q-20.5 20.5 -20.5 50.5q0 29 20.5 49.5t50.5 20.5q29 0 49.5 -20.5t20.5 -49.5q0 -30 -20.5 -50.5t-49.5 -20.5q-30 0 -50.5 20.5zM282.5 20.5q-20.5 20.5 -20.5 50.5q0 29 20.5 49.5t50.5 20.5q29 0 49.5 -20.5t20.5 -49.5
q0 -30 -20.5 -50.5t-49.5 -20.5q-30 0 -50.5 20.5z" />
    <glyph glyph-name="equal" unicode="=" 
d="M616 355h-566v82h566v-82zM616 161h-566v82h566v-82z" />
    <glyph glyph-name="notequal" unicode="&#x2260;" 
d="M616 355h-223l-35 -112h258v-82h-284l-78 -251h-89l78 251h-193v82h219l35 112h-254v82h279l82 263h89l-82 -263h198v-82z" />
    <glyph glyph-name="greater" unicode="&#x3e;" 
d="M50 517l566 -150v-136l-566 -160v86l500 141l-500 133v86z" />
    <glyph glyph-name="less" unicode="&#x3c;" 
d="M616 517v-86l-500 -133l500 -141v-86l-566 160v136z" />
    <glyph glyph-name="greaterequal" unicode="&#x2265;" 
d="M50 537l566 -150v-136l-566 -160v86l500 141l-500 133v86zM616 -108h-566v82h566v-82z" />
    <glyph glyph-name="lessequal" unicode="&#x2264;" 
d="M616 537v-86l-500 -133l500 -141v-86l-566 160v136zM50 -108v82h566v-82h-566z" />
    <glyph glyph-name="plusminus" unicode="&#xb1;" 
d="M616 353v-82h-242v-242h-82v242h-242v82h242v242h82v-242h242zM616 -108h-566v82h566v-82z" />
    <glyph glyph-name="approxequal" unicode="&#x2248;" 
d="M466 131q-63 0 -123 23q-72 26 -141 26q-64 0 -152 -21v85q83 20 151 20q73 0 142 -25q64 -23 123 -23q67 0 150 28v-85q-83 -28 -150 -28zM466 323q-63 0 -123 23q-72 26 -141 26q-64 0 -152 -21v85q83 20 151 20q73 0 142 -25q64 -23 123 -23q67 0 150 28v-85
q-83 -28 -150 -28z" />
    <glyph glyph-name="asciitilde" unicode="~" 
d="M466 213q-63 0 -123 23q-72 26 -141 26q-64 0 -152 -21v85q83 20 151 20q73 0 142 -25q64 -23 123 -23q67 0 150 28v-85q-83 -28 -150 -28z" />
    <glyph glyph-name="logicalnot" unicode="&#xac;" 
d="M50 331h566v-331h-86v249h-480v82z" />
    <glyph glyph-name="asciicircum" unicode="^" horiz-adv-x="540" 
d="M490 386h-88l-137 253l-129 -253h-86l160 314h110z" />
    <glyph glyph-name="emptyset" unicode="&#x2205;" horiz-adv-x="769" 
d="M609 526q53 -74 53 -166q0 -78 -37 -141.5t-100.5 -100t-140.5 -36.5q-95 0 -167 53l-115 -115l-58 58l115 115q-53 70 -53 167q0 78 36.5 141.5t100 100t141.5 36.5q92 0 167 -54l116 116l58 -58zM219 253l272 271q-48 31 -107 31q-55 0 -99.5 -25.5t-70 -70
t-25.5 -99.5q0 -60 30 -107zM549 466l-272 -271q49 -30 107 -30q54 0 98.5 25.5t70.5 70t26 99.5q0 59 -30 106z" />
    <glyph glyph-name="infinity" unicode="&#x221e;" horiz-adv-x="1192" 
d="M350.5 46q-39.5 -17 -89.5 -17q-70 0 -117.5 32.5t-70.5 85t-23 113.5t23 113.5t70.5 85t117.5 32.5q49 0 88 -17t115 -70l132 -93l132 93q73 52 113.5 69.5t89.5 17.5q70 0 117.5 -32.5t70.5 -85t23 -113.5t-23 -113.5t-70.5 -85t-117.5 -32.5q-50 0 -89.5 17t-113.5 70
l-132 94l-132 -94q-74 -53 -113.5 -70zM350 392q-49 20 -89 20q-71 0 -103 -43.5t-32 -108.5t32 -108.5t103 -43.5q39 0 88 20.5t118 72.5l78 59l-78 60q-68 52 -117 72zM843.5 127.5q49.5 -21.5 87.5 -21.5q71 0 103 44t32 110q0 65 -32 108.5t-103 43.5q-40 0 -89 -20
t-117 -72l-78 -60l78 -59q69 -52 118.5 -73.5z" />
    <glyph glyph-name="integral" unicode="&#x222b;" horiz-adv-x="590" 
d="M89 -14q39 0 56.5 13t28.5 49l174 551q16 51 49.5 76t89.5 25h53v-87h-39q-39 0 -56.5 -13t-28.5 -49l-177 -561q-16 -49 -50 -70t-87 -21h-52v87h39z" />
    <glyph glyph-name="product" unicode="&#x220f;" horiz-adv-x="678" 
d="M628 700v-88h-90v-714h-88v714h-222v-714h-88v714h-90v88h578z" />
    <glyph glyph-name="summation" unicode="&#x2211;" horiz-adv-x="522" 
d="M472 700v-84h-335l263 -252v-128l-263 -254h335v-84h-422v110l289 292l-289 291v109h422z" />
    <glyph glyph-name="radical" unicode="&#x221a;" horiz-adv-x="765" 
d="M531 870h184v-88h-123l-277 -982h-91l-174 487h94l121 -344z" />
    <glyph glyph-name="partialdiff" unicode="&#x2202;" horiz-adv-x="653" 
d="M321 -10q-128 0 -199.5 80t-71.5 221q0 80 32 141t93.5 94t145.5 33q70 0 119 -27.5t98 -84.5l19 18l-21 22q-11 91 -52.5 139.5t-125 68.5t-231.5 20v85q176 0 279.5 -40t150 -129t46.5 -241q0 -400 -282 -400zM487.5 392.5q-26.5 41.5 -70.5 62t-96 20.5q-50 0 -92 -20
t-68 -61.5t-26 -102.5q0 -106 52 -161t134 -55q57 0 100.5 26.5t68 75.5t24.5 114q0 60 -26.5 101.5z" />
    <glyph glyph-name="percent" unicode="%" horiz-adv-x="834" 
d="M134.5 375.5q-39.5 22.5 -62 62.5t-22.5 89t22.5 88.5t62 62t88.5 22.5q48 0 88 -22.5t63 -62t23 -88.5t-23 -89t-63 -62.5t-88 -22.5q-49 0 -88.5 22.5zM547 700h85l-346 -700h-85zM299.5 450q31.5 31 31.5 77q0 45 -31.5 76t-76.5 31q-46 0 -76.5 -30.5t-30.5 -76.5
t30.5 -77t76.5 -31q45 0 76.5 31zM521.5 22.5q-39.5 22.5 -62 62.5t-22.5 89t22.5 88.5t62 62t88.5 22.5q48 0 88 -22.5t63 -62t23 -88.5t-23 -89t-63 -62.5t-88 -22.5q-49 0 -88.5 22.5zM686.5 97q31.5 31 31.5 77q0 45 -31.5 76t-76.5 31q-46 0 -76.5 -30.5t-30.5 -76.5
t30.5 -77t76.5 -31q45 0 76.5 31z" />
    <glyph glyph-name="perthousand" unicode="&#x2030;" horiz-adv-x="1223" 
d="M134.5 375.5q-39.5 22.5 -62 62.5t-22.5 89t22.5 88.5t62 62t88.5 22.5q48 0 88 -22.5t63 -62t23 -88.5t-23 -89t-63 -62.5t-88 -22.5q-49 0 -88.5 22.5zM547 700h83l-346 -700h-83zM299.5 450q31.5 31 31.5 77q0 45 -31.5 76t-76.5 31q-46 0 -76.5 -30.5t-30.5 -76.5
t30.5 -77t76.5 -31q45 0 76.5 31zM519.5 22.5q-39.5 22.5 -62 62.5t-22.5 89t22.5 88.5t62 62t88.5 22.5q48 0 88 -22.5t63 -62t23 -88.5t-23 -89t-63 -62.5t-88 -22.5q-49 0 -88.5 22.5zM910.5 22.5q-39.5 22.5 -62 62.5t-22.5 89t22.5 88.5t62 62t88.5 22.5q48 0 88 -22.5
t63 -62t23 -88.5t-23 -89t-63 -62.5t-88 -22.5q-49 0 -88.5 22.5zM684.5 97q31.5 31 31.5 77q0 45 -31.5 76t-76.5 31q-46 0 -76.5 -30.5t-30.5 -76.5t30.5 -77t76.5 -31q45 0 76.5 31zM1075.5 97q31.5 31 31.5 77q0 45 -31.5 76t-76.5 31q-46 0 -76.5 -30.5t-30.5 -76.5
t30.5 -77t76.5 -31q45 0 76.5 31z" />
    <glyph glyph-name="lozenge" unicode="&#x25ca;" horiz-adv-x="615" 
d="M366 700l199 -350l-199 -350h-119l-197 350l197 350h119zM306 62l164 288l-164 288l-161 -288z" />
    <glyph glyph-name="at" unicode="@" horiz-adv-x="890" 
d="M100.5 449.5q50.5 88.5 139.5 139t199 50.5q114 0 205.5 -46t143.5 -134t52 -208v-139q0 -30 -16.5 -58t-46 -45t-67.5 -17q-57 0 -88.5 35.5t-31.5 84.5v57h-16q-14 -58 -51.5 -88t-96.5 -30q-51 0 -95.5 26.5t-71.5 72.5t-27 100q0 53 27 98.5t71.5 72t95.5 26.5
q57 0 94.5 -30.5t52.5 -85.5h17l-7 107h77v-326q0 -20 11 -30.5t39 -10.5q52 0 52 41v138q0 103 -42.5 172.5t-115.5 103.5t-165 33q-88 0 -158 -40.5t-110.5 -111t-40.5 -157.5t40 -158.5t110.5 -112t158.5 -40.5q81 0 148 35l33 -69q-82 -45 -181 -45q-110 0 -198.5 50.5
t-139.5 139.5t-51 201q0 110 50.5 198.5zM355.5 152q35.5 -34 98.5 -34q32 0 60.5 16t46 44.5t17.5 65.5v8q0 55 -36 91.5t-88 36.5q-63 0 -98.5 -34t-35.5 -96q0 -64 35.5 -98z" />
    <glyph glyph-name="ampersand" unicode="&#x26;" horiz-adv-x="728" 
d="M574 0l-44 68q-85 -68 -197 -68q-135 0 -207 68t-72 187q0 57 16 99.5t57.5 79.5t117.5 70l-194 296h561v-85h-364l-47 31l-18 -27l47 -31l312 -480q51 93 51 252h84q0 -103 -22.5 -185t-63.5 -141l87 -134h-104zM485 137l-197 300q-79 -29 -114 -73t-35 -109
q0 -77 51 -123t143 -46q91 0 152 51z" />
    <glyph glyph-name="paragraph" unicode="&#xb6;" horiz-adv-x="542" 
d="M75.5 704.5q25.5 44.5 70 70t98.5 25.5h88v-800h-88v411q-54 0 -98.5 25.5t-70 70t-25.5 99.5q0 54 25.5 98.5zM402 800h90v-800h-90v800z" />
    <glyph glyph-name="section" unicode="&#xa7;" horiz-adv-x="525" 
d="M137 -8.5q-52 35.5 -85 101.5l73 45q25 -54 60 -76t79 -22q59 0 84 18t25 43q0 34 -27.5 53.5t-92.5 25.5q-92 8 -146.5 48t-54.5 102q0 44 29.5 68.5t81.5 43.5v21q-49 21 -70.5 44.5t-21.5 61.5q0 57 51 94t138 37q77 0 129 -35.5t84 -101.5l-72 -45q-25 53 -60.5 75.5
t-79.5 22.5q-59 0 -83.5 -17.5t-24.5 -42.5q0 -34 28 -53t99 -27q83 -9 138 -46.5t55 -99.5q0 -42 -30.5 -69.5t-80.5 -46.5v-21q50 -21 71.5 -44.5t21.5 -61.5q0 -57 -51.5 -94t-138.5 -37q-76 0 -128 35.5zM359 266.5q36 23.5 36 63.5q0 37 -37 60t-95 23q-57 0 -94 -22.5
t-37 -60.5q0 -40 37.5 -63t92.5 -24q61 0 97 23.5z" />
    <glyph glyph-name="copyright" unicode="&#xa9;" horiz-adv-x="834" 
d="M229.5 28q-83.5 48 -131.5 131.5t-48 186.5q0 104 48 187.5t131.5 131.5t187.5 48q99 0 183.5 -48t134 -132t49.5 -187t-48.5 -186.5t-132.5 -131.5t-186 -48q-104 0 -187.5 48zM564 93.5q67 38.5 105.5 105t38.5 147.5q0 82 -38.5 148.5t-105 105t-147.5 38.5
q-82 0 -148.5 -38.5t-104.5 -105t-38 -148.5q0 -81 38 -148t104.5 -105t148.5 -38q80 0 147 38.5zM317.5 172.5q-45.5 25.5 -71 71t-25.5 104.5q0 58 25.5 103t71 70.5t105.5 25.5q57 0 105.5 -27.5t69.5 -73.5l-53 -38q-21 36 -51.5 51t-70.5 15q-53 0 -91 -35t-38 -91
q0 -57 37.5 -92.5t91.5 -35.5q79 0 117 58l53 -38q-20 -43 -67.5 -68t-102.5 -25q-60 0 -105.5 25.5z" />
    <glyph glyph-name="registered" unicode="&#xae;" horiz-adv-x="707" 
d="M198.5 144.5q-69.5 39.5 -109 109t-39.5 154.5q0 86 39.5 155.5t109 109t155.5 39.5q82 0 151.5 -40t110.5 -109.5t41 -154.5t-40 -154.5t-109.5 -109t-153.5 -39.5q-86 0 -155.5 39.5zM469 211q52 30 82 82t30 115t-30 115t-82 82t-115 30q-64 0 -115.5 -30t-81.5 -81.5
t-30 -115.5q0 -63 30 -115t82 -82t115 -30t115 30zM360 549q128 0 128 -100q0 -33 -15 -51.5t-48 -28.5l48 -96h-63l-37 88l-89 -1v-87h-60v276h136zM409 421.5q17 10.5 17 28.5q0 19 -17 29t-49 10h-76v-78h76q32 0 49 10.5z" />
    <glyph glyph-name="trademark" unicode="&#x2122;" horiz-adv-x="868" 
d="M349 444v-47h-137v-397h-47v397h-137v47h321zM840 444v-444h-49v333l-141 -333h-50l-146 336v-336h-49v444h51l169 -386l164 386h51z" />
    <glyph glyph-name="degree" unicode="&#xb0;" horiz-adv-x="422" 
d="M129 406q-37 21 -58 58t-21 81q0 46 21 82.5t58 57.5t82 21q44 0 81 -21t58.5 -58t21.5 -82q0 -44 -21 -81t-58 -58t-82 -21t-82 21zM274.5 482q25.5 26 25.5 63q0 38 -25.5 64t-63.5 26t-63.5 -26t-25.5 -64t25.5 -63.5t63.5 -25.5t63.5 26z" />
    <glyph glyph-name="bar" unicode="|" horiz-adv-x="600" 
d="M50 800h90v-800h-90v800z" />
    <glyph glyph-name="brokenbar" unicode="&#xa6;" horiz-adv-x="190" 
d="M50 434v366h90v-366h-90zM50 0v369h90v-369h-90z" />
    <glyph glyph-name="dagger" unicode="&#x2020;" horiz-adv-x="486" 
d="M436 700v-82h-151v-438h-84v438h-150l-1 82h151v100h84v-100h151z" />
    <glyph glyph-name="daggerdbl" unicode="&#x2021;" horiz-adv-x="486" 
d="M436 618h-151v-120h151v-82h-151v-236h-84v236h-150l-1 82h151v120h-150l-1 82h151v100h84v-100h151v-82z" />
    <glyph glyph-name="uni2116" unicode="&#x2116;" horiz-adv-x="1117" 
d="M587 129v671h85v-800h-94l-443 671v-671h-85v800h94zM789.5 523q-45.5 45 -45.5 115q0 71 45.5 116t115.5 45q44 0 81 -20.5t58.5 -57.5t21.5 -83t-21 -82.5t-58 -57t-82 -20.5q-70 0 -115.5 45zM837 706.5q-25 -25.5 -25 -68.5q0 -42 25 -67.5t68 -25.5q42 0 67.5 25.5
t25.5 67.5q0 43 -25 68.5t-68 25.5t-68 -25.5zM744 438h323v-85h-323v85z" />
    <glyph glyph-name="brevecombcy" horiz-adv-x="0" 
 />
    </font>
</defs>
</svg>
