<svg width="40" height="40" viewBox="0 0 40 40" fill="none" xmlns="http://www.w3.org/2000/svg">
<path d="M20 0L20.0039 19.9803L27.6537 1.5224L20.0111 19.9834L34.1421 5.85787L20.0166 19.9889L38.4776 12.3463L20.0197 19.9961L40 20L20.0197 20.0039L38.4776 27.6537L20.0166 20.0111L34.1421 34.1421L20.0111 20.0166L27.6537 38.4776L20.0039 20.0197L20 40L19.9961 20.0197L12.3463 38.4776L19.9889 20.0166L5.85787 34.1421L19.9834 20.0111L1.5224 27.6537L19.9803 20.0039L0 20L19.9803 19.9961L1.5224 12.3463L19.9834 19.9889L5.85787 5.85787L19.9889 19.9834L12.3463 1.5224L19.9961 19.9803L20 0Z" fill="url(#paint0_linear_501_120)" stroke="url(#paint1_linear_501_120)" stroke-width="0.645161"/>
<defs>
<linearGradient id="paint0_linear_501_120" x1="20" y1="0" x2="20" y2="40" gradientUnits="userSpaceOnUse">
<stop stop-color="#FFB6FF"/>
<stop offset="1" stop-color="#B344FF"/>
</linearGradient>
<linearGradient id="paint1_linear_501_120" x1="20" y1="0" x2="20" y2="40" gradientUnits="userSpaceOnUse">
<stop stop-color="#FFB6FF"/>
<stop offset="1" stop-color="#B344FF"/>
</linearGradient>
</defs>
</svg>
