<svg width="42" height="40" viewBox="0 0 42 40" fill="none" xmlns="http://www.w3.org/2000/svg">
<path d="M41.6807 17.061L40.0179 11.9446C39.5487 10.5009 37.8931 9.82817 36.5499 10.5345L23.6297 17.3328L26.0131 2.84549C26.2585 1.3551 25.1081 0 23.5973 0H18.2176C16.6997 0 15.548 1.36707 15.8054 2.86225L18.2774 17.2502L5.23626 10.5069C3.89431 9.8126 2.2507 10.4878 1.78383 11.9255L0.121061 17.0419C-0.348201 18.4856 0.596296 20.0035 2.09865 20.2214L16.5464 22.3163L6.10295 32.6353C5.02796 33.6971 5.16203 35.4688 6.38427 36.357L10.7369 39.5198C11.9651 40.4116 13.7009 39.983 14.3713 38.6219L20.8285 25.5281L27.4161 38.6495C28.0936 39.9998 29.821 40.42 31.0433 39.5317L35.3959 36.369C36.6241 35.4772 36.7522 33.6935 35.6653 32.6353L25.2074 22.448L39.7222 20.2381C41.2138 20.0107 42.1476 18.4975 41.6807 17.061Z" fill="url(#paint0_linear_496_3335)"/>
<defs>
<linearGradient id="paint0_linear_496_3335" x1="20.9008" y1="0" x2="20.9008" y2="40" gradientUnits="userSpaceOnUse">
<stop stop-color="#FFB6FF"/>
<stop offset="1" stop-color="#B344FF"/>
</linearGradient>
</defs>
</svg>
