<svg width="41" height="40" viewBox="0 0 41 40" fill="none" xmlns="http://www.w3.org/2000/svg">
<path d="M40.0011 19.0379H26.08C24.694 19.0379 24.0004 17.3628 24.9799 16.3822L34.8233 6.53876L33.4623 5.17774L23.6189 15.0212C22.6394 16.0007 20.9631 15.3071 20.9631 13.9211V0H19.0379V13.9211C19.0379 15.3071 17.3628 16.0007 16.3822 15.0212L6.53876 5.17774L5.17774 6.53876L15.0212 16.3822C16.0007 17.3617 15.3071 19.0379 13.9211 19.0379H0V20.9632H13.9211C15.3071 20.9632 16.0007 22.6383 15.0212 23.6189L5.17882 33.4612L6.53984 34.8223L16.3833 24.9788C17.3628 23.9993 19.039 24.6929 19.039 26.0789V40H20.9642V26.0789C20.9642 24.6929 22.6394 23.9993 23.6199 24.9788L33.4634 34.8223L34.8244 33.4612L24.981 23.6178C24.0015 22.6383 24.6951 20.9621 26.0811 20.9621H40.0022V19.0379H40.0011Z" fill="url(#paint0_linear_496_3343)"/>
<defs>
<linearGradient id="paint0_linear_496_3343" x1="20.0011" y1="0" x2="20.0011" y2="40" gradientUnits="userSpaceOnUse">
<stop stop-color="#FFB6FF"/>
<stop offset="1" stop-color="#B344FF"/>
</linearGradient>
</defs>
</svg>
