<svg width="40" height="40" viewBox="0 0 40 40" fill="none" xmlns="http://www.w3.org/2000/svg">
<path d="M35.4267 15.4267L34.2831 16.5703L36.9051 19.1912H21.9513L32.5253 8.61832V12.3263H34.1418V5.85825H27.6747V7.47473H31.3817L20.8088 18.0487V3.09599L23.4297 5.71693L24.5733 4.57332L20 0L15.4267 4.57332L16.5703 5.71693L19.1912 3.09599V18.0487L8.61833 7.47473H12.3253V5.85825H7.47472H5.85825V7.47473V12.3263H7.47472V8.61832L18.0487 19.1912H3.0949L5.71693 16.5703L4.57332 15.4267L1.1436 18.8564L0 20L1.1436 21.1436L4.57332 24.5733L5.71693 23.4297L3.0949 20.8088H18.0487L7.47472 31.3817V27.6747H5.85825V32.5253V34.1418H7.47472H12.3253V32.5253H8.61833L19.1912 21.9524V36.9051L16.5703 34.2831L15.4267 35.4267L18.8564 38.8564L20 40L21.1436 38.8564L24.5733 35.4267L23.4297 34.2831L20.8088 36.9051V21.9524L31.3817 32.5253H27.6747V34.1418H34.1418V27.6747H32.5253V31.3817L21.9513 20.8088H36.9051L34.2831 23.4297L35.4267 24.5733L40 20L35.4267 15.4267Z" fill="url(#paint0_linear_496_3351)"/>
<defs>
<linearGradient id="paint0_linear_496_3351" x1="20" y1="0" x2="20" y2="40" gradientUnits="userSpaceOnUse">
<stop stop-color="#FFB6FF"/>
<stop offset="1" stop-color="#B344FF"/>
</linearGradient>
</defs>
</svg>
