<svg width="46" height="46" viewBox="0 0 46 46" fill="none" xmlns="http://www.w3.org/2000/svg">
<path d="M45.629 22.9361C45.629 10.336 35.4146 0.121582 22.8145 0.121582C10.2144 0.121582 0 10.336 0 22.9361C0 35.5362 10.2144 45.7506 22.8145 45.7506C35.4146 45.7506 45.629 35.5362 45.629 22.9361Z" fill="#CECECE"/>
<path fill-rule="evenodd" clip-rule="evenodd" d="M33.9792 23.1954C33.9792 22.3865 33.9066 21.6087 33.7718 20.8621H23.0282V25.2746H29.1674C28.9029 26.7005 28.0993 27.9086 26.8911 28.7175V31.5797H30.5777C32.7348 29.5938 33.9792 26.6694 33.9792 23.1954Z" fill="black"/>
<path fill-rule="evenodd" clip-rule="evenodd" d="M23.0278 34.3433C26.1078 34.3433 28.69 33.3218 30.5774 31.5796L26.8907 28.7174C25.8693 29.4019 24.5626 29.8063 23.0278 29.8063C20.0567 29.8063 17.542 27.7997 16.6449 25.1034H12.8339V28.0589C14.7109 31.787 18.5686 34.3433 23.0278 34.3433Z" fill="black"/>
<path fill-rule="evenodd" clip-rule="evenodd" d="M16.6454 25.1034C16.4172 24.419 16.2876 23.6879 16.2876 22.936C16.2876 22.1842 16.4172 21.4531 16.6454 20.7686V17.8131H12.8343C12.0617 19.3531 11.621 21.0953 11.621 22.936C11.621 24.7767 12.0617 26.5189 12.8343 28.0589L16.6454 25.1034Z" fill="black"/>
<path fill-rule="evenodd" clip-rule="evenodd" d="M23.0278 16.0658C24.7026 16.0658 26.2063 16.6413 27.3885 17.7717L30.6603 14.4999C28.6848 12.6592 26.1026 11.5288 23.0278 11.5288C18.5686 11.5288 14.7109 14.0851 12.8339 17.8132L16.6449 20.7687C17.542 18.0724 20.0567 16.0658 23.0278 16.0658Z" fill="black"/>
</svg>
