<svg width="47" height="47" viewBox="0 0 47 47" fill="none" xmlns="http://www.w3.org/2000/svg">
<rect x="0.736328" y="0.895508" width="45.629" height="45.629" rx="22.8145" fill="#CECECE"/>
<path d="M23.5508 14.3643C26.5744 14.3643 26.9867 14.3643 28.2237 14.3643C29.3231 14.3643 29.8729 14.6392 30.2852 14.7766C30.835 15.0515 31.2473 15.1889 31.6596 15.6012C32.0719 16.0135 32.3468 16.4258 32.4842 16.9756C32.6216 17.3879 32.7591 17.9376 32.8965 19.0371C32.8965 20.2741 32.8965 20.5489 32.8965 23.71C32.8965 26.871 32.8965 27.1459 32.8965 28.3828C32.8965 29.4823 32.6216 30.0321 32.4842 30.4444C32.2093 30.9941 32.0719 31.4064 31.6596 31.8188C31.2473 32.2311 30.835 32.5059 30.2852 32.6434C29.8729 32.7808 29.3231 32.9182 28.2237 33.0557C26.9867 33.0557 26.7119 33.0557 23.5508 33.0557C20.3898 33.0557 20.1149 33.0557 18.878 33.0557C17.7785 33.0557 17.2287 32.7808 16.8164 32.6434C16.2667 32.3685 15.8543 32.2311 15.442 31.8188C15.0297 31.4064 14.7549 30.9941 14.6174 30.4444C14.48 30.0321 14.3425 29.4823 14.2051 28.3828C14.2051 27.1459 14.2051 26.871 14.2051 23.71C14.2051 20.5489 14.2051 20.2741 14.2051 19.0371C14.2051 17.9376 14.48 17.3879 14.6174 16.9756C14.8923 16.4258 15.0297 16.0135 15.442 15.6012C15.8543 15.1889 16.2667 14.914 16.8164 14.7766C17.2287 14.6392 17.7785 14.5017 18.878 14.3643C20.1149 14.3643 20.5272 14.3643 23.5508 14.3643ZM23.5508 12.3027C20.3898 12.3027 20.1149 12.3027 18.878 12.3027C17.641 12.3027 16.8164 12.5776 16.1292 12.8525C15.442 13.1274 14.7549 13.5397 14.0677 14.2268C13.3805 14.914 13.1056 15.4638 12.6933 16.2884C12.4184 16.9756 12.281 17.8002 12.1436 19.0371C12.1436 20.2741 12.1436 20.6864 12.1436 23.71C12.1436 26.871 12.1436 27.1459 12.1436 28.3828C12.1436 29.6198 12.4184 30.4444 12.6933 31.1316C12.9682 31.8188 13.3805 32.5059 14.0677 33.1931C14.7549 33.8803 15.3046 34.1552 16.1292 34.5675C16.8164 34.8424 17.641 34.9798 18.878 35.1172C20.1149 35.1172 20.5272 35.1172 23.5508 35.1172C26.5744 35.1172 26.9867 35.1172 28.2237 35.1172C29.4606 35.1172 30.2852 34.8424 30.9724 34.5675C31.6596 34.2926 32.3468 33.8803 33.0339 33.1931C33.7211 32.5059 33.996 31.9562 34.4083 31.1316C34.6832 30.4444 34.8206 29.6198 34.9581 28.3828C34.9581 27.1459 34.9581 26.7336 34.9581 23.71C34.9581 20.6864 34.9581 20.2741 34.9581 19.0371C34.9581 17.8002 34.6832 16.9756 34.4083 16.2884C34.1334 15.6012 33.7211 14.914 33.0339 14.2268C32.3468 13.5397 31.797 13.2648 30.9724 12.8525C30.2852 12.5776 29.4606 12.4402 28.2237 12.3027C26.9867 12.3027 26.7119 12.3027 23.5508 12.3027Z" fill="black"/>
<path d="M23.5508 17.8002C20.2523 17.8002 17.641 20.4115 17.641 23.71C17.641 27.0085 20.2523 29.6198 23.5508 29.6198C26.8493 29.6198 29.4606 27.0085 29.4606 23.71C29.4606 20.4115 26.8493 17.8002 23.5508 17.8002ZM23.5508 27.5582C21.4893 27.5582 19.7026 25.909 19.7026 23.71C19.7026 21.6484 21.3518 19.8618 23.5508 19.8618C25.6124 19.8618 27.399 21.511 27.399 23.71C27.399 25.7715 25.6124 27.5582 23.5508 27.5582Z" fill="black"/>
<path d="M29.598 19.0371C30.3571 19.0371 30.9724 18.4218 30.9724 17.6628C30.9724 16.9037 30.3571 16.2884 29.598 16.2884C28.839 16.2884 28.2237 16.9037 28.2237 17.6628C28.2237 18.4218 28.839 19.0371 29.598 19.0371Z" fill="black"/>
</svg>
