<svg width="47" height="46" viewBox="0 0 47 46" fill="none" xmlns="http://www.w3.org/2000/svg">
<rect x="0.736328" y="0.339355" width="45.629" height="45.629" rx="22.8145" fill="#CECECE"/>
<path d="M24.6716 31.139C16.0973 31.139 11.2066 25.1442 11.0029 15.1688H15.2979C15.4389 22.4905 18.6053 25.5918 21.1134 26.2312V15.1688H25.1576V21.4833C27.6342 21.2116 30.2363 18.3341 31.1141 15.1688H35.1583C34.8275 16.8104 34.1682 18.3647 33.2215 19.7346C32.2748 21.1044 31.0611 22.2603 29.6563 23.1299C31.2244 23.9245 32.6093 25.0492 33.7198 26.4298C34.8304 27.8103 35.6412 29.4154 36.0988 31.139H31.6471C31.2363 29.6419 30.4013 28.3018 29.2469 27.2865C28.0925 26.2713 26.67 25.6262 25.1576 25.4319V31.139H24.6716Z" fill="black"/>
</svg>
