<svg width="46" height="47" viewBox="0 0 46 47" fill="none" xmlns="http://www.w3.org/2000/svg">
<rect y="0.895508" width="45.629" height="45.629" rx="22.8145" fill="#CECECE"/>
<path d="M31.8568 14.6555C29.6032 12.4097 26.5983 11.162 23.4266 11.162C16.8326 11.162 11.4907 16.4854 11.4907 23.0564C11.4907 25.1359 12.075 27.2153 13.0766 28.962L11.4072 35.1172L17.7508 33.4537C19.5036 34.3686 21.4233 34.8677 23.4266 34.8677C30.0205 34.8677 35.3625 29.5443 35.3625 22.9732C35.279 19.8957 34.1104 16.9013 31.8568 14.6555ZM29.1858 27.2985C28.9354 27.9639 27.7669 28.6293 27.1826 28.7125C26.6818 28.7957 26.0141 28.7957 25.3463 28.6293C24.929 28.463 24.3447 28.2966 23.677 27.9639C20.6721 26.7162 18.7524 23.7218 18.5854 23.4723C18.4185 23.306 17.3334 21.8919 17.3334 20.3947C17.3334 18.8975 18.0846 18.2321 18.335 17.8994C18.5854 17.5667 18.9193 17.5667 19.1697 17.5667C19.3367 17.5667 19.5871 17.5667 19.754 17.5667C19.9209 17.5667 20.1713 17.4835 20.4217 18.0657C20.6721 18.648 21.2564 20.1452 21.3399 20.2284C21.4233 20.3947 21.4233 20.5611 21.3399 20.7274C21.2564 20.8938 21.1729 21.0602 21.006 21.2265C20.8391 21.3929 20.6721 21.6424 20.5887 21.7256C20.4217 21.8919 20.2548 22.0583 20.4217 22.3078C20.5887 22.6405 21.1729 23.5555 22.0911 24.3873C23.2596 25.3854 24.1778 25.7181 24.5117 25.8845C24.8455 26.0508 25.0125 25.9676 25.1794 25.8013C25.3463 25.6349 25.9306 24.9695 26.0975 24.6368C26.2645 24.3041 26.5149 24.3873 26.7653 24.4704C27.0157 24.5536 28.5181 25.3022 28.7685 25.4686C29.1024 25.6349 29.2693 25.7181 29.3528 25.8013C29.4362 26.0508 29.4362 26.6331 29.1858 27.2985Z" fill="black"/>
</svg>
