<svg width="47" height="47" viewBox="0 0 47 47" fill="none" xmlns="http://www.w3.org/2000/svg">
<rect x="0.736328" y="0.782715" width="45.629" height="45.629" rx="22.8145" fill="#CECECE"/>
<path d="M22.2645 21.9466C22.7014 21.2913 22.9198 20.5268 22.9198 19.6531C22.9198 17.3596 20.954 15.6122 18.7697 15.6122H12.4352C12.1076 15.6122 11.8892 15.8306 11.8892 16.1583V30.0285C11.8892 30.3561 12.1076 30.5746 12.4352 30.5746H19.425C22.0461 30.5746 24.2304 28.4995 24.2304 25.8783C24.2304 24.2401 23.4659 22.8203 22.2645 21.9466ZM14.6195 18.4518H18.7697C19.5342 18.4518 20.0802 19.107 20.0802 19.7623C20.0802 20.5268 19.425 21.0729 18.7697 21.0729H14.6195V18.4518ZM19.5342 27.8442H14.6195V23.9125H19.5342C20.6263 23.9125 21.5 24.7862 21.5 25.8783C21.5 26.9705 20.6263 27.8442 19.5342 27.8442Z" fill="black"/>
<path d="M36.3532 24.8954C36.3532 21.619 33.8413 18.9978 30.674 18.9978C27.5068 18.9978 24.9949 21.619 24.9949 24.8954C24.9949 28.1719 27.5068 30.793 30.674 30.793C32.5307 30.793 34.2781 29.8101 35.3703 28.1719C35.4795 27.9534 35.5887 27.735 35.6979 27.5166C35.8071 27.4073 35.6979 27.1889 35.4795 27.1889H32.7491C32.6399 27.1889 32.6399 27.1889 32.5307 27.2981C31.9846 27.8442 31.3293 28.0626 30.674 28.0626C29.2543 28.0626 28.1621 27.0797 27.8345 25.6599H35.8071C36.1348 25.6599 36.3532 25.4415 36.3532 25.1138V24.8954ZM30.674 21.8374C31.657 21.8374 32.5307 22.3835 33.0768 23.2572H28.2713C28.7082 22.3835 29.6911 21.8374 30.674 21.8374Z" fill="black"/>
<path d="M32.9676 18.3426H27.9437C27.7253 18.3426 27.5068 18.1241 27.5068 17.9057V16.7043C27.5068 16.4859 27.7253 16.2675 27.9437 16.2675H32.9676C33.186 16.2675 33.4044 16.4859 33.4044 16.7043V18.0149C33.4044 18.1241 33.2952 18.3426 32.9676 18.3426Z" fill="black"/>
</svg>
